ISO-10303-21;
HEADER;
FILE_DESCRIPTION(('FreeCAD Model'),'2;1');
FILE_NAME('Open CASCADE Shape Model','2025-03-17T21:25:22',(''),(''),
  'Open CASCADE STEP processor 7.8','FreeCAD','Unknown');
FILE_SCHEMA(('AUTOMOTIVE_DESIGN { 1 0 10303 214 1 1 1 1 }'));
ENDSEC;
DATA;
#1 = APPLICATION_PROTOCOL_DEFINITION('international standard',
  'automotive_design',2000,#2);
#2 = APPLICATION_CONTEXT(
  'core data for automotive mechanical design processes');
#3 = SHAPE_DEFINITION_REPRESENTATION(#4,#10);
#4 = PRODUCT_DEFINITION_SHAPE('','',#5);
#5 = PRODUCT_DEFINITION('design','',#6,#9);
#6 = PRODUCT_DEFINITION_FORMATION('','',#7);
#7 = PRODUCT('2-wire-slipring','2-wire-slipring','',(#8));
#8 = PRODUCT_CONTEXT('',#2,'mechanical');
#9 = PRODUCT_DEFINITION_CONTEXT('part definition',#2,'design');
#10 = SHAPE_REPRESENTATION('',(#11,#15,#19),#23);
#11 = AXIS2_PLACEMENT_3D('',#12,#13,#14);
#12 = CARTESIAN_POINT('',(0.,0.,0.));
#13 = DIRECTION('',(0.,0.,1.));
#14 = DIRECTION('',(1.,0.,-0.));
#15 = AXIS2_PLACEMENT_3D('',#16,#17,#18);
#16 = CARTESIAN_POINT('',(0.,0.,0.));
#17 = DIRECTION('',(0.,0.,1.));
#18 = DIRECTION('',(1.,0.,0.));
#19 = AXIS2_PLACEMENT_3D('',#20,#21,#22);
#20 = CARTESIAN_POINT('',(0.,0.,0.));
#21 = DIRECTION('',(0.,0.,1.));
#22 = DIRECTION('',(1.,0.,0.));
#23 = ( GEOMETRIC_REPRESENTATION_CONTEXT(3) 
GLOBAL_UNCERTAINTY_ASSIGNED_CONTEXT((#27)) GLOBAL_UNIT_ASSIGNED_CONTEXT(
(#24,#25,#26)) REPRESENTATION_CONTEXT('Context #1',
  '3D Context with UNIT and UNCERTAINTY') );
#24 = ( LENGTH_UNIT() NAMED_UNIT(*) SI_UNIT(.MILLI.,.METRE.) );
#25 = ( NAMED_UNIT(*) PLANE_ANGLE_UNIT() SI_UNIT($,.RADIAN.) );
#26 = ( NAMED_UNIT(*) SI_UNIT($,.STERADIAN.) SOLID_ANGLE_UNIT() );
#27 = UNCERTAINTY_MEASURE_WITH_UNIT(LENGTH_MEASURE(1.E-07),#24,
  'distance_accuracy_value','confusion accuracy');
#28 = PRODUCT_RELATED_PRODUCT_CATEGORY('part',$,(#7));
#29 = SHAPE_DEFINITION_REPRESENTATION(#30,#36);
#30 = PRODUCT_DEFINITION_SHAPE('','',#31);
#31 = PRODUCT_DEFINITION('design','',#32,#35);
#32 = PRODUCT_DEFINITION_FORMATION('','',#33);
#33 = PRODUCT('rotor','rotor','',(#34));
#34 = PRODUCT_CONTEXT('',#2,'mechanical');
#35 = PRODUCT_DEFINITION_CONTEXT('part definition',#2,'design');
#36 = SHAPE_REPRESENTATION('',(#11,#37,#41,#45),#49);
#37 = AXIS2_PLACEMENT_3D('',#38,#39,#40);
#38 = CARTESIAN_POINT('',(0.,-17.,0.));
#39 = DIRECTION('',(0.,0.,1.));
#40 = DIRECTION('',(1.,0.,0.));
#41 = AXIS2_PLACEMENT_3D('',#42,#43,#44);
#42 = CARTESIAN_POINT('',(0.,-17.,0.));
#43 = DIRECTION('',(1.224646799147E-16,0.,-1.));
#44 = DIRECTION('',(-1.,0.,-1.224646799147E-16));
#45 = AXIS2_PLACEMENT_3D('',#46,#47,#48);
#46 = CARTESIAN_POINT('',(0.,-9.,0.));
#47 = DIRECTION('',(0.,0.,1.));
#48 = DIRECTION('',(1.,0.,0.));
#49 = ( GEOMETRIC_REPRESENTATION_CONTEXT(3) 
GLOBAL_UNCERTAINTY_ASSIGNED_CONTEXT((#53)) GLOBAL_UNIT_ASSIGNED_CONTEXT(
(#50,#51,#52)) REPRESENTATION_CONTEXT('Context #1',
  '3D Context with UNIT and UNCERTAINTY') );
#50 = ( LENGTH_UNIT() NAMED_UNIT(*) SI_UNIT(.MILLI.,.METRE.) );
#51 = ( NAMED_UNIT(*) PLANE_ANGLE_UNIT() SI_UNIT($,.RADIAN.) );
#52 = ( NAMED_UNIT(*) SI_UNIT($,.STERADIAN.) SOLID_ANGLE_UNIT() );
#53 = UNCERTAINTY_MEASURE_WITH_UNIT(LENGTH_MEASURE(1.E-07),#50,
  'distance_accuracy_value','confusion accuracy');
#54 = CONTEXT_DEPENDENT_SHAPE_REPRESENTATION(#55,#57);
#55 = ( REPRESENTATION_RELATIONSHIP('','',#36,#10) 
REPRESENTATION_RELATIONSHIP_WITH_TRANSFORMATION(#56) 
SHAPE_REPRESENTATION_RELATIONSHIP() );
#56 = ITEM_DEFINED_TRANSFORMATION('','',#11,#15);
#57 = PRODUCT_DEFINITION_SHAPE('Placement','Placement of an item',#58);
#58 = NEXT_ASSEMBLY_USAGE_OCCURRENCE('4','rotor','',#5,#31,$);
#59 = PRODUCT_RELATED_PRODUCT_CATEGORY('part',$,(#33));
#60 = SHAPE_DEFINITION_REPRESENTATION(#61,#67);
#61 = PRODUCT_DEFINITION_SHAPE('','',#62);
#62 = PRODUCT_DEFINITION('design','',#63,#66);
#63 = PRODUCT_DEFINITION_FORMATION('','',#64);
#64 = PRODUCT('positive-rotor-wire','positive-rotor-wire','',(#65));
#65 = PRODUCT_CONTEXT('',#2,'mechanical');
#66 = PRODUCT_DEFINITION_CONTEXT('part definition',#2,'design');
#67 = ADVANCED_BREP_SHAPE_REPRESENTATION('',(#11,#68),#121);
#68 = MANIFOLD_SOLID_BREP('',#69);
#69 = CLOSED_SHELL('',(#70,#87,#112));
#70 = ADVANCED_FACE('',(#71),#82,.F.);
#71 = FACE_BOUND('',#72,.F.);
#72 = EDGE_LOOP('',(#73));
#73 = ORIENTED_EDGE('',*,*,#74,.T.);
#74 = EDGE_CURVE('',#75,#75,#77,.T.);
#75 = VERTEX_POINT('',#76);
#76 = CARTESIAN_POINT('',(0.,-3.330669073875E-16,-1.5));
#77 = CIRCLE('',#78,1.5);
#78 = AXIS2_PLACEMENT_3D('',#79,#80,#81);
#79 = CARTESIAN_POINT('',(-1.5,-3.330669073875E-16,-1.5));
#80 = DIRECTION('',(0.,-1.,2.22044604925E-16));
#81 = DIRECTION('',(1.,0.,0.));
#82 = PLANE('',#83);
#83 = AXIS2_PLACEMENT_3D('',#84,#85,#86);
#84 = CARTESIAN_POINT('',(-1.5,-3.330669073875E-16,-1.5));
#85 = DIRECTION('',(0.,-1.,2.22044604925E-16));
#86 = DIRECTION('',(0.,2.22044604925E-16,1.));
#87 = ADVANCED_FACE('',(#88),#107,.T.);
#88 = FACE_BOUND('',#89,.T.);
#89 = EDGE_LOOP('',(#90,#98,#105,#106));
#90 = ORIENTED_EDGE('',*,*,#91,.T.);
#91 = EDGE_CURVE('',#75,#92,#94,.T.);
#92 = VERTEX_POINT('',#93);
#93 = CARTESIAN_POINT('',(0.,-5.,-1.5));
#94 = LINE('',#95,#96);
#95 = CARTESIAN_POINT('',(0.,-3.330669073875E-16,-1.5));
#96 = VECTOR('',#97,1.);
#97 = DIRECTION('',(0.,-1.,4.930380657631E-32));
#98 = ORIENTED_EDGE('',*,*,#99,.F.);
#99 = EDGE_CURVE('',#92,#92,#100,.T.);
#100 = CIRCLE('',#101,1.5);
#101 = AXIS2_PLACEMENT_3D('',#102,#103,#104);
#102 = CARTESIAN_POINT('',(-1.5,-5.,-1.5));
#103 = DIRECTION('',(0.,-1.,2.22044604925E-16));
#104 = DIRECTION('',(1.,0.,0.));
#105 = ORIENTED_EDGE('',*,*,#91,.F.);
#106 = ORIENTED_EDGE('',*,*,#74,.T.);
#107 = CYLINDRICAL_SURFACE('',#108,1.5);
#108 = AXIS2_PLACEMENT_3D('',#109,#110,#111);
#109 = CARTESIAN_POINT('',(-1.5,-3.330669073875E-16,-1.5));
#110 = DIRECTION('',(0.,-1.,4.930380657631E-32));
#111 = DIRECTION('',(1.,0.,0.));
#112 = ADVANCED_FACE('',(#113),#116,.T.);
#113 = FACE_BOUND('',#114,.T.);
#114 = EDGE_LOOP('',(#115));
#115 = ORIENTED_EDGE('',*,*,#99,.T.);
#116 = PLANE('',#117);
#117 = AXIS2_PLACEMENT_3D('',#118,#119,#120);
#118 = CARTESIAN_POINT('',(-1.5,-5.,-1.5));
#119 = DIRECTION('',(0.,-1.,4.616754613447E-16));
#120 = DIRECTION('',(0.,4.616754613447E-16,1.));
#121 = ( GEOMETRIC_REPRESENTATION_CONTEXT(3) 
GLOBAL_UNCERTAINTY_ASSIGNED_CONTEXT((#125)) GLOBAL_UNIT_ASSIGNED_CONTEXT
((#122,#123,#124)) REPRESENTATION_CONTEXT('Context #1',
  '3D Context with UNIT and UNCERTAINTY') );
#122 = ( LENGTH_UNIT() NAMED_UNIT(*) SI_UNIT(.MILLI.,.METRE.) );
#123 = ( NAMED_UNIT(*) PLANE_ANGLE_UNIT() SI_UNIT($,.RADIAN.) );
#124 = ( NAMED_UNIT(*) SI_UNIT($,.STERADIAN.) SOLID_ANGLE_UNIT() );
#125 = UNCERTAINTY_MEASURE_WITH_UNIT(LENGTH_MEASURE(1.E-07),#122,
  'distance_accuracy_value','confusion accuracy');
#126 = CONTEXT_DEPENDENT_SHAPE_REPRESENTATION(#127,#129);
#127 = ( REPRESENTATION_RELATIONSHIP('','',#67,#36) 
REPRESENTATION_RELATIONSHIP_WITH_TRANSFORMATION(#128) 
SHAPE_REPRESENTATION_RELATIONSHIP() );
#128 = ITEM_DEFINED_TRANSFORMATION('','',#11,#37);
#129 = PRODUCT_DEFINITION_SHAPE('Placement','Placement of an item',#130
  );
#130 = NEXT_ASSEMBLY_USAGE_OCCURRENCE('1','positive-rotor-wire','',#31,
  #62,$);
#131 = PRODUCT_RELATED_PRODUCT_CATEGORY('part',$,(#64));
#132 = SHAPE_DEFINITION_REPRESENTATION(#133,#139);
#133 = PRODUCT_DEFINITION_SHAPE('','',#134);
#134 = PRODUCT_DEFINITION('design','',#135,#138);
#135 = PRODUCT_DEFINITION_FORMATION('','',#136);
#136 = PRODUCT('negative-rotor-wire','negative-rotor-wire','',(#137));
#137 = PRODUCT_CONTEXT('',#2,'mechanical');
#138 = PRODUCT_DEFINITION_CONTEXT('part definition',#2,'design');
#139 = ADVANCED_BREP_SHAPE_REPRESENTATION('',(#11,#140),#193);
#140 = MANIFOLD_SOLID_BREP('',#141);
#141 = CLOSED_SHELL('',(#142,#159,#184));
#142 = ADVANCED_FACE('',(#143),#154,.F.);
#143 = FACE_BOUND('',#144,.F.);
#144 = EDGE_LOOP('',(#145));
#145 = ORIENTED_EDGE('',*,*,#146,.T.);
#146 = EDGE_CURVE('',#147,#147,#149,.T.);
#147 = VERTEX_POINT('',#148);
#148 = CARTESIAN_POINT('',(0.,-3.E-16,-1.5));
#149 = CIRCLE('',#150,1.5);
#150 = AXIS2_PLACEMENT_3D('',#151,#152,#153);
#151 = CARTESIAN_POINT('',(-1.5,-3.E-16,-1.5));
#152 = DIRECTION('',(0.,-1.,2.22044604925E-16));
#153 = DIRECTION('',(1.,0.,0.));
#154 = PLANE('',#155);
#155 = AXIS2_PLACEMENT_3D('',#156,#157,#158);
#156 = CARTESIAN_POINT('',(-1.5,-3.E-16,-1.5));
#157 = DIRECTION('',(0.,-1.,2.22044604925E-16));
#158 = DIRECTION('',(0.,2.22044604925E-16,1.));
#159 = ADVANCED_FACE('',(#160),#179,.T.);
#160 = FACE_BOUND('',#161,.T.);
#161 = EDGE_LOOP('',(#162,#170,#177,#178));
#162 = ORIENTED_EDGE('',*,*,#163,.T.);
#163 = EDGE_CURVE('',#147,#164,#166,.T.);
#164 = VERTEX_POINT('',#165);
#165 = CARTESIAN_POINT('',(0.,-5.,-1.5));
#166 = LINE('',#167,#168);
#167 = CARTESIAN_POINT('',(0.,-3.E-16,-1.5));
#168 = VECTOR('',#169,1.);
#169 = DIRECTION('',(0.,-1.,0.));
#170 = ORIENTED_EDGE('',*,*,#171,.F.);
#171 = EDGE_CURVE('',#164,#164,#172,.T.);
#172 = CIRCLE('',#173,1.5);
#173 = AXIS2_PLACEMENT_3D('',#174,#175,#176);
#174 = CARTESIAN_POINT('',(-1.5,-5.,-1.5));
#175 = DIRECTION('',(0.,-1.,2.22044604925E-16));
#176 = DIRECTION('',(1.,0.,0.));
#177 = ORIENTED_EDGE('',*,*,#163,.F.);
#178 = ORIENTED_EDGE('',*,*,#146,.T.);
#179 = CYLINDRICAL_SURFACE('',#180,1.5);
#180 = AXIS2_PLACEMENT_3D('',#181,#182,#183);
#181 = CARTESIAN_POINT('',(-1.5,-3.E-16,-1.5));
#182 = DIRECTION('',(0.,-1.,0.));
#183 = DIRECTION('',(1.,0.,0.));
#184 = ADVANCED_FACE('',(#185),#188,.T.);
#185 = FACE_BOUND('',#186,.T.);
#186 = EDGE_LOOP('',(#187));
#187 = ORIENTED_EDGE('',*,*,#171,.T.);
#188 = PLANE('',#189);
#189 = AXIS2_PLACEMENT_3D('',#190,#191,#192);
#190 = CARTESIAN_POINT('',(-1.5,-5.,-1.5));
#191 = DIRECTION('',(0.,-1.,4.616754613447E-16));
#192 = DIRECTION('',(0.,4.616754613447E-16,1.));
#193 = ( GEOMETRIC_REPRESENTATION_CONTEXT(3) 
GLOBAL_UNCERTAINTY_ASSIGNED_CONTEXT((#197)) GLOBAL_UNIT_ASSIGNED_CONTEXT
((#194,#195,#196)) REPRESENTATION_CONTEXT('Context #1',
  '3D Context with UNIT and UNCERTAINTY') );
#194 = ( LENGTH_UNIT() NAMED_UNIT(*) SI_UNIT(.MILLI.,.METRE.) );
#195 = ( NAMED_UNIT(*) PLANE_ANGLE_UNIT() SI_UNIT($,.RADIAN.) );
#196 = ( NAMED_UNIT(*) SI_UNIT($,.STERADIAN.) SOLID_ANGLE_UNIT() );
#197 = UNCERTAINTY_MEASURE_WITH_UNIT(LENGTH_MEASURE(1.E-07),#194,
  'distance_accuracy_value','confusion accuracy');
#198 = CONTEXT_DEPENDENT_SHAPE_REPRESENTATION(#199,#201);
#199 = ( REPRESENTATION_RELATIONSHIP('','',#139,#36) 
REPRESENTATION_RELATIONSHIP_WITH_TRANSFORMATION(#200) 
SHAPE_REPRESENTATION_RELATIONSHIP() );
#200 = ITEM_DEFINED_TRANSFORMATION('','',#11,#41);
#201 = PRODUCT_DEFINITION_SHAPE('Placement','Placement of an item',#202
  );
#202 = NEXT_ASSEMBLY_USAGE_OCCURRENCE('2','negative-rotor-wire','',#31,
  #134,$);
#203 = PRODUCT_RELATED_PRODUCT_CATEGORY('part',$,(#136));
#204 = SHAPE_DEFINITION_REPRESENTATION(#205,#211);
#205 = PRODUCT_DEFINITION_SHAPE('','',#206);
#206 = PRODUCT_DEFINITION('design','',#207,#210);
#207 = PRODUCT_DEFINITION_FORMATION('','',#208);
#208 = PRODUCT('rotator-base','rotator-base','',(#209));
#209 = PRODUCT_CONTEXT('',#2,'mechanical');
#210 = PRODUCT_DEFINITION_CONTEXT('part definition',#2,'design');
#211 = ADVANCED_BREP_SHAPE_REPRESENTATION('',(#11,#212),#265);
#212 = MANIFOLD_SOLID_BREP('',#213);
#213 = CLOSED_SHELL('',(#214,#247,#256));
#214 = ADVANCED_FACE('',(#215),#242,.T.);
#215 = FACE_BOUND('',#216,.F.);
#216 = EDGE_LOOP('',(#217,#226,#234,#241));
#217 = ORIENTED_EDGE('',*,*,#218,.T.);
#218 = EDGE_CURVE('',#219,#219,#221,.T.);
#219 = VERTEX_POINT('',#220);
#220 = CARTESIAN_POINT('',(-4.95,0.,0.));
#221 = CIRCLE('',#222,4.95);
#222 = AXIS2_PLACEMENT_3D('',#223,#224,#225);
#223 = CARTESIAN_POINT('',(0.,0.,0.));
#224 = DIRECTION('',(0.,1.,-0.));
#225 = DIRECTION('',(-1.,0.,0.));
#226 = ORIENTED_EDGE('',*,*,#227,.T.);
#227 = EDGE_CURVE('',#219,#228,#230,.T.);
#228 = VERTEX_POINT('',#229);
#229 = CARTESIAN_POINT('',(-4.95,-8.,0.));
#230 = LINE('',#231,#232);
#231 = CARTESIAN_POINT('',(-4.95,0.,0.));
#232 = VECTOR('',#233,1.);
#233 = DIRECTION('',(0.,-1.,0.));
#234 = ORIENTED_EDGE('',*,*,#235,.F.);
#235 = EDGE_CURVE('',#228,#228,#236,.T.);
#236 = CIRCLE('',#237,4.95);
#237 = AXIS2_PLACEMENT_3D('',#238,#239,#240);
#238 = CARTESIAN_POINT('',(0.,-8.,0.));
#239 = DIRECTION('',(0.,1.,-0.));
#240 = DIRECTION('',(-1.,0.,0.));
#241 = ORIENTED_EDGE('',*,*,#227,.F.);
#242 = CYLINDRICAL_SURFACE('',#243,4.95);
#243 = AXIS2_PLACEMENT_3D('',#244,#245,#246);
#244 = CARTESIAN_POINT('',(0.,0.,0.));
#245 = DIRECTION('',(-0.,-1.,-0.));
#246 = DIRECTION('',(-1.,0.,0.));
#247 = ADVANCED_FACE('',(#248),#251,.F.);
#248 = FACE_BOUND('',#249,.F.);
#249 = EDGE_LOOP('',(#250));
#250 = ORIENTED_EDGE('',*,*,#235,.T.);
#251 = PLANE('',#252);
#252 = AXIS2_PLACEMENT_3D('',#253,#254,#255);
#253 = CARTESIAN_POINT('',(0.,-8.,0.));
#254 = DIRECTION('',(0.,1.,0.));
#255 = DIRECTION('',(-1.,0.,0.));
#256 = ADVANCED_FACE('',(#257),#260,.T.);
#257 = FACE_BOUND('',#258,.F.);
#258 = EDGE_LOOP('',(#259));
#259 = ORIENTED_EDGE('',*,*,#218,.F.);
#260 = PLANE('',#261);
#261 = AXIS2_PLACEMENT_3D('',#262,#263,#264);
#262 = CARTESIAN_POINT('',(0.,0.,0.));
#263 = DIRECTION('',(0.,1.,0.));
#264 = DIRECTION('',(-1.,-0.,-0.));
#265 = ( GEOMETRIC_REPRESENTATION_CONTEXT(3) 
GLOBAL_UNCERTAINTY_ASSIGNED_CONTEXT((#269)) GLOBAL_UNIT_ASSIGNED_CONTEXT
((#266,#267,#268)) REPRESENTATION_CONTEXT('Context #1',
  '3D Context with UNIT and UNCERTAINTY') );
#266 = ( LENGTH_UNIT() NAMED_UNIT(*) SI_UNIT(.MILLI.,.METRE.) );
#267 = ( NAMED_UNIT(*) PLANE_ANGLE_UNIT() SI_UNIT($,.RADIAN.) );
#268 = ( NAMED_UNIT(*) SI_UNIT($,.STERADIAN.) SOLID_ANGLE_UNIT() );
#269 = UNCERTAINTY_MEASURE_WITH_UNIT(LENGTH_MEASURE(1.E-07),#266,
  'distance_accuracy_value','confusion accuracy');
#270 = CONTEXT_DEPENDENT_SHAPE_REPRESENTATION(#271,#273);
#271 = ( REPRESENTATION_RELATIONSHIP('','',#211,#36) 
REPRESENTATION_RELATIONSHIP_WITH_TRANSFORMATION(#272) 
SHAPE_REPRESENTATION_RELATIONSHIP() );
#272 = ITEM_DEFINED_TRANSFORMATION('','',#11,#45);
#273 = PRODUCT_DEFINITION_SHAPE('Placement','Placement of an item',#274
  );
#274 = NEXT_ASSEMBLY_USAGE_OCCURRENCE('3','rotator-base','',#31,#206,$);
#275 = PRODUCT_RELATED_PRODUCT_CATEGORY('part',$,(#208));
#276 = SHAPE_DEFINITION_REPRESENTATION(#277,#283);
#277 = PRODUCT_DEFINITION_SHAPE('','',#278);
#278 = PRODUCT_DEFINITION('design','',#279,#282);
#279 = PRODUCT_DEFINITION_FORMATION('','',#280);
#280 = PRODUCT('stator','stator','',(#281));
#281 = PRODUCT_CONTEXT('',#2,'mechanical');
#282 = PRODUCT_DEFINITION_CONTEXT('part definition',#2,'design');
#283 = SHAPE_REPRESENTATION('',(#11,#284,#288,#292),#296);
#284 = AXIS2_PLACEMENT_3D('',#285,#286,#287);
#285 = CARTESIAN_POINT('',(0.,0.,0.));
#286 = DIRECTION('',(0.,0.,1.));
#287 = DIRECTION('',(1.,0.,0.));
#288 = AXIS2_PLACEMENT_3D('',#289,#290,#291);
#289 = CARTESIAN_POINT('',(0.,36.,0.));
#290 = DIRECTION('',(0.,0.,1.));
#291 = DIRECTION('',(1.,0.,0.));
#292 = AXIS2_PLACEMENT_3D('',#293,#294,#295);
#293 = CARTESIAN_POINT('',(-3.,0.,0.));
#294 = DIRECTION('',(0.,0.,1.));
#295 = DIRECTION('',(1.,0.,0.));
#296 = ( GEOMETRIC_REPRESENTATION_CONTEXT(3) 
GLOBAL_UNCERTAINTY_ASSIGNED_CONTEXT((#300)) GLOBAL_UNIT_ASSIGNED_CONTEXT
((#297,#298,#299)) REPRESENTATION_CONTEXT('Context #1',
  '3D Context with UNIT and UNCERTAINTY') );
#297 = ( LENGTH_UNIT() NAMED_UNIT(*) SI_UNIT(.MILLI.,.METRE.) );
#298 = ( NAMED_UNIT(*) PLANE_ANGLE_UNIT() SI_UNIT($,.RADIAN.) );
#299 = ( NAMED_UNIT(*) SI_UNIT($,.STERADIAN.) SOLID_ANGLE_UNIT() );
#300 = UNCERTAINTY_MEASURE_WITH_UNIT(LENGTH_MEASURE(1.E-07),#297,
  'distance_accuracy_value','confusion accuracy');
#301 = CONTEXT_DEPENDENT_SHAPE_REPRESENTATION(#302,#304);
#302 = ( REPRESENTATION_RELATIONSHIP('','',#283,#10) 
REPRESENTATION_RELATIONSHIP_WITH_TRANSFORMATION(#303) 
SHAPE_REPRESENTATION_RELATIONSHIP() );
#303 = ITEM_DEFINED_TRANSFORMATION('','',#11,#19);
#304 = PRODUCT_DEFINITION_SHAPE('Placement','Placement of an item',#305
  );
#305 = NEXT_ASSEMBLY_USAGE_OCCURRENCE('8','stator','',#5,#278,$);
#306 = PRODUCT_RELATED_PRODUCT_CATEGORY('part',$,(#280));
#307 = SHAPE_DEFINITION_REPRESENTATION(#308,#314);
#308 = PRODUCT_DEFINITION_SHAPE('','',#309);
#309 = PRODUCT_DEFINITION('design','',#310,#313);
#310 = PRODUCT_DEFINITION_FORMATION('','',#311);
#311 = PRODUCT('stator body','stator body','',(#312));
#312 = PRODUCT_CONTEXT('',#2,'mechanical');
#313 = PRODUCT_DEFINITION_CONTEXT('part definition',#2,'design');
#314 = ADVANCED_BREP_SHAPE_REPRESENTATION('',(#11,#315),#575);
#315 = MANIFOLD_SOLID_BREP('',#316);
#316 = CLOSED_SHELL('',(#317,#350,#359,#412,#437,#462,#487,#512,#541,
    #566));
#317 = ADVANCED_FACE('',(#318),#345,.T.);
#318 = FACE_BOUND('',#319,.T.);
#319 = EDGE_LOOP('',(#320,#330,#337,#338));
#320 = ORIENTED_EDGE('',*,*,#321,.F.);
#321 = EDGE_CURVE('',#322,#324,#326,.T.);
#322 = VERTEX_POINT('',#323);
#323 = CARTESIAN_POINT('',(-11.,0.,-0.));
#324 = VERTEX_POINT('',#325);
#325 = CARTESIAN_POINT('',(-11.,36.,-1.577721810442E-30));
#326 = LINE('',#327,#328);
#327 = CARTESIAN_POINT('',(-11.,0.,0.));
#328 = VECTOR('',#329,1.);
#329 = DIRECTION('',(0.,1.,-4.930380657631E-32));
#330 = ORIENTED_EDGE('',*,*,#331,.T.);
#331 = EDGE_CURVE('',#322,#322,#332,.T.);
#332 = CIRCLE('',#333,11.);
#333 = AXIS2_PLACEMENT_3D('',#334,#335,#336);
#334 = CARTESIAN_POINT('',(0.,0.,0.));
#335 = DIRECTION('',(0.,1.,-4.930380657631E-32));
#336 = DIRECTION('',(-1.,0.,-0.));
#337 = ORIENTED_EDGE('',*,*,#321,.T.);
#338 = ORIENTED_EDGE('',*,*,#339,.F.);
#339 = EDGE_CURVE('',#324,#324,#340,.T.);
#340 = CIRCLE('',#341,11.);
#341 = AXIS2_PLACEMENT_3D('',#342,#343,#344);
#342 = CARTESIAN_POINT('',(0.,36.,-1.577721810442E-30));
#343 = DIRECTION('',(0.,1.,-4.930380657631E-32));
#344 = DIRECTION('',(-1.,0.,-0.));
#345 = CYLINDRICAL_SURFACE('',#346,11.);
#346 = AXIS2_PLACEMENT_3D('',#347,#348,#349);
#347 = CARTESIAN_POINT('',(0.,0.,0.));
#348 = DIRECTION('',(0.,1.,-4.930380657631E-32));
#349 = DIRECTION('',(-1.,0.,-0.));
#350 = ADVANCED_FACE('',(#351),#354,.T.);
#351 = FACE_BOUND('',#352,.T.);
#352 = EDGE_LOOP('',(#353));
#353 = ORIENTED_EDGE('',*,*,#339,.T.);
#354 = PLANE('',#355);
#355 = AXIS2_PLACEMENT_3D('',#356,#357,#358);
#356 = CARTESIAN_POINT('',(0.,36.,-1.577721810442E-30));
#357 = DIRECTION('',(0.,1.,-4.930380657631E-32));
#358 = DIRECTION('',(-1.,0.,-0.));
#359 = ADVANCED_FACE('',(#360,#371,#382,#385,#396),#407,.T.);
#360 = FACE_BOUND('',#361,.T.);
#361 = EDGE_LOOP('',(#362));
#362 = ORIENTED_EDGE('',*,*,#363,.F.);
#363 = EDGE_CURVE('',#364,#364,#366,.T.);
#364 = VERTEX_POINT('',#365);
#365 = CARTESIAN_POINT('',(22.4,0.,0.));
#366 = CIRCLE('',#367,22.4);
#367 = AXIS2_PLACEMENT_3D('',#368,#369,#370);
#368 = CARTESIAN_POINT('',(0.,0.,0.));
#369 = DIRECTION('',(0.,-1.,2.22044604925E-16));
#370 = DIRECTION('',(1.,0.,0.));
#371 = FACE_BOUND('',#372,.T.);
#372 = EDGE_LOOP('',(#373));
#373 = ORIENTED_EDGE('',*,*,#374,.T.);
#374 = EDGE_CURVE('',#375,#375,#377,.T.);
#375 = VERTEX_POINT('',#376);
#376 = CARTESIAN_POINT('',(-12.45544456622,-1.942890293094E-15,-8.75));
#377 = CIRCLE('',#378,2.7);
#378 = AXIS2_PLACEMENT_3D('',#379,#380,#381);
#379 = CARTESIAN_POINT('',(-15.15544456622,-1.942890293094E-15,-8.75));
#380 = DIRECTION('',(0.,-1.,2.22044604925E-16));
#381 = DIRECTION('',(1.,0.,0.));
#382 = FACE_BOUND('',#383,.T.);
#383 = EDGE_LOOP('',(#384));
#384 = ORIENTED_EDGE('',*,*,#331,.F.);
#385 = FACE_BOUND('',#386,.T.);
#386 = EDGE_LOOP('',(#387));
#387 = ORIENTED_EDGE('',*,*,#388,.T.);
#388 = EDGE_CURVE('',#389,#389,#391,.T.);
#389 = VERTEX_POINT('',#390);
#390 = CARTESIAN_POINT('',(17.855444566228,-1.942890293094E-15,-8.75));
#391 = CIRCLE('',#392,2.7);
#392 = AXIS2_PLACEMENT_3D('',#393,#394,#395);
#393 = CARTESIAN_POINT('',(15.155444566228,-1.942890293094E-15,-8.75));
#394 = DIRECTION('',(0.,-1.,2.22044604925E-16));
#395 = DIRECTION('',(1.,0.,0.));
#396 = FACE_BOUND('',#397,.T.);
#397 = EDGE_LOOP('',(#398));
#398 = ORIENTED_EDGE('',*,*,#399,.T.);
#399 = EDGE_CURVE('',#400,#400,#402,.T.);
#400 = VERTEX_POINT('',#401);
#401 = CARTESIAN_POINT('',(2.7,3.885780586188E-15,17.5));
#402 = CIRCLE('',#403,2.7);
#403 = AXIS2_PLACEMENT_3D('',#404,#405,#406);
#404 = CARTESIAN_POINT('',(0.,3.885780586188E-15,17.5));
#405 = DIRECTION('',(0.,-1.,2.22044604925E-16));
#406 = DIRECTION('',(1.,0.,0.));
#407 = PLANE('',#408);
#408 = AXIS2_PLACEMENT_3D('',#409,#410,#411);
#409 = CARTESIAN_POINT('',(-1.165686670361E-15,3.285206305448E-31,
    1.479525389305E-15));
#410 = DIRECTION('',(0.,1.,-9.860761315263E-32));
#411 = DIRECTION('',(0.,9.860761315263E-32,1.));
#412 = ADVANCED_FACE('',(#413),#432,.T.);
#413 = FACE_BOUND('',#414,.F.);
#414 = EDGE_LOOP('',(#415,#423,#430,#431));
#415 = ORIENTED_EDGE('',*,*,#416,.T.);
#416 = EDGE_CURVE('',#364,#417,#419,.T.);
#417 = VERTEX_POINT('',#418);
#418 = CARTESIAN_POINT('',(22.4,-3.,6.661338147751E-16));
#419 = LINE('',#420,#421);
#420 = CARTESIAN_POINT('',(22.4,0.,0.));
#421 = VECTOR('',#422,1.);
#422 = DIRECTION('',(0.,-1.,2.22044604925E-16));
#423 = ORIENTED_EDGE('',*,*,#424,.T.);
#424 = EDGE_CURVE('',#417,#417,#425,.T.);
#425 = CIRCLE('',#426,22.4);
#426 = AXIS2_PLACEMENT_3D('',#427,#428,#429);
#427 = CARTESIAN_POINT('',(0.,-3.,1.33226762955E-15));
#428 = DIRECTION('',(0.,-1.,2.22044604925E-16));
#429 = DIRECTION('',(1.,0.,0.));
#430 = ORIENTED_EDGE('',*,*,#416,.F.);
#431 = ORIENTED_EDGE('',*,*,#363,.F.);
#432 = CYLINDRICAL_SURFACE('',#433,22.4);
#433 = AXIS2_PLACEMENT_3D('',#434,#435,#436);
#434 = CARTESIAN_POINT('',(0.,0.,0.));
#435 = DIRECTION('',(0.,1.,-2.22044604925E-16));
#436 = DIRECTION('',(1.,0.,0.));
#437 = ADVANCED_FACE('',(#438),#457,.F.);
#438 = FACE_BOUND('',#439,.T.);
#439 = EDGE_LOOP('',(#440,#448,#455,#456));
#440 = ORIENTED_EDGE('',*,*,#441,.T.);
#441 = EDGE_CURVE('',#375,#442,#444,.T.);
#442 = VERTEX_POINT('',#443);
#443 = CARTESIAN_POINT('',(-12.45544456622,-3.,-8.75));
#444 = LINE('',#445,#446);
#445 = CARTESIAN_POINT('',(-12.45544456622,-1.942890293094E-15,-8.75));
#446 = VECTOR('',#447,1.);
#447 = DIRECTION('',(0.,-1.,2.22044604925E-16));
#448 = ORIENTED_EDGE('',*,*,#449,.T.);
#449 = EDGE_CURVE('',#442,#442,#450,.T.);
#450 = CIRCLE('',#451,2.7);
#451 = AXIS2_PLACEMENT_3D('',#452,#453,#454);
#452 = CARTESIAN_POINT('',(-15.15544456622,-3.,-8.75));
#453 = DIRECTION('',(0.,-1.,2.22044604925E-16));
#454 = DIRECTION('',(1.,0.,0.));
#455 = ORIENTED_EDGE('',*,*,#441,.F.);
#456 = ORIENTED_EDGE('',*,*,#374,.F.);
#457 = CYLINDRICAL_SURFACE('',#458,2.7);
#458 = AXIS2_PLACEMENT_3D('',#459,#460,#461);
#459 = CARTESIAN_POINT('',(-15.15544456622,-1.942890293094E-15,-8.75));
#460 = DIRECTION('',(0.,1.,-2.22044604925E-16));
#461 = DIRECTION('',(1.,0.,0.));
#462 = ADVANCED_FACE('',(#463),#482,.F.);
#463 = FACE_BOUND('',#464,.T.);
#464 = EDGE_LOOP('',(#465,#473,#480,#481));
#465 = ORIENTED_EDGE('',*,*,#466,.T.);
#466 = EDGE_CURVE('',#389,#467,#469,.T.);
#467 = VERTEX_POINT('',#468);
#468 = CARTESIAN_POINT('',(17.855444566228,-3.,-8.75));
#469 = LINE('',#470,#471);
#470 = CARTESIAN_POINT('',(17.855444566228,-1.942890293094E-15,-8.75));
#471 = VECTOR('',#472,1.);
#472 = DIRECTION('',(0.,-1.,2.22044604925E-16));
#473 = ORIENTED_EDGE('',*,*,#474,.T.);
#474 = EDGE_CURVE('',#467,#467,#475,.T.);
#475 = CIRCLE('',#476,2.7);
#476 = AXIS2_PLACEMENT_3D('',#477,#478,#479);
#477 = CARTESIAN_POINT('',(15.155444566228,-3.,-8.75));
#478 = DIRECTION('',(0.,-1.,2.22044604925E-16));
#479 = DIRECTION('',(1.,0.,0.));
#480 = ORIENTED_EDGE('',*,*,#466,.F.);
#481 = ORIENTED_EDGE('',*,*,#388,.F.);
#482 = CYLINDRICAL_SURFACE('',#483,2.7);
#483 = AXIS2_PLACEMENT_3D('',#484,#485,#486);
#484 = CARTESIAN_POINT('',(15.155444566228,-1.942890293094E-15,-8.75));
#485 = DIRECTION('',(0.,1.,-2.22044604925E-16));
#486 = DIRECTION('',(1.,0.,0.));
#487 = ADVANCED_FACE('',(#488),#507,.F.);
#488 = FACE_BOUND('',#489,.T.);
#489 = EDGE_LOOP('',(#490,#498,#505,#506));
#490 = ORIENTED_EDGE('',*,*,#491,.T.);
#491 = EDGE_CURVE('',#400,#492,#494,.T.);
#492 = VERTEX_POINT('',#493);
#493 = CARTESIAN_POINT('',(2.7,-3.,17.5));
#494 = LINE('',#495,#496);
#495 = CARTESIAN_POINT('',(2.7,3.885780586188E-15,17.5));
#496 = VECTOR('',#497,1.);
#497 = DIRECTION('',(0.,-1.,2.22044604925E-16));
#498 = ORIENTED_EDGE('',*,*,#499,.T.);
#499 = EDGE_CURVE('',#492,#492,#500,.T.);
#500 = CIRCLE('',#501,2.7);
#501 = AXIS2_PLACEMENT_3D('',#502,#503,#504);
#502 = CARTESIAN_POINT('',(0.,-3.,17.5));
#503 = DIRECTION('',(0.,-1.,2.22044604925E-16));
#504 = DIRECTION('',(1.,0.,0.));
#505 = ORIENTED_EDGE('',*,*,#491,.F.);
#506 = ORIENTED_EDGE('',*,*,#399,.F.);
#507 = CYLINDRICAL_SURFACE('',#508,2.7);
#508 = AXIS2_PLACEMENT_3D('',#509,#510,#511);
#509 = CARTESIAN_POINT('',(0.,3.885780586188E-15,17.5));
#510 = DIRECTION('',(0.,1.,-2.22044604925E-16));
#511 = DIRECTION('',(1.,0.,0.));
#512 = ADVANCED_FACE('',(#513,#516,#519,#530,#533),#536,.F.);
#513 = FACE_BOUND('',#514,.F.);
#514 = EDGE_LOOP('',(#515));
#515 = ORIENTED_EDGE('',*,*,#424,.F.);
#516 = FACE_BOUND('',#517,.F.);
#517 = EDGE_LOOP('',(#518));
#518 = ORIENTED_EDGE('',*,*,#449,.T.);
#519 = FACE_BOUND('',#520,.F.);
#520 = EDGE_LOOP('',(#521));
#521 = ORIENTED_EDGE('',*,*,#522,.F.);
#522 = EDGE_CURVE('',#523,#523,#525,.T.);
#523 = VERTEX_POINT('',#524);
#524 = CARTESIAN_POINT('',(-11.,-3.,1.972152263053E-31));
#525 = CIRCLE('',#526,11.);
#526 = AXIS2_PLACEMENT_3D('',#527,#528,#529);
#527 = CARTESIAN_POINT('',(0.,-3.,1.972152263053E-31));
#528 = DIRECTION('',(0.,1.,-4.930380657631E-32));
#529 = DIRECTION('',(-1.,0.,-0.));
#530 = FACE_BOUND('',#531,.F.);
#531 = EDGE_LOOP('',(#532));
#532 = ORIENTED_EDGE('',*,*,#474,.T.);
#533 = FACE_BOUND('',#534,.F.);
#534 = EDGE_LOOP('',(#535));
#535 = ORIENTED_EDGE('',*,*,#499,.T.);
#536 = PLANE('',#537);
#537 = AXIS2_PLACEMENT_3D('',#538,#539,#540);
#538 = CARTESIAN_POINT('',(-1.165686670361E-15,-3.,2.6645352591E-15));
#539 = DIRECTION('',(0.,1.,-9.860761315263E-32));
#540 = DIRECTION('',(0.,9.860761315263E-32,1.));
#541 = ADVANCED_FACE('',(#542),#561,.T.);
#542 = FACE_BOUND('',#543,.F.);
#543 = EDGE_LOOP('',(#544,#552,#553,#554));
#544 = ORIENTED_EDGE('',*,*,#545,.F.);
#545 = EDGE_CURVE('',#523,#546,#548,.T.);
#546 = VERTEX_POINT('',#547);
#547 = CARTESIAN_POINT('',(-11.,-9.,3.944304526105E-31));
#548 = LINE('',#549,#550);
#549 = CARTESIAN_POINT('',(-11.,-3.,1.972152263053E-31));
#550 = VECTOR('',#551,1.);
#551 = DIRECTION('',(0.,-1.,4.930380657631E-32));
#552 = ORIENTED_EDGE('',*,*,#522,.T.);
#553 = ORIENTED_EDGE('',*,*,#545,.T.);
#554 = ORIENTED_EDGE('',*,*,#555,.F.);
#555 = EDGE_CURVE('',#546,#546,#556,.T.);
#556 = CIRCLE('',#557,11.);
#557 = AXIS2_PLACEMENT_3D('',#558,#559,#560);
#558 = CARTESIAN_POINT('',(0.,-9.,3.944304526105E-31));
#559 = DIRECTION('',(0.,1.,-4.930380657631E-32));
#560 = DIRECTION('',(-1.,0.,-0.));
#561 = CYLINDRICAL_SURFACE('',#562,11.);
#562 = AXIS2_PLACEMENT_3D('',#563,#564,#565);
#563 = CARTESIAN_POINT('',(0.,-3.,1.972152263053E-31));
#564 = DIRECTION('',(0.,-1.,4.930380657631E-32));
#565 = DIRECTION('',(-1.,0.,0.));
#566 = ADVANCED_FACE('',(#567),#570,.F.);
#567 = FACE_BOUND('',#568,.F.);
#568 = EDGE_LOOP('',(#569));
#569 = ORIENTED_EDGE('',*,*,#555,.T.);
#570 = PLANE('',#571);
#571 = AXIS2_PLACEMENT_3D('',#572,#573,#574);
#572 = CARTESIAN_POINT('',(0.,-9.,3.944304526105E-31));
#573 = DIRECTION('',(0.,1.,-4.930380657631E-32));
#574 = DIRECTION('',(-1.,0.,-0.));
#575 = ( GEOMETRIC_REPRESENTATION_CONTEXT(3) 
GLOBAL_UNCERTAINTY_ASSIGNED_CONTEXT((#579)) GLOBAL_UNIT_ASSIGNED_CONTEXT
((#576,#577,#578)) REPRESENTATION_CONTEXT('Context #1',
  '3D Context with UNIT and UNCERTAINTY') );
#576 = ( LENGTH_UNIT() NAMED_UNIT(*) SI_UNIT(.MILLI.,.METRE.) );
#577 = ( NAMED_UNIT(*) PLANE_ANGLE_UNIT() SI_UNIT($,.RADIAN.) );
#578 = ( NAMED_UNIT(*) SI_UNIT($,.STERADIAN.) SOLID_ANGLE_UNIT() );
#579 = UNCERTAINTY_MEASURE_WITH_UNIT(LENGTH_MEASURE(1.E-07),#576,
  'distance_accuracy_value','confusion accuracy');
#580 = CONTEXT_DEPENDENT_SHAPE_REPRESENTATION(#581,#583);
#581 = ( REPRESENTATION_RELATIONSHIP('','',#314,#283) 
REPRESENTATION_RELATIONSHIP_WITH_TRANSFORMATION(#582) 
SHAPE_REPRESENTATION_RELATIONSHIP() );
#582 = ITEM_DEFINED_TRANSFORMATION('','',#11,#284);
#583 = PRODUCT_DEFINITION_SHAPE('Placement','Placement of an item',#584
  );
#584 = NEXT_ASSEMBLY_USAGE_OCCURRENCE('5','stator body','',#278,#309,$);
#585 = PRODUCT_RELATED_PRODUCT_CATEGORY('part',$,(#311));
#586 = SHAPE_DEFINITION_REPRESENTATION(#587,#593);
#587 = PRODUCT_DEFINITION_SHAPE('','',#588);
#588 = PRODUCT_DEFINITION('design','',#589,#592);
#589 = PRODUCT_DEFINITION_FORMATION('','',#590);
#590 = PRODUCT('positive-stator-wire','positive-stator-wire','',(#591));
#591 = PRODUCT_CONTEXT('',#2,'mechanical');
#592 = PRODUCT_DEFINITION_CONTEXT('part definition',#2,'design');
#593 = ADVANCED_BREP_SHAPE_REPRESENTATION('',(#11,#594),#708);
#594 = MANIFOLD_SOLID_BREP('',#595);
#595 = CLOSED_SHELL('',(#596,#613,#641,#671,#699));
#596 = ADVANCED_FACE('',(#597),#608,.F.);
#597 = FACE_BOUND('',#598,.F.);
#598 = EDGE_LOOP('',(#599));
#599 = ORIENTED_EDGE('',*,*,#600,.T.);
#600 = EDGE_CURVE('',#601,#601,#603,.T.);
#601 = VERTEX_POINT('',#602);
#602 = CARTESIAN_POINT('',(0.,-1.642518867329E-15,-7.397247358852));
#603 = CIRCLE('',#604,1.5);
#604 = AXIS2_PLACEMENT_3D('',#605,#606,#607);
#605 = CARTESIAN_POINT('',(1.5,-1.642518867329E-15,-7.397247358852));
#606 = DIRECTION('',(-0.,1.,-2.22044604925E-16));
#607 = DIRECTION('',(-1.,-0.,0.));
#608 = PLANE('',#609);
#609 = AXIS2_PLACEMENT_3D('',#610,#611,#612);
#610 = CARTESIAN_POINT('',(1.5,-1.642518867329E-15,-7.397247358852));
#611 = DIRECTION('',(-0.,1.,-2.22044604925E-16));
#612 = DIRECTION('',(0.,-2.22044604925E-16,-1.));
#613 = ADVANCED_FACE('',(#614),#633,.T.);
#614 = FACE_BOUND('',#615,.T.);
#615 = EDGE_LOOP('',(#616,#624,#631,#632));
#616 = ORIENTED_EDGE('',*,*,#617,.T.);
#617 = EDGE_CURVE('',#601,#618,#620,.T.);
#618 = VERTEX_POINT('',#619);
#619 = CARTESIAN_POINT('',(0.,3.672806419824,-7.117318435323));
#620 = LINE('',#621,#622);
#621 = CARTESIAN_POINT('',(0.,-1.642518867329E-15,-7.397247358852));
#622 = VECTOR('',#623,1.);
#623 = DIRECTION('',(0.,0.997108105871,7.599621837163E-02));
#624 = ORIENTED_EDGE('',*,*,#625,.F.);
#625 = EDGE_CURVE('',#618,#618,#626,.T.);
#626 = CIRCLE('',#627,1.5);
#627 = AXIS2_PLACEMENT_3D('',#628,#629,#630);
#628 = CARTESIAN_POINT('',(1.5,3.672806419824,-7.117318435323));
#629 = DIRECTION('',(-0.,1.,-2.22044604925E-16));
#630 = DIRECTION('',(-1.,-0.,0.));
#631 = ORIENTED_EDGE('',*,*,#617,.F.);
#632 = ORIENTED_EDGE('',*,*,#600,.T.);
#633 = SURFACE_OF_LINEAR_EXTRUSION('',#634,#639);
#634 = CIRCLE('',#635,1.5);
#635 = AXIS2_PLACEMENT_3D('',#636,#637,#638);
#636 = CARTESIAN_POINT('',(1.5,-1.642518867329E-15,-7.397247358852));
#637 = DIRECTION('',(-0.,1.,-2.22044604925E-16));
#638 = DIRECTION('',(-1.,-0.,0.));
#639 = VECTOR('',#640,1.);
#640 = DIRECTION('',(0.,0.997108105871,7.599621837163E-02));
#641 = ADVANCED_FACE('',(#642),#662,.F.);
#642 = FACE_BOUND('',#643,.F.);
#643 = EDGE_LOOP('',(#644,#653,#660,#661));
#644 = ORIENTED_EDGE('',*,*,#645,.T.);
#645 = EDGE_CURVE('',#618,#646,#648,.T.);
#646 = VERTEX_POINT('',#647);
#647 = CARTESIAN_POINT('',(0.,7.976217113416,-2.525982737213));
#648 = CIRCLE('',#649,4.65767659432);
#649 = AXIS2_PLACEMENT_3D('',#650,#651,#652);
#650 = CARTESIAN_POINT('',(0.,3.318840612258,-2.473111348602));
#651 = DIRECTION('',(1.,0.,-0.));
#652 = DIRECTION('',(0.,1.,3.135330171536E-17));
#653 = ORIENTED_EDGE('',*,*,#654,.T.);
#654 = EDGE_CURVE('',#646,#646,#655,.T.);
#655 = CIRCLE('',#656,1.5);
#656 = AXIS2_PLACEMENT_3D('',#657,#658,#659);
#657 = CARTESIAN_POINT('',(1.5,7.976217113416,-2.525982737213));
#658 = DIRECTION('',(0.,8.730994596524E-02,0.996181195032));
#659 = DIRECTION('',(-1.,-0.,0.));
#660 = ORIENTED_EDGE('',*,*,#645,.F.);
#661 = ORIENTED_EDGE('',*,*,#625,.F.);
#662 = SURFACE_OF_REVOLUTION('',#663,#668);
#663 = CIRCLE('',#664,1.5);
#664 = AXIS2_PLACEMENT_3D('',#665,#666,#667);
#665 = CARTESIAN_POINT('',(1.5,7.976517206578,-2.473111348602));
#666 = DIRECTION('',(0.,7.599621837163E-02,0.997108105871));
#667 = DIRECTION('',(-1.,-0.,0.));
#668 = AXIS1_PLACEMENT('',#669,#670);
#669 = CARTESIAN_POINT('',(1.5,3.318840612258,-2.473111348602));
#670 = DIRECTION('',(1.,0.,0.));
#671 = ADVANCED_FACE('',(#672),#691,.T.);
#672 = FACE_BOUND('',#673,.T.);
#673 = EDGE_LOOP('',(#674,#682,#689,#690));
#674 = ORIENTED_EDGE('',*,*,#675,.T.);
#675 = EDGE_CURVE('',#646,#676,#678,.T.);
#676 = VERTEX_POINT('',#677);
#677 = CARTESIAN_POINT('',(0.,8.061733000005,5.007008000009));
#678 = LINE('',#679,#680);
#679 = CARTESIAN_POINT('',(0.,7.976217113416,-2.525982737213));
#680 = VECTOR('',#681,1.);
#681 = DIRECTION('',(0.,1.135145120971E-02,0.999935570202));
#682 = ORIENTED_EDGE('',*,*,#683,.F.);
#683 = EDGE_CURVE('',#676,#676,#684,.T.);
#684 = CIRCLE('',#685,1.5);
#685 = AXIS2_PLACEMENT_3D('',#686,#687,#688);
#686 = CARTESIAN_POINT('',(1.5,8.061733000005,5.007008000009));
#687 = DIRECTION('',(0.,8.730994596524E-02,0.996181195032));
#688 = DIRECTION('',(-1.,-0.,0.));
#689 = ORIENTED_EDGE('',*,*,#675,.F.);
#690 = ORIENTED_EDGE('',*,*,#654,.T.);
#691 = SURFACE_OF_LINEAR_EXTRUSION('',#692,#697);
#692 = CIRCLE('',#693,1.5);
#693 = AXIS2_PLACEMENT_3D('',#694,#695,#696);
#694 = CARTESIAN_POINT('',(1.5,7.976217113416,-2.525982737213));
#695 = DIRECTION('',(0.,8.730994596524E-02,0.996181195032));
#696 = DIRECTION('',(-1.,-0.,0.));
#697 = VECTOR('',#698,1.);
#698 = DIRECTION('',(0.,1.135145120971E-02,0.999935570202));
#699 = ADVANCED_FACE('',(#700),#703,.T.);
#700 = FACE_BOUND('',#701,.T.);
#701 = EDGE_LOOP('',(#702));
#702 = ORIENTED_EDGE('',*,*,#683,.T.);
#703 = PLANE('',#704);
#704 = AXIS2_PLACEMENT_3D('',#705,#706,#707);
#705 = CARTESIAN_POINT('',(1.5,8.061733000005,5.007008000009));
#706 = DIRECTION('',(0.,8.730994596524E-02,0.996181195032));
#707 = DIRECTION('',(0.,-0.996181195032,8.730994596524E-02));
#708 = ( GEOMETRIC_REPRESENTATION_CONTEXT(3) 
GLOBAL_UNCERTAINTY_ASSIGNED_CONTEXT((#712)) GLOBAL_UNIT_ASSIGNED_CONTEXT
((#709,#710,#711)) REPRESENTATION_CONTEXT('Context #1',
  '3D Context with UNIT and UNCERTAINTY') );
#709 = ( LENGTH_UNIT() NAMED_UNIT(*) SI_UNIT(.MILLI.,.METRE.) );
#710 = ( NAMED_UNIT(*) PLANE_ANGLE_UNIT() SI_UNIT($,.RADIAN.) );
#711 = ( NAMED_UNIT(*) SI_UNIT($,.STERADIAN.) SOLID_ANGLE_UNIT() );
#712 = UNCERTAINTY_MEASURE_WITH_UNIT(LENGTH_MEASURE(1.E-07),#709,
  'distance_accuracy_value','confusion accuracy');
#713 = CONTEXT_DEPENDENT_SHAPE_REPRESENTATION(#714,#716);
#714 = ( REPRESENTATION_RELATIONSHIP('','',#593,#283) 
REPRESENTATION_RELATIONSHIP_WITH_TRANSFORMATION(#715) 
SHAPE_REPRESENTATION_RELATIONSHIP() );
#715 = ITEM_DEFINED_TRANSFORMATION('','',#11,#288);
#716 = PRODUCT_DEFINITION_SHAPE('Placement','Placement of an item',#717
  );
#717 = NEXT_ASSEMBLY_USAGE_OCCURRENCE('6','positive-stator-wire','',#278
  ,#588,$);
#718 = PRODUCT_RELATED_PRODUCT_CATEGORY('part',$,(#590));
#719 = SHAPE_DEFINITION_REPRESENTATION(#720,#726);
#720 = PRODUCT_DEFINITION_SHAPE('','',#721);
#721 = PRODUCT_DEFINITION('design','',#722,#725);
#722 = PRODUCT_DEFINITION_FORMATION('','',#723);
#723 = PRODUCT('negative-stator-wire','negative-stator-wire','',(#724));
#724 = PRODUCT_CONTEXT('',#2,'mechanical');
#725 = PRODUCT_DEFINITION_CONTEXT('part definition',#2,'design');
#726 = ADVANCED_BREP_SHAPE_REPRESENTATION('',(#11,#727),#841);
#727 = MANIFOLD_SOLID_BREP('',#728);
#728 = CLOSED_SHELL('',(#729,#746,#774,#804,#832));
#729 = ADVANCED_FACE('',(#730),#741,.F.);
#730 = FACE_BOUND('',#731,.F.);
#731 = EDGE_LOOP('',(#732));
#732 = ORIENTED_EDGE('',*,*,#733,.T.);
#733 = EDGE_CURVE('',#734,#734,#736,.T.);
#734 = VERTEX_POINT('',#735);
#735 = CARTESIAN_POINT('',(0.,36.,-7.397247358852));
#736 = CIRCLE('',#737,1.5);
#737 = AXIS2_PLACEMENT_3D('',#738,#739,#740);
#738 = CARTESIAN_POINT('',(1.5,36.,-7.397247358852));
#739 = DIRECTION('',(0.,1.,-2.22044604925E-16));
#740 = DIRECTION('',(-1.,0.,0.));
#741 = PLANE('',#742);
#742 = AXIS2_PLACEMENT_3D('',#743,#744,#745);
#743 = CARTESIAN_POINT('',(1.5,36.,-7.397247358852));
#744 = DIRECTION('',(0.,1.,-2.22044604925E-16));
#745 = DIRECTION('',(0.,-2.22044604925E-16,-1.));
#746 = ADVANCED_FACE('',(#747),#766,.T.);
#747 = FACE_BOUND('',#748,.T.);
#748 = EDGE_LOOP('',(#749,#757,#764,#765));
#749 = ORIENTED_EDGE('',*,*,#750,.T.);
#750 = EDGE_CURVE('',#734,#751,#753,.T.);
#751 = VERTEX_POINT('',#752);
#752 = CARTESIAN_POINT('',(0.,39.672806419824,-7.117318435323));
#753 = LINE('',#754,#755);
#754 = CARTESIAN_POINT('',(0.,36.,-7.397247358852));
#755 = VECTOR('',#756,1.);
#756 = DIRECTION('',(0.,0.997108105871,7.599621837163E-02));
#757 = ORIENTED_EDGE('',*,*,#758,.F.);
#758 = EDGE_CURVE('',#751,#751,#759,.T.);
#759 = CIRCLE('',#760,1.5);
#760 = AXIS2_PLACEMENT_3D('',#761,#762,#763);
#761 = CARTESIAN_POINT('',(1.5,39.672806419824,-7.117318435323));
#762 = DIRECTION('',(0.,1.,-2.22044604925E-16));
#763 = DIRECTION('',(-1.,0.,0.));
#764 = ORIENTED_EDGE('',*,*,#750,.F.);
#765 = ORIENTED_EDGE('',*,*,#733,.T.);
#766 = SURFACE_OF_LINEAR_EXTRUSION('',#767,#772);
#767 = CIRCLE('',#768,1.5);
#768 = AXIS2_PLACEMENT_3D('',#769,#770,#771);
#769 = CARTESIAN_POINT('',(1.5,36.,-7.397247358852));
#770 = DIRECTION('',(0.,1.,-2.22044604925E-16));
#771 = DIRECTION('',(-1.,0.,0.));
#772 = VECTOR('',#773,1.);
#773 = DIRECTION('',(0.,0.997108105871,7.599621837163E-02));
#774 = ADVANCED_FACE('',(#775),#795,.F.);
#775 = FACE_BOUND('',#776,.F.);
#776 = EDGE_LOOP('',(#777,#786,#793,#794));
#777 = ORIENTED_EDGE('',*,*,#778,.T.);
#778 = EDGE_CURVE('',#751,#779,#781,.T.);
#779 = VERTEX_POINT('',#780);
#780 = CARTESIAN_POINT('',(0.,43.976217113416,-2.525982737213));
#781 = CIRCLE('',#782,4.65767659432);
#782 = AXIS2_PLACEMENT_3D('',#783,#784,#785);
#783 = CARTESIAN_POINT('',(0.,39.318840612258,-2.473111348602));
#784 = DIRECTION('',(1.,0.,-0.));
#785 = DIRECTION('',(0.,1.,3.135330171536E-17));
#786 = ORIENTED_EDGE('',*,*,#787,.T.);
#787 = EDGE_CURVE('',#779,#779,#788,.T.);
#788 = CIRCLE('',#789,1.5);
#789 = AXIS2_PLACEMENT_3D('',#790,#791,#792);
#790 = CARTESIAN_POINT('',(1.5,43.976217113416,-2.525982737213));
#791 = DIRECTION('',(0.,8.730994596524E-02,0.996181195032));
#792 = DIRECTION('',(-1.,0.,0.));
#793 = ORIENTED_EDGE('',*,*,#778,.F.);
#794 = ORIENTED_EDGE('',*,*,#758,.F.);
#795 = SURFACE_OF_REVOLUTION('',#796,#801);
#796 = CIRCLE('',#797,1.5);
#797 = AXIS2_PLACEMENT_3D('',#798,#799,#800);
#798 = CARTESIAN_POINT('',(1.5,43.976517206578,-2.473111348602));
#799 = DIRECTION('',(0.,7.599621837163E-02,0.997108105871));
#800 = DIRECTION('',(-1.,0.,0.));
#801 = AXIS1_PLACEMENT('',#802,#803);
#802 = CARTESIAN_POINT('',(1.5,39.318840612258,-2.473111348602));
#803 = DIRECTION('',(1.,0.,0.));
#804 = ADVANCED_FACE('',(#805),#824,.T.);
#805 = FACE_BOUND('',#806,.T.);
#806 = EDGE_LOOP('',(#807,#815,#822,#823));
#807 = ORIENTED_EDGE('',*,*,#808,.T.);
#808 = EDGE_CURVE('',#779,#809,#811,.T.);
#809 = VERTEX_POINT('',#810);
#810 = CARTESIAN_POINT('',(0.,44.061733000005,5.007008000009));
#811 = LINE('',#812,#813);
#812 = CARTESIAN_POINT('',(0.,43.976217113416,-2.525982737213));
#813 = VECTOR('',#814,1.);
#814 = DIRECTION('',(0.,1.135145120971E-02,0.999935570202));
#815 = ORIENTED_EDGE('',*,*,#816,.F.);
#816 = EDGE_CURVE('',#809,#809,#817,.T.);
#817 = CIRCLE('',#818,1.5);
#818 = AXIS2_PLACEMENT_3D('',#819,#820,#821);
#819 = CARTESIAN_POINT('',(1.5,44.061733000005,5.007008000009));
#820 = DIRECTION('',(0.,8.730994596524E-02,0.996181195032));
#821 = DIRECTION('',(-1.,0.,0.));
#822 = ORIENTED_EDGE('',*,*,#808,.F.);
#823 = ORIENTED_EDGE('',*,*,#787,.T.);
#824 = SURFACE_OF_LINEAR_EXTRUSION('',#825,#830);
#825 = CIRCLE('',#826,1.5);
#826 = AXIS2_PLACEMENT_3D('',#827,#828,#829);
#827 = CARTESIAN_POINT('',(1.5,43.976217113416,-2.525982737213));
#828 = DIRECTION('',(0.,8.730994596524E-02,0.996181195032));
#829 = DIRECTION('',(-1.,0.,0.));
#830 = VECTOR('',#831,1.);
#831 = DIRECTION('',(0.,1.135145120971E-02,0.999935570202));
#832 = ADVANCED_FACE('',(#833),#836,.T.);
#833 = FACE_BOUND('',#834,.T.);
#834 = EDGE_LOOP('',(#835));
#835 = ORIENTED_EDGE('',*,*,#816,.T.);
#836 = PLANE('',#837);
#837 = AXIS2_PLACEMENT_3D('',#838,#839,#840);
#838 = CARTESIAN_POINT('',(1.5,44.061733000005,5.007008000009));
#839 = DIRECTION('',(0.,8.730994596524E-02,0.996181195032));
#840 = DIRECTION('',(0.,-0.996181195032,8.730994596524E-02));
#841 = ( GEOMETRIC_REPRESENTATION_CONTEXT(3) 
GLOBAL_UNCERTAINTY_ASSIGNED_CONTEXT((#845)) GLOBAL_UNIT_ASSIGNED_CONTEXT
((#842,#843,#844)) REPRESENTATION_CONTEXT('Context #1',
  '3D Context with UNIT and UNCERTAINTY') );
#842 = ( LENGTH_UNIT() NAMED_UNIT(*) SI_UNIT(.MILLI.,.METRE.) );
#843 = ( NAMED_UNIT(*) PLANE_ANGLE_UNIT() SI_UNIT($,.RADIAN.) );
#844 = ( NAMED_UNIT(*) SI_UNIT($,.STERADIAN.) SOLID_ANGLE_UNIT() );
#845 = UNCERTAINTY_MEASURE_WITH_UNIT(LENGTH_MEASURE(1.E-07),#842,
  'distance_accuracy_value','confusion accuracy');
#846 = CONTEXT_DEPENDENT_SHAPE_REPRESENTATION(#847,#849);
#847 = ( REPRESENTATION_RELATIONSHIP('','',#726,#283) 
REPRESENTATION_RELATIONSHIP_WITH_TRANSFORMATION(#848) 
SHAPE_REPRESENTATION_RELATIONSHIP() );
#848 = ITEM_DEFINED_TRANSFORMATION('','',#11,#292);
#849 = PRODUCT_DEFINITION_SHAPE('Placement','Placement of an item',#850
  );
#850 = NEXT_ASSEMBLY_USAGE_OCCURRENCE('7','negative-stator-wire','',#278
  ,#721,$);
#851 = PRODUCT_RELATED_PRODUCT_CATEGORY('part',$,(#723));
#852 = MECHANICAL_DESIGN_GEOMETRIC_PRESENTATION_REPRESENTATION('',(#853)
  ,#575);
#853 = STYLED_ITEM('color',(#854),#315);
#854 = PRESENTATION_STYLE_ASSIGNMENT((#855,#861));
#855 = SURFACE_STYLE_USAGE(.BOTH.,#856);
#856 = SURFACE_SIDE_STYLE('',(#857));
#857 = SURFACE_STYLE_FILL_AREA(#858);
#858 = FILL_AREA_STYLE('',(#859));
#859 = FILL_AREA_STYLE_COLOUR('',#860);
#860 = COLOUR_RGB('',0.1599999992,0.1599999992,0.1599999992);
#861 = CURVE_STYLE('',#862,POSITIVE_LENGTH_MEASURE(0.1),#863);
#862 = DRAUGHTING_PRE_DEFINED_CURVE_FONT('continuous');
#863 = COLOUR_RGB('',9.803921802644E-02,9.803921802644E-02,
  9.803921802644E-02);
#864 = MECHANICAL_DESIGN_GEOMETRIC_PRESENTATION_REPRESENTATION('',(#865)
  ,#708);
#865 = STYLED_ITEM('color',(#866),#594);
#866 = PRESENTATION_STYLE_ASSIGNMENT((#867,#873));
#867 = SURFACE_STYLE_USAGE(.BOTH.,#868);
#868 = SURFACE_SIDE_STYLE('',(#869));
#869 = SURFACE_STYLE_FILL_AREA(#870);
#870 = FILL_AREA_STYLE('',(#871));
#871 = FILL_AREA_STYLE_COLOUR('',#872);
#872 = COLOUR_RGB('',0.670000024756,0.,0.);
#873 = CURVE_STYLE('',#874,POSITIVE_LENGTH_MEASURE(0.1),#863);
#874 = DRAUGHTING_PRE_DEFINED_CURVE_FONT('continuous');
#875 = MECHANICAL_DESIGN_GEOMETRIC_PRESENTATION_REPRESENTATION('',(#876)
  ,#121);
#876 = STYLED_ITEM('color',(#877),#68);
#877 = PRESENTATION_STYLE_ASSIGNMENT((#878,#883));
#878 = SURFACE_STYLE_USAGE(.BOTH.,#879);
#879 = SURFACE_SIDE_STYLE('',(#880));
#880 = SURFACE_STYLE_FILL_AREA(#881);
#881 = FILL_AREA_STYLE('',(#882));
#882 = FILL_AREA_STYLE_COLOUR('',#872);
#883 = CURVE_STYLE('',#884,POSITIVE_LENGTH_MEASURE(0.1),#863);
#884 = DRAUGHTING_PRE_DEFINED_CURVE_FONT('continuous');
#885 = MECHANICAL_DESIGN_GEOMETRIC_PRESENTATION_REPRESENTATION('',(#886)
  ,#841);
#886 = STYLED_ITEM('color',(#887),#727);
#887 = PRESENTATION_STYLE_ASSIGNMENT((#888,#894));
#888 = SURFACE_STYLE_USAGE(.BOTH.,#889);
#889 = SURFACE_SIDE_STYLE('',(#890));
#890 = SURFACE_STYLE_FILL_AREA(#891);
#891 = FILL_AREA_STYLE('',(#892));
#892 = FILL_AREA_STYLE_COLOUR('',#893);
#893 = DRAUGHTING_PRE_DEFINED_COLOUR('black');
#894 = CURVE_STYLE('',#895,POSITIVE_LENGTH_MEASURE(0.1),#863);
#895 = DRAUGHTING_PRE_DEFINED_CURVE_FONT('continuous');
#896 = MECHANICAL_DESIGN_GEOMETRIC_PRESENTATION_REPRESENTATION('',(#897)
  ,#193);
#897 = STYLED_ITEM('color',(#898),#140);
#898 = PRESENTATION_STYLE_ASSIGNMENT((#899,#904));
#899 = SURFACE_STYLE_USAGE(.BOTH.,#900);
#900 = SURFACE_SIDE_STYLE('',(#901));
#901 = SURFACE_STYLE_FILL_AREA(#902);
#902 = FILL_AREA_STYLE('',(#903));
#903 = FILL_AREA_STYLE_COLOUR('',#893);
#904 = CURVE_STYLE('',#905,POSITIVE_LENGTH_MEASURE(0.1),#863);
#905 = DRAUGHTING_PRE_DEFINED_CURVE_FONT('continuous');
#906 = MECHANICAL_DESIGN_GEOMETRIC_PRESENTATION_REPRESENTATION('',(#907)
  ,#265);
#907 = STYLED_ITEM('color',(#908),#212);
#908 = PRESENTATION_STYLE_ASSIGNMENT((#909,#915));
#909 = SURFACE_STYLE_USAGE(.BOTH.,#910);
#910 = SURFACE_SIDE_STYLE('',(#911));
#911 = SURFACE_STYLE_FILL_AREA(#912);
#912 = FILL_AREA_STYLE('',(#913));
#913 = FILL_AREA_STYLE_COLOUR('',#914);
#914 = COLOUR_RGB('',0.447059003357,0.474510015008,0.501960993452);
#915 = CURVE_STYLE('',#916,POSITIVE_LENGTH_MEASURE(0.1),#863);
#916 = DRAUGHTING_PRE_DEFINED_CURVE_FONT('continuous');
ENDSEC;
END-ISO-10303-21;
