<?xml version="1.0" encoding="UTF-8" standalone="no"?>
<!-- Created with Inkscape (http://www.inkscape.org/) -->

<svg
   width="1280"
   height="720"
   viewBox="0 0 338.66667 190.5"
   version="1.1"
   id="svg1"
   inkscape:version="1.4 (e7c3feb100, 2024-10-09)"
   sodipodi:docname="reterminal desktop.svg"
   inkscape:export-filename="reterminal desktop.png"
   inkscape:export-xdpi="96"
   inkscape:export-ydpi="96"
   xmlns:inkscape="http://www.inkscape.org/namespaces/inkscape"
   xmlns:sodipodi="http://sodipodi.sourceforge.net/DTD/sodipodi-0.dtd"
   xmlns="http://www.w3.org/2000/svg"
   xmlns:svg="http://www.w3.org/2000/svg">
  <sodipodi:namedview
     id="namedview1"
     pagecolor="#505050"
     bordercolor="#eeeeee"
     borderopacity="1"
     inkscape:showpageshadow="0"
     inkscape:pageopacity="0"
     inkscape:pagecheckerboard="0"
     inkscape:deskcolor="#505050"
     inkscape:document-units="mm"
     inkscape:zoom="0.51209239"
     inkscape:cx="-10.740249"
     inkscape:cy="-56.630406"
     inkscape:window-width="2560"
     inkscape:window-height="1011"
     inkscape:window-x="0"
     inkscape:window-y="1112"
     inkscape:window-maximized="1"
     inkscape:current-layer="layer2" />
  <defs
     id="defs1" />
  <g
     inkscape:label="Layer 1"
     inkscape:groupmode="layer"
     id="layer1">
    <rect
       style="fill:#000000;stroke:#000000;stroke-width:1.052;stroke-linecap:square;stroke-miterlimit:0;stroke-dashoffset:4.9134"
       id="rect1"
       width="338.53589"
       height="190.77104"
       x="-0.36757427"
       y="-0.36757427" />
  </g>
  <g
     inkscape:groupmode="layer"
     id="layer2"
     inkscape:label="Layer 2">
    <text
       xml:space="preserve"
       style="font-size:28.2222px;line-height:25.8664px;font-family:Sans;-inkscape-font-specification:'Sans, Normal';text-align:start;letter-spacing:0px;word-spacing:0.529167px;writing-mode:lr-tb;direction:ltr;text-anchor:start;fill:#ffffff;stroke:#ffffff;stroke-width:0.352;stroke-linecap:square;stroke-miterlimit:0;stroke-dasharray:none;stroke-dashoffset:4.9134;stroke-opacity:1"
       x="8.0869961"
       y="34.699081"
       id="text1"><tspan
         sodipodi:role="line"
         id="tspan1"
         style="font-style:normal;font-variant:normal;font-weight:normal;font-stretch:normal;font-size:28.2222px;line-height:25.8664px;font-family:Ubuntu;-inkscape-font-specification:Ubuntu;stroke:#ffffff;stroke-width:0.352;stroke-dasharray:none;stroke-opacity:1"
         x="8.0869961"
         y="34.699081">Hi I am currently working</tspan><tspan
         sodipodi:role="line"
         style="font-style:normal;font-variant:normal;font-weight:normal;font-stretch:normal;font-size:28.2222px;line-height:25.8664px;font-family:Ubuntu;-inkscape-font-specification:Ubuntu;stroke:#ffffff;stroke-width:0.352;stroke-dasharray:none;stroke-opacity:1"
         x="8.0869961"
         y="61.91243"
         id="tspan2">Yell at Keith</tspan></text>
    <path
       style="fill:#ff0000;fill-opacity:1;stroke:#ff0000;stroke-width:0.351999;stroke-linecap:square;stroke-miterlimit:0;stroke-dasharray:none;stroke-dashoffset:4.9134;stroke-opacity:1"
       d="m 102.91839,104.37822 c -1.65289,0.24249 -3.473499,-0.32718 -5.109426,0 -1.839812,0.36796 -3.28463,0.54404 -3.28463,2.55471 0,0.62982 -0.06748,0.89027 0.729917,1.45984 2.293255,1.63804 8.036229,2.05858 9.853889,-0.36496 0.41936,-0.55915 0.36496,-0.58292 0.36496,-1.09488 0,-2.34126 0.44726,-1.35392 -2.55471,-2.55471 -1.20214,-0.48085 -3.649593,-2.15536 -3.649593,0"
       id="path2" />
    <path
       style="fill:#ff0000;fill-opacity:1;stroke:#ff0000;stroke-width:0.351999;stroke-linecap:square;stroke-miterlimit:0;stroke-dasharray:none;stroke-dashoffset:4.9134;stroke-opacity:1"
       d="m 186.03136,104.37392 c -0.35236,-0.0306 -0.7719,-0.16666 -1.1172,-0.0339 -0.10374,0.0399 -0.20003,0.098 -0.30469,0.13542 -0.70844,0.25302 1.15592,-0.72938 -0.81252,0.40626 -0.46181,0.26643 -0.94148,0.56908 -1.32033,0.94793 -0.2517,0.2517 -0.0938,0.12902 -0.27084,0.3724 -0.17404,0.23931 -0.29746,0.33525 -0.16927,0.67709 0.0737,0.19639 0.56898,0.3181 0.67709,0.33855 1.10589,0.20922 2.85697,0.17908 3.92715,-0.20313 0.4228,-0.151 0.44726,-0.31899 0.64323,-0.71095 0.0632,-0.12647 0.15188,-0.24061 0.20313,-0.3724 0.10234,-0.26315 0.0339,-0.56401 0.0339,-0.84636 0,-0.35873 0.0581,-0.26839 -0.10157,-0.50782 -0.133,-0.1995 -0.70606,-0.15898 -0.91407,-0.23699 -0.0616,-0.0231 -0.11042,-0.0721 -0.16928,-0.10156"
       id="path3" />
    <path
       style="fill:#ff0000;fill-opacity:1;stroke:#ff0000;stroke-width:0.351999;stroke-linecap:square;stroke-miterlimit:0;stroke-dasharray:none;stroke-dashoffset:4.9134;stroke-opacity:1"
       d="m 73.864556,139.91651 c 3.669554,0.11838 7.337584,0.30192 11.008659,0.35512 28.003645,0.40585 1.861405,-0.0505 21.662205,-0.35512 13.46811,-0.2072 27.01995,0.50806 40.48346,0 4.50118,-0.16985 8.99277,-0.555 13.49448,-0.71023 7.16339,-0.24701 14.50492,-0.39763 21.66221,0 1.54101,0.0856 3.0737,0.31342 4.61653,0.35512 29.3008,0.79191 -4.01812,-0.63326 12.78425,0.35511 2.69151,0.15833 5.47237,0 8.16772,0 0.59186,0 1.19177,0.0973 1.77558,0 0.16513,-0.0275 0.23675,-0.47349 0.35512,-0.35511 0.87541,0.8754 -1.93471,7.4206 -2.1307,7.81259 -3.08784,6.17568 -8.31596,11.2471 -14.55985,14.20473 -0.77881,0.36891 -1.65721,0.47349 -2.48582,0.71023 -1.65722,0.47349 -3.28638,1.05934 -4.97166,1.42047 -4.44183,0.95183 -9.31505,1.26933 -13.8496,1.42048 -2.24783,0.0749 -4.50254,-0.1403 -6.74724,0 -1.55392,0.0971 -3.06814,0.54724 -4.61654,0.71024 -3.07384,0.32356 -7.14606,0.22516 -10.29842,0 -3.19246,-0.22804 -6.41206,-1.08018 -9.58819,-1.42048 -17.03538,-1.82522 7.52937,1.48617 -11.36378,-1.42047 -2.12984,-0.32767 -3.33565,-0.25075 -5.32677,-0.71024 -2.77421,-0.6402 -5.4283,-1.73871 -8.16771,-2.48582 -0.58232,-0.15882 -1.22403,-0.10998 -1.77559,-0.35512 -1.59712,-0.70983 -3.0409,-1.72952 -4.61654,-2.48583 -1.3873,-0.6659 -2.91876,-1.0237 -4.26141,-1.77559 -1.63302,-0.91448 -2.9915,-2.26747 -4.61654,-3.19606 -0.878119,-0.50178 -1.911341,-0.66695 -2.840944,-1.06535 -1.562534,-0.66966 -3.055654,-1.46176 -4.616534,-2.13071 -3.231251,-1.38483 -6.702478,-2.13332 -9.943306,-3.55118 -0.632355,-0.27666 -1.287526,-0.5773 -1.77559,-1.06536 -0.187164,-0.18716 -0.167955,-0.52307 -0.355118,-0.71023 -0.0085,-0.009 -3.179972,-1.41511 -3.196064,-1.42048 -0.224594,-0.0749 -0.498483,0.10588 -0.710234,0 -0.105876,-0.0529 0.0837,-0.27141 0,-0.35511 -0.0837,-0.0837 -0.251643,0.0575 -0.355119,0 -0.976193,-0.54233 -1.893964,-1.18373 -2.840945,-1.7756 z"
       id="path4" />
    <path
       style="fill:#ff0000;fill-opacity:1;stroke:#ff0000;stroke-width:0.351999;stroke-linecap:square;stroke-miterlimit:0;stroke-dasharray:none;stroke-dashoffset:4.9134;stroke-opacity:1"
       d="m 186.57297,103.50143 c -1.62033,-0.17056 -0.29472,-0.0646 -1.75257,-0.10015 -0.41748,-0.0102 -0.83664,-0.095 -1.25183,-0.0501 -0.21573,0.0233 -0.40334,0.16058 -0.60088,0.25036 -0.87982,0.39992 -1.80264,0.66918 -1.80264,1.75257 0,0.15022 -0.0315,0.30377 0,0.45066 0.036,0.16803 0.17352,0.29695 0.25037,0.45066 0.13353,0.26706 0.26248,0.53645 0.40059,0.80117 0.0943,0.18082 0.43041,0.95565 0.65095,1.15168 0.75779,0.6736 2.69993,0.93963 3.70542,0.7511 0.30647,-0.0575 0.60446,-0.15494 0.90132,-0.25036 0.57999,-0.18643 1.93797,-0.87898 2.2533,-1.35198 0.38761,-0.58142 0.45148,-0.90634 0.20029,-1.55227 -0.0659,-0.1695 -0.2295,-0.611 -0.35051,-0.80117 -0.28141,-0.44222 -0.78673,-0.76102 -1.20176,-1.05154 -0.0876,-0.0613 -0.15872,-0.14531 -0.25037,-0.2003 -0.13965,-0.0838 -0.58084,-0.25036 -0.7511,-0.25036 -0.13353,0 -0.27556,0.0469 -0.40058,0 -0.15629,-0.0586 -0.25406,-0.22051 -0.40059,-0.30044 -0.044,-0.024 -0.10015,0 -0.15022,0 -0.36777,0 -0.56508,-0.0358 -0.80117,0.20029"
       id="path5" />
    <path
       style="fill:#ff0000;fill-opacity:1;stroke:#ff0000;stroke-width:0.351999;stroke-linecap:square;stroke-miterlimit:0;stroke-dasharray:none;stroke-dashoffset:4.9134;stroke-opacity:1"
       d="m 81.11736,88.867426 c 4.320407,-1.359646 8.169571,-4.145005 12.400107,-5.683382 1.334688,-0.485341 2.786055,-0.584237 4.133369,-1.033341"
       id="path6" />
    <path
       style="fill:#ff0000;fill-opacity:1;stroke:#ff0000;stroke-width:0.351999;stroke-linecap:square;stroke-miterlimit:0;stroke-dasharray:none;stroke-dashoffset:4.9134;stroke-opacity:1"
       d="m 198.4017,85.767401 c 3.059,5.981639 7.12524,11.462872 10.85009,17.050149"
       id="path7" />
    <path
       style="fill:#ff0000;fill-opacity:1;stroke:#ff0000;stroke-width:0.351999;stroke-linecap:square;stroke-miterlimit:0;stroke-dasharray:none;stroke-dashoffset:4.9134;stroke-opacity:1"
       d="m 144.15123,119.35102 c -3.81085,1.77679 -7.14368,4.05861 -10.33342,6.71672 -0.26312,0.21927 -1.7522,1.8645 -1.55001,2.06669 0.85246,0.85246 2.41529,-0.10012 3.61669,0 1.04398,0.087 2.05884,0.40098 3.10003,0.51667 1.41828,0.15759 3.89682,-0.63495 5.16671,0 0.96406,0.48203 1.34334,0.51667 2.58336,0.51667"
       id="path8" />
  </g>
</svg>
