<?xml version="1.0" encoding="UTF-8" standalone="no"?>
<svg
   width="11in"
   height="8.5in"
   viewBox="0 0 279.4 215.9"
   version="1.1"
   id="svg"
   sodipodi:docname="freecad-templateUSLETTERCustom3.svg"
   inkscape:version="1.4 (e7c3feb100, 2024-10-09)"
   xml:space="preserve"
   xmlns:inkscape="http://www.inkscape.org/namespaces/inkscape"
   xmlns:sodipodi="http://sodipodi.sourceforge.net/DTD/sodipodi-0.dtd"
   xmlns="http://www.w3.org/2000/svg"
   xmlns:svg="http://www.w3.org/2000/svg"
   xmlns:rdf="http://www.w3.org/1999/02/22-rdf-syntax-ns#"
   xmlns:cc="http://creativecommons.org/ns#"
   xmlns:dc="http://purl.org/dc/elements/1.1/"
   xmlns:freecad="https://www.freecad.org/wiki/index.php?title=Svg_Namespace"><defs
     id="defs20" /><sodipodi:namedview
     id="namedview20"
     pagecolor="#505050"
     bordercolor="#eeeeee"
     borderopacity="1"
     inkscape:showpageshadow="0"
     inkscape:pageopacity="0"
     inkscape:pagecheckerboard="0"
     inkscape:deskcolor="#505050"
     inkscape:document-units="mm"
     inkscape:zoom="21.282961"
     inkscape:cx="6.8834406"
     inkscape:cy="7.2358352"
     inkscape:window-width="2560"
     inkscape:window-height="1011"
     inkscape:window-x="0"
     inkscape:window-y="1112"
     inkscape:window-maximized="1"
     inkscape:current-layer="svg" /><title
     id="title">Drawing sheet ISO 5457 - A4T - Advanced</title><metadata
     id="metadata"><rdf:RDF><cc:Work
         rdf:about=""><cc:license
           rdf:resource="http://creativecommons.org/publicdomain/zero/1.0/" /><dc:title>Drawing sheet ISO 5457 - A4T - Advanced</dc:title><dc:creator><cc:Agent><dc:title>Benjamin May</dc:title></cc:Agent></dc:creator></cc:Work><cc:License
         rdf:about="http://creativecommons.org/publicdomain/zero/1.0/"><cc:permits
           rdf:resource="http://creativecommons.org/ns#Reproduction" /><cc:permits
           rdf:resource="http://creativecommons.org/ns#Distribution" /><cc:permits
           rdf:resource="http://creativecommons.org/ns#DerivativeWorks" /></cc:License></rdf:RDF></metadata><rect
     id="drawing_space_frame"
     x="8.3799353"
     y="9.6860056"
     width="261.51523"
     height="196.57011"
     style="fill:none;stroke:#000000;stroke-width:0.704649;stroke-linecap:round;stroke-linejoin:round" /><g
     id="centring_marks"
     style="fill:none;stroke:#000000;stroke-width:0.7;stroke-linecap:round"
     transform="matrix(0.97945805,0,0,1.0345795,-11.209223,-0.65978955)"><path
       id="top_centering"
       d="M 148.5,5 V 15" /><path
       id="right_centering"
       d="M 292,105 H 282" /><path
       id="bottom_centering"
       d="m 148.5,205 v -6" /><path
       id="left_centering"
       d="M 15,105 H 25" /></g><g
     id="grid_reference_system"
     transform="matrix(0.97945805,0,0,1.0345795,-11.209223,-0.65978955)"><g
       id="grid_reference_borders"
       style="fill:none;stroke:#000000;stroke-width:0.35;stroke-linecap:round;stroke-linejoin:round"><rect
         id="grid_reference_border"
         x="15"
         y="5"
         width="277"
         height="200"
         style="stroke-width:1.04606;stroke-dasharray:none" /><path
         id="upper_border_1"
         d="m 48.5,5 v 5" /><path
         id="upper_border_2"
         d="m 98.5,5 v 5" /><path
         id="upper_border_4"
         d="m 198.5,5 v 5" /><path
         id="upper_border_5"
         d="m 248.5,5 v 5" /><path
         id="right_border_1"
         d="m 292,55 h -5" /><path
         id="right_border_3"
         d="m 292,155 h -5" /><path
         id="lower_border_1"
         d="m 48.5,205 v -5" /><path
         id="lower_border_2"
         d="m 98.5,205 v -5" /><path
         id="lower_border_4"
         d="m 198.5,205 v -5" /><path
         id="lower_border_5"
         d="m 248.5,205 v -5" /><path
         id="left_border_1"
         d="m 15,55 h 5" /><path
         id="left_border_3"
         d="m 15,155 h 5" /></g><g
       id="grid_reference_markers"
       style="font-size:3.5px;font-family:osifont;text-align:center;text-anchor:middle;fill:#000000;stroke:none"><text
         id="upper_marker_1"
         x="23.5"
         y="8.8000002">1</text><text
         id="upper_marker_2"
         x="73.5"
         y="8.8000002">2</text><text
         id="upper_marker_3"
         x="123.5"
         y="8.8000002">3</text><text
         id="upper_marker_4"
         x="173.5"
         y="8.8000002">4</text><text
         id="upper_marker_5"
         x="223.5"
         y="8.8000002">5</text><text
         id="upper_marker_6"
         x="273.5"
         y="8.8000002">6</text><text
         id="right_marker_1"
         x="289.5"
         y="31.299999">A</text><text
         id="right_marker_2"
         x="289.5"
         y="81.300003">B</text><text
         id="right_marker_3"
         x="289.5"
         y="131.3">C</text><text
         id="right_marker_4"
         x="289.5"
         y="181.3">D</text><text
         id="lower_marker_6"
         x="273.5"
         y="203.8">US LETTER</text></g></g><g
     id="trimming_marks"
     style="fill:#000000;stroke:none"
     transform="matrix(0.94503307,0,0,1.0342709,-0.82745188,-0.64735786)"><path
       id="top_left_trimming"
       d="M 0,0 H 10 V 5 H 5 v 5 H 0 Z" /><path
       id="top_right_trimming"
       d="m 297,0 h -10 v 5 h 5 v 5 h 5 z" /><path
       id="bottom_right_trimming"
       d="m 297,210 h -10 v -5 h 5 v -5 h 5 z" /><path
       id="bottom_left_trimming"
       d="m 0,210 h 10 v -5 H 5 v -5 H 0 Z" /></g><!-- Title block --><g
     id="title_block_borders"
     style="fill:none;stroke:#000000;stroke-width:0.35;stroke-linecap:round;stroke-linejoin:round"
     transform="matrix(0.97945805,0,0,1.0345795,-11.209223,-0.65978955)"><rect
       id="title_block_frame"
       x="107"
       y="152"
       width="180"
       height="48"
       style="stroke-width:0.7" /><rect
       id="identification_number_border"
       x="187"
       y="176"
       width="60"
       height="12" /><rect
       id="revision_index_border"
       x="247"
       y="188"
       width="20"
       height="12" /><rect
       id="date_of_issue_border"
       x="207"
       y="188"
       width="40"
       height="12" /><rect
       id="sheet_number_border"
       x="267"
       y="188"
       width="20"
       height="12" /><rect
       id="language_code_border"
       x="187"
       y="188"
       width="20"
       height="12" /><rect
       id="title_border"
       x="107"
       y="152"
       width="80"
       height="24" /><rect
       id="approval_person_border"
       x="187"
       y="164"
       width="60"
       height="12" /><rect
       id="creator_border"
       x="187"
       y="152"
       width="60"
       height="12" /><rect
       id="document_type_border"
       x="107"
       y="176"
       width="80"
       height="12" /><rect
       id="document_status_border"
       x="107"
       y="188"
       width="80"
       height="12" /></g><g
     id="title_block_labels"
     style="font-size:3.5px;font-family:osifont;text-anchor:start;fill:#000000;stroke:none"
     transform="matrix(0.97945805,0,0,1.0345795,-11.209223,-0.65978955)"><text
       id="identification_number_label"
       x="187.5"
       y="179.60001">Drawing number:</text><text
       id="revision_index_label"
       x="247.5"
       y="191.60001">Revision:</text><text
       id="date_of_issue_label"
       x="207.5"
       y="191.60001">Issue date:</text><text
       id="sheet_number_label"
       x="267.5"
       y="191.60001">Sheet:</text><text
       id="language_code_label"
       x="187.5"
       y="191.60001">Language:</text><text
       id="title_label"
       x="108.16318"
       y="155.60001">Project</text><text
       id="creator_label"
       x="187.5"
       y="155.60001">Created by:</text><text
       id="document_type label"
       x="107.5"
       y="179.60001">Document type:</text><text
       id="document_status_label"
       x="107.5"
       y="191.60001">Document status:</text><text
       id="sheet_scale_label"
       x="188.77475"
       y="167.25099">Scale:</text><text
       xml:space="preserve"
       style="font-size:4.17921px;line-height:2.78615px;font-family:Sans;-inkscape-font-specification:'Sans, Normal';text-align:start;letter-spacing:0px;word-spacing:0.522401px;writing-mode:lr-tb;direction:ltr;text-anchor:start;fill:#b3b3b3;stroke:#000000;stroke-width:0.0987215;stroke-linecap:square;stroke-miterlimit:0;stroke-dashoffset:4.9134"
       x="106.71719"
       y="167.86578"
       id="text22"
       transform="scale(1.0316496,0.9693214)"><tspan
         sodipodi:role="line"
         id="tspan22"
         style="stroke-width:0.0987215"
         x="106.71719"
         y="167.86578" /></text></g><g
     id="title_block_data_fields"
     style="font-size:5px;font-family:osifont;text-anchor:start;fill:#000000;stroke:none"
     transform="matrix(0.97945805,0,0,1.0345795,-11.209223,-0.65978955)"><text
       id="identification_number_data_field"
       x="188"
       y="185.2"
       freecad:editable="drawing_number"><tspan
         id="tspan5">DN</tspan></text><text
       id="revision_index_data_field"
       x="257"
       y="197.2"
       freecad:editable="revision_index"
       style="text-align:center;text-anchor:middle"><tspan
         id="tspan6">AAA</tspan></text><text
       id="date_of_issue_data_field"
       x="208"
       y="197.2"
       freecad:editable="date_of_issue"
       freecad:autofill="date"><tspan
         id="tspan7">YYYY-MM-DD</tspan></text><text
       id="sheet_number_data_field"
       x="277"
       y="197.2"
       freecad:editable="sheet_number"
       freecad:autofill="sheet"
       style="text-align:center;text-anchor:middle"><tspan
         id="tspan8">X / Y</tspan></text><text
       id="language_data_field"
       x="197"
       y="197.2"
       freecad:editable="language_code"
       style="text-align:center;text-anchor:middle"><tspan
         id="tspan9">EN</tspan></text><text
       id="title_data_field"
       x="108"
       y="161.2"
       freecad:editable="title"
       freecad:autofill="title"><tspan
         id="tspan10">ISO 7200 titleblock</tspan></text><text
       id="supplementary_title_1_data_field"
       x="107.8342"
       y="167.8231"
       freecad:editable="supplementary_title_1"><tspan
         sodipodi:role="line"
         id="tspan20"
         x="107.8342"
         y="167.8231"><tspan
           id="tspan11">Part</tspan></tspan><tspan
         sodipodi:role="line"
         id="tspan21"
         x="107.8342"
         y="174.0731" /></text><text
       id="creator_data_field"
       x="188"
       y="161.2"
       freecad:editable="creator"
       freecad:autofill="author"><tspan
         id="tspan15">A. Nemesis</tspan></text><text
       id="document_type_data_field"
       x="108"
       y="185.2"
       freecad:editable="document_type"><tspan
         id="tspan16">Assembly Drawing</tspan></text><text
       id="document_status_data_field"
       x="108"
       y="197.2"
       freecad:editable="document_status"><tspan
         id="tspan17">In preparation</tspan></text><text
       id="sheet_scale_data_field"
       x="198.27475"
       y="172.85098"
       freecad:editable="sheet_scale"
       freecad:autofill="scale"
       style="text-align:center;text-anchor:middle"><tspan
         id="tspan18">1 : 1</tspan></text></g><g
     style="fill:none"
     id="g20"
     transform="matrix(0.07595606,0,0,0.07336655,235.39008,157.81796)"><path
       d="m 400,80 -80,80 H 160 v 60 h 80 v 80 h -80 v 100 l -80,80 h 81.0076 c 6.0652,0 11.4378,-3.9054 13.3118,-9.6738 l 14.4798,-44.5656 c 1.384,-4.2618 4.7298,-7.5966 8.9916,-8.9814 l 11.1312,-3.6172 c 4.262,-1.386 8.9314,-0.65 12.5572,1.984 l 37.8994,27.5434 c 4.9066,3.5646 11.5574,3.5646 16.464,0 l 33.972,-24.691 c 4.9072,-3.5648 6.9592,-9.8788 5.085,-15.6474 l -14.4798,-44.5658 c -1.386,-4.262 -0.64,-8.9314 1.994,-12.5572 l 6.8834,-9.4672 c 2.6338,-3.6254 6.8358,-5.777 11.317,-5.7774 l 46.86,0.0102 c 6.0656,2e-4 11.4378,-3.9154 13.3118,-9.684 l 12.9812,-39.9354 c 1.874,-5.7684 -0.18,-12.093 -5.085,-15.658 L 350.7724,237.173 c -3.6256,-2.6342 -5.767,-6.8356 -5.767,-11.3172 V 214.146 c 4e-4,-4.4814 2.1412,-8.6936 5.767,-11.3274 l 43.4598,-31.5742 C 397.8584,168.6106 400,164.3988 400,159.9174 Z"
       style="fill:#b3b3b3;fill-opacity:1;fill-rule:evenodd;stroke:none;stroke-width:0;stroke-linecap:square;stroke-dasharray:none"
       id="path8-4" /><path
       id="path7-7"
       style="display:inline;fill:#999999;fill-opacity:1;fill-rule:evenodd;stroke:none;stroke-width:0;stroke-linecap:square;stroke-dasharray:none"
       d="m 320,0 -80,80 h 80 v 80 L 400,80 V 0 Z M 80,320 0,400 v 80 h 80 l 80,-80 H 80 Z" /><path
       d="M 80,0 0,80 V 400 L 80,320 V 80 H 240 L 320,0 Z"
       style="fill:#1a1a1a;fill-rule:evenodd;stroke:none;stroke-width:0;stroke-linecap:square;stroke-dasharray:none"
       id="path3-1" /><path
       d="m 80,400 h 80 V 300 h 80 V 220 H 160 V 160 H 320 V 80 H 80 Z"
       style="fill:#ffffff;fill-opacity:1;fill-rule:evenodd;stroke:none;stroke-width:0;stroke-linecap:square;stroke-dasharray:none"
       id="path9-4" /></g></svg>
