ISO-10303-21;
HEADER;
FILE_DESCRIPTION(('FreeCAD Model'),'2;1');
FILE_NAME('Open CASCADE Shape Model','2025-03-18T15:30:52',(''),(''),
  'Open CASCADE STEP processor 7.8','FreeCAD','Unknown');
FILE_SCHEMA(('AUTOMOTIVE_DESIGN { 1 0 10303 214 1 1 1 1 }'));
ENDSEC;
DATA;
#1 = APPLICATION_PROTOCOL_DEFINITION('international standard',
  'automotive_design',2000,#2);
#2 = APPLICATION_CONTEXT(
  'core data for automotive mechanical design processes');
#3 = SHAPE_DEFINITION_REPRESENTATION(#4,#10);
#4 = PRODUCT_DEFINITION_SHAPE('','',#5);
#5 = PRODUCT_DEFINITION('design','',#6,#9);
#6 = PRODUCT_DEFINITION_FORMATION('','',#7);
#7 = PRODUCT('Pad052','Pad052','',(#8));
#8 = PRODUCT_CONTEXT('',#2,'mechanical');
#9 = PRODUCT_DEFINITION_CONTEXT('part definition',#2,'design');
#10 = ADVANCED_BREP_SHAPE_REPRESENTATION('',(#11,#15),#1029);
#11 = AXIS2_PLACEMENT_3D('',#12,#13,#14);
#12 = CARTESIAN_POINT('',(0.,0.,0.));
#13 = DIRECTION('',(0.,0.,1.));
#14 = DIRECTION('',(1.,0.,-0.));
#15 = MANIFOLD_SOLID_BREP('',#16);
#16 = CLOSED_SHELL('',(#17,#84,#104,#331,#355,#380,#397,#422,#458,#482,
    #531,#555,#597,#614,#631,#662,#687,#712,#729,#760,#795,#820,#837,
    #868,#893,#918,#935,#955,#1000,#1012));
#17 = ADVANCED_FACE('',(#18),#79,.T.);
#18 = FACE_BOUND('',#19,.F.);
#19 = EDGE_LOOP('',(#20,#29,#37,#46,#54,#63,#71,#78));
#20 = ORIENTED_EDGE('',*,*,#21,.F.);
#21 = EDGE_CURVE('',#22,#22,#24,.T.);
#22 = VERTEX_POINT('',#23);
#23 = CARTESIAN_POINT('',(93.,-6.05198907572E-29,0.));
#24 = CIRCLE('',#25,93.);
#25 = AXIS2_PLACEMENT_3D('',#26,#27,#28);
#26 = CARTESIAN_POINT('',(5.105662393803E-31,-6.05198907572E-29,0.));
#27 = DIRECTION('',(0.,0.,1.));
#28 = DIRECTION('',(1.,0.,0.));
#29 = ORIENTED_EDGE('',*,*,#30,.T.);
#30 = EDGE_CURVE('',#22,#31,#33,.T.);
#31 = VERTEX_POINT('',#32);
#32 = CARTESIAN_POINT('',(93.,-6.05198907572E-29,10.));
#33 = LINE('',#34,#35);
#34 = CARTESIAN_POINT('',(93.,-6.05198907572E-29,0.));
#35 = VECTOR('',#36,1.);
#36 = DIRECTION('',(0.,0.,1.));
#37 = ORIENTED_EDGE('',*,*,#38,.T.);
#38 = EDGE_CURVE('',#31,#39,#41,.T.);
#39 = VERTEX_POINT('',#40);
#40 = CARTESIAN_POINT('',(-9.81936132188,-92.48016080884,10.));
#41 = CIRCLE('',#42,93.);
#42 = AXIS2_PLACEMENT_3D('',#43,#44,#45);
#43 = CARTESIAN_POINT('',(5.105662393803E-31,-6.05198907572E-29,10.));
#44 = DIRECTION('',(0.,0.,1.));
#45 = DIRECTION('',(1.,0.,0.));
#46 = ORIENTED_EDGE('',*,*,#47,.T.);
#47 = EDGE_CURVE('',#39,#48,#50,.T.);
#48 = VERTEX_POINT('',#49);
#49 = CARTESIAN_POINT('',(-9.819361321881,-92.48016080884,3.));
#50 = LINE('',#51,#52);
#51 = CARTESIAN_POINT('',(-9.819361321881,-92.48016080884,0.));
#52 = VECTOR('',#53,1.);
#53 = DIRECTION('',(-0.,-0.,-1.));
#54 = ORIENTED_EDGE('',*,*,#55,.F.);
#55 = EDGE_CURVE('',#56,#48,#58,.T.);
#56 = VERTEX_POINT('',#57);
#57 = CARTESIAN_POINT('',(9.819361321881,-92.48016080884,3.));
#58 = CIRCLE('',#59,93.);
#59 = AXIS2_PLACEMENT_3D('',#60,#61,#62);
#60 = CARTESIAN_POINT('',(5.105662393803E-31,-6.05198907572E-29,3.));
#61 = DIRECTION('',(0.,0.,-1.));
#62 = DIRECTION('',(1.,0.,0.));
#63 = ORIENTED_EDGE('',*,*,#64,.F.);
#64 = EDGE_CURVE('',#65,#56,#67,.T.);
#65 = VERTEX_POINT('',#66);
#66 = CARTESIAN_POINT('',(9.819361321879,-92.48016080884,10.));
#67 = LINE('',#68,#69);
#68 = CARTESIAN_POINT('',(9.819361321881,-92.48016080884,0.));
#69 = VECTOR('',#70,1.);
#70 = DIRECTION('',(-0.,-0.,-1.));
#71 = ORIENTED_EDGE('',*,*,#72,.T.);
#72 = EDGE_CURVE('',#65,#31,#73,.T.);
#73 = CIRCLE('',#74,93.);
#74 = AXIS2_PLACEMENT_3D('',#75,#76,#77);
#75 = CARTESIAN_POINT('',(5.105662393803E-31,-6.05198907572E-29,10.));
#76 = DIRECTION('',(0.,0.,1.));
#77 = DIRECTION('',(1.,0.,0.));
#78 = ORIENTED_EDGE('',*,*,#30,.F.);
#79 = CYLINDRICAL_SURFACE('',#80,93.);
#80 = AXIS2_PLACEMENT_3D('',#81,#82,#83);
#81 = CARTESIAN_POINT('',(5.105662393803E-31,-6.05198907572E-29,0.));
#82 = DIRECTION('',(-0.,-0.,-1.));
#83 = DIRECTION('',(1.,0.,0.));
#84 = ADVANCED_FACE('',(#85,#88),#99,.T.);
#85 = FACE_BOUND('',#86,.T.);
#86 = EDGE_LOOP('',(#87));
#87 = ORIENTED_EDGE('',*,*,#21,.F.);
#88 = FACE_BOUND('',#89,.T.);
#89 = EDGE_LOOP('',(#90));
#90 = ORIENTED_EDGE('',*,*,#91,.F.);
#91 = EDGE_CURVE('',#92,#92,#94,.T.);
#92 = VERTEX_POINT('',#93);
#93 = CARTESIAN_POINT('',(92.941240129127,0.,0.));
#94 = CIRCLE('',#95,92.941240129127);
#95 = AXIS2_PLACEMENT_3D('',#96,#97,#98);
#96 = CARTESIAN_POINT('',(0.,0.,0.));
#97 = DIRECTION('',(0.,0.,-1.));
#98 = DIRECTION('',(1.,0.,0.));
#99 = PLANE('',#100);
#100 = AXIS2_PLACEMENT_3D('',#101,#102,#103);
#101 = CARTESIAN_POINT('',(-3.764136278818E-15,-3.226879853861E-17,0.));
#102 = DIRECTION('',(-0.,-0.,-1.));
#103 = DIRECTION('',(-1.,0.,0.));
#104 = ADVANCED_FACE('',(#105,#209,#245,#290),#326,.T.);
#105 = FACE_BOUND('',#106,.T.);
#106 = EDGE_LOOP('',(#107,#108,#109,#117,#126,#134,#143,#151,#160,#169,
    #177,#186,#194,#203));
#107 = ORIENTED_EDGE('',*,*,#72,.T.);
#108 = ORIENTED_EDGE('',*,*,#38,.T.);
#109 = ORIENTED_EDGE('',*,*,#110,.F.);
#110 = EDGE_CURVE('',#111,#39,#113,.T.);
#111 = VERTEX_POINT('',#112);
#112 = CARTESIAN_POINT('',(-9.819361321881,-76.87541962962,10.));
#113 = LINE('',#114,#115);
#114 = CARTESIAN_POINT('',(-9.819361321881,-30.261896,10.));
#115 = VECTOR('',#116,1.);
#116 = DIRECTION('',(0.,-1.,0.));
#117 = ORIENTED_EDGE('',*,*,#118,.F.);
#118 = EDGE_CURVE('',#119,#111,#121,.T.);
#119 = VERTEX_POINT('',#120);
#120 = CARTESIAN_POINT('',(-58.14504732315,-51.23869115998,10.));
#121 = CIRCLE('',#122,77.5);
#122 = AXIS2_PLACEMENT_3D('',#123,#124,#125);
#123 = CARTESIAN_POINT('',(5.105662393803E-31,-6.05198907572E-29,10.));
#124 = DIRECTION('',(0.,0.,1.));
#125 = DIRECTION('',(1.,0.,0.));
#126 = ORIENTED_EDGE('',*,*,#127,.F.);
#127 = EDGE_CURVE('',#128,#119,#130,.T.);
#128 = VERTEX_POINT('',#129);
#129 = CARTESIAN_POINT('',(-37.33633180849,-33.63828778771,10.));
#130 = LINE('',#131,#132);
#131 = CARTESIAN_POINT('',(-24.1548,-22.4891,10.));
#132 = VECTOR('',#133,1.);
#133 = DIRECTION('',(-0.763512401938,-0.645793165098,0.));
#134 = ORIENTED_EDGE('',*,*,#135,.T.);
#135 = EDGE_CURVE('',#128,#136,#138,.T.);
#136 = VERTEX_POINT('',#137);
#137 = CARTESIAN_POINT('',(-9.81936132188,-49.28606518513,10.));
#138 = CIRCLE('',#139,50.254712);
#139 = AXIS2_PLACEMENT_3D('',#140,#141,#142);
#140 = CARTESIAN_POINT('',(0.,0.,10.));
#141 = DIRECTION('',(0.,0.,1.));
#142 = DIRECTION('',(1.,0.,0.));
#143 = ORIENTED_EDGE('',*,*,#144,.F.);
#144 = EDGE_CURVE('',#145,#136,#147,.T.);
#145 = VERTEX_POINT('',#146);
#146 = CARTESIAN_POINT('',(-9.819361321882,-30.87655801135,10.));
#147 = LINE('',#148,#149);
#148 = CARTESIAN_POINT('',(-9.819361321881,-30.261896,10.));
#149 = VECTOR('',#150,1.);
#150 = DIRECTION('',(0.,-1.,0.));
#151 = ORIENTED_EDGE('',*,*,#152,.F.);
#152 = EDGE_CURVE('',#153,#145,#155,.T.);
#153 = VERTEX_POINT('',#154);
#154 = CARTESIAN_POINT('',(32.400334742073,0.,10.));
#155 = CIRCLE('',#156,32.400334742073);
#156 = AXIS2_PLACEMENT_3D('',#157,#158,#159);
#157 = CARTESIAN_POINT('',(0.,0.,10.));
#158 = DIRECTION('',(0.,0.,1.));
#159 = DIRECTION('',(1.,0.,0.));
#160 = ORIENTED_EDGE('',*,*,#161,.F.);
#161 = EDGE_CURVE('',#162,#153,#164,.T.);
#162 = VERTEX_POINT('',#163);
#163 = CARTESIAN_POINT('',(9.819361321881,-30.87655801135,10.));
#164 = CIRCLE('',#165,32.400334742073);
#165 = AXIS2_PLACEMENT_3D('',#166,#167,#168);
#166 = CARTESIAN_POINT('',(0.,0.,10.));
#167 = DIRECTION('',(0.,0.,1.));
#168 = DIRECTION('',(1.,0.,0.));
#169 = ORIENTED_EDGE('',*,*,#170,.F.);
#170 = EDGE_CURVE('',#171,#162,#173,.T.);
#171 = VERTEX_POINT('',#172);
#172 = CARTESIAN_POINT('',(9.81936132188,-49.28606518513,10.));
#173 = LINE('',#174,#175);
#174 = CARTESIAN_POINT('',(9.819361321881,-97.751823,10.));
#175 = VECTOR('',#176,1.);
#176 = DIRECTION('',(0.,1.,0.));
#177 = ORIENTED_EDGE('',*,*,#178,.T.);
#178 = EDGE_CURVE('',#171,#179,#181,.T.);
#179 = VERTEX_POINT('',#180);
#180 = CARTESIAN_POINT('',(37.336331808496,-33.63828778771,10.));
#181 = CIRCLE('',#182,50.254712);
#182 = AXIS2_PLACEMENT_3D('',#183,#184,#185);
#183 = CARTESIAN_POINT('',(0.,0.,10.));
#184 = DIRECTION('',(0.,0.,1.));
#185 = DIRECTION('',(1.,0.,0.));
#186 = ORIENTED_EDGE('',*,*,#187,.T.);
#187 = EDGE_CURVE('',#179,#188,#190,.T.);
#188 = VERTEX_POINT('',#189);
#189 = CARTESIAN_POINT('',(58.145047323154,-51.23869115998,10.));
#190 = LINE('',#191,#192);
#191 = CARTESIAN_POINT('',(24.1548,-22.4891,10.));
#192 = VECTOR('',#193,1.);
#193 = DIRECTION('',(0.763512401938,-0.645793165098,0.));
#194 = ORIENTED_EDGE('',*,*,#195,.F.);
#195 = EDGE_CURVE('',#196,#188,#198,.T.);
#196 = VERTEX_POINT('',#197);
#197 = CARTESIAN_POINT('',(9.819361321881,-76.87541962962,10.));
#198 = CIRCLE('',#199,77.5);
#199 = AXIS2_PLACEMENT_3D('',#200,#201,#202);
#200 = CARTESIAN_POINT('',(5.105662393803E-31,-6.05198907572E-29,10.));
#201 = DIRECTION('',(0.,0.,1.));
#202 = DIRECTION('',(1.,0.,0.));
#203 = ORIENTED_EDGE('',*,*,#204,.F.);
#204 = EDGE_CURVE('',#65,#196,#205,.T.);
#205 = LINE('',#206,#207);
#206 = CARTESIAN_POINT('',(9.819361321881,-97.751823,10.));
#207 = VECTOR('',#208,1.);
#208 = DIRECTION('',(0.,1.,0.));
#209 = FACE_BOUND('',#210,.T.);
#210 = EDGE_LOOP('',(#211,#221,#230,#238));
#211 = ORIENTED_EDGE('',*,*,#212,.F.);
#212 = EDGE_CURVE('',#213,#215,#217,.T.);
#213 = VERTEX_POINT('',#214);
#214 = CARTESIAN_POINT('',(-47.98138790506,14.943978483224,10.));
#215 = VERTEX_POINT('',#216);
#216 = CARTESIAN_POINT('',(-72.01666491124,28.63302245768,10.));
#217 = LINE('',#218,#219);
#218 = CARTESIAN_POINT('',(-32.43639799059,6.090489901966,10.));
#219 = VECTOR('',#220,1.);
#220 = DIRECTION('',(-0.868949303939,0.494901108489,0.));
#221 = ORIENTED_EDGE('',*,*,#222,.T.);
#222 = EDGE_CURVE('',#213,#223,#225,.T.);
#223 = VERTEX_POINT('',#224);
#224 = CARTESIAN_POINT('',(-47.81061468146,-15.48164080399,10.));
#225 = CIRCLE('',#226,50.254712);
#226 = AXIS2_PLACEMENT_3D('',#227,#228,#229);
#227 = CARTESIAN_POINT('',(0.,0.,10.));
#228 = DIRECTION('',(0.,0.,1.));
#229 = DIRECTION('',(1.,0.,0.));
#230 = ORIENTED_EDGE('',*,*,#231,.T.);
#231 = EDGE_CURVE('',#223,#232,#234,.T.);
#232 = VERTEX_POINT('',#233);
#233 = CARTESIAN_POINT('',(-71.48260876092,-29.94138682046,10.));
#234 = LINE('',#235,#236);
#235 = CARTESIAN_POINT('',(-32.43639799059,-6.090489901966,10.));
#236 = VECTOR('',#237,1.);
#237 = DIRECTION('',(-0.853385639747,-0.521280106924,0.));
#238 = ORIENTED_EDGE('',*,*,#239,.F.);
#239 = EDGE_CURVE('',#215,#232,#240,.T.);
#240 = CIRCLE('',#241,77.5);
#241 = AXIS2_PLACEMENT_3D('',#242,#243,#244);
#242 = CARTESIAN_POINT('',(5.105662393803E-31,-6.05198907572E-29,10.));
#243 = DIRECTION('',(0.,0.,1.));
#244 = DIRECTION('',(1.,0.,0.));
#245 = FACE_BOUND('',#246,.T.);
#246 = EDGE_LOOP('',(#247,#257,#266,#275,#283));
#247 = ORIENTED_EDGE('',*,*,#248,.F.);
#248 = EDGE_CURVE('',#249,#251,#253,.T.);
#249 = VERTEX_POINT('',#250);
#250 = CARTESIAN_POINT('',(47.810614681461,-15.48164080399,10.));
#251 = VERTEX_POINT('',#252);
#252 = CARTESIAN_POINT('',(71.482608760926,-29.94138682046,10.));
#253 = LINE('',#254,#255);
#254 = CARTESIAN_POINT('',(32.436397990591,-6.090489901966,10.));
#255 = VECTOR('',#256,1.);
#256 = DIRECTION('',(0.853385639747,-0.521280106924,0.));
#257 = ORIENTED_EDGE('',*,*,#258,.T.);
#258 = EDGE_CURVE('',#249,#259,#261,.T.);
#259 = VERTEX_POINT('',#260);
#260 = CARTESIAN_POINT('',(50.254712,0.,10.));
#261 = CIRCLE('',#262,50.254712);
#262 = AXIS2_PLACEMENT_3D('',#263,#264,#265);
#263 = CARTESIAN_POINT('',(0.,0.,10.));
#264 = DIRECTION('',(0.,0.,1.));
#265 = DIRECTION('',(1.,0.,0.));
#266 = ORIENTED_EDGE('',*,*,#267,.T.);
#267 = EDGE_CURVE('',#259,#268,#270,.T.);
#268 = VERTEX_POINT('',#269);
#269 = CARTESIAN_POINT('',(47.98138790506,14.943978483224,10.));
#270 = CIRCLE('',#271,50.254712);
#271 = AXIS2_PLACEMENT_3D('',#272,#273,#274);
#272 = CARTESIAN_POINT('',(0.,0.,10.));
#273 = DIRECTION('',(0.,0.,1.));
#274 = DIRECTION('',(1.,0.,0.));
#275 = ORIENTED_EDGE('',*,*,#276,.T.);
#276 = EDGE_CURVE('',#268,#277,#279,.T.);
#277 = VERTEX_POINT('',#278);
#278 = CARTESIAN_POINT('',(72.016664911241,28.63302245768,10.));
#279 = LINE('',#280,#281);
#280 = CARTESIAN_POINT('',(32.436397990591,6.090489901966,10.));
#281 = VECTOR('',#282,1.);
#282 = DIRECTION('',(0.868949303939,0.494901108489,0.));
#283 = ORIENTED_EDGE('',*,*,#284,.F.);
#284 = EDGE_CURVE('',#251,#277,#285,.T.);
#285 = CIRCLE('',#286,77.5);
#286 = AXIS2_PLACEMENT_3D('',#287,#288,#289);
#287 = CARTESIAN_POINT('',(5.105662393803E-31,-6.05198907572E-29,10.));
#288 = DIRECTION('',(0.,0.,1.));
#289 = DIRECTION('',(1.,0.,0.));
#290 = FACE_BOUND('',#291,.T.);
#291 = EDGE_LOOP('',(#292,#302,#311,#319));
#292 = ORIENTED_EDGE('',*,*,#293,.F.);
#293 = EDGE_CURVE('',#294,#296,#298,.T.);
#294 = VERTEX_POINT('',#295);
#295 = CARTESIAN_POINT('',(37.336331808496,33.638287787711,10.));
#296 = VERTEX_POINT('',#297);
#297 = CARTESIAN_POINT('',(58.145047323154,51.238691159983,10.));
#298 = LINE('',#299,#300);
#299 = CARTESIAN_POINT('',(24.1548,22.4891,10.));
#300 = VECTOR('',#301,1.);
#301 = DIRECTION('',(0.763512401938,0.645793165098,0.));
#302 = ORIENTED_EDGE('',*,*,#303,.T.);
#303 = EDGE_CURVE('',#294,#304,#306,.T.);
#304 = VERTEX_POINT('',#305);
#305 = CARTESIAN_POINT('',(-37.33633180849,33.638287787711,10.));
#306 = CIRCLE('',#307,50.254712);
#307 = AXIS2_PLACEMENT_3D('',#308,#309,#310);
#308 = CARTESIAN_POINT('',(0.,0.,10.));
#309 = DIRECTION('',(0.,0.,1.));
#310 = DIRECTION('',(1.,0.,0.));
#311 = ORIENTED_EDGE('',*,*,#312,.T.);
#312 = EDGE_CURVE('',#304,#313,#315,.T.);
#313 = VERTEX_POINT('',#314);
#314 = CARTESIAN_POINT('',(-58.14504732315,51.238691159983,10.));
#315 = LINE('',#316,#317);
#316 = CARTESIAN_POINT('',(-24.1548,22.4891,10.));
#317 = VECTOR('',#318,1.);
#318 = DIRECTION('',(-0.763512401938,0.645793165098,0.));
#319 = ORIENTED_EDGE('',*,*,#320,.F.);
#320 = EDGE_CURVE('',#296,#313,#321,.T.);
#321 = CIRCLE('',#322,77.5);
#322 = AXIS2_PLACEMENT_3D('',#323,#324,#325);
#323 = CARTESIAN_POINT('',(5.105662393803E-31,-6.05198907572E-29,10.));
#324 = DIRECTION('',(0.,0.,1.));
#325 = DIRECTION('',(1.,0.,0.));
#326 = PLANE('',#327);
#327 = AXIS2_PLACEMENT_3D('',#328,#329,#330);
#328 = CARTESIAN_POINT('',(-3.764136278818E-15,-3.226879853861E-17,10.)
  );
#329 = DIRECTION('',(0.,0.,1.));
#330 = DIRECTION('',(1.,0.,0.));
#331 = ADVANCED_FACE('',(#332),#350,.F.);
#332 = FACE_BOUND('',#333,.F.);
#333 = EDGE_LOOP('',(#334,#335,#336,#344));
#334 = ORIENTED_EDGE('',*,*,#204,.F.);
#335 = ORIENTED_EDGE('',*,*,#64,.T.);
#336 = ORIENTED_EDGE('',*,*,#337,.T.);
#337 = EDGE_CURVE('',#56,#338,#340,.T.);
#338 = VERTEX_POINT('',#339);
#339 = CARTESIAN_POINT('',(9.819361321881,-76.87541962962,3.));
#340 = LINE('',#341,#342);
#341 = CARTESIAN_POINT('',(9.819361321881,-97.751823,3.));
#342 = VECTOR('',#343,1.);
#343 = DIRECTION('',(0.,1.,0.));
#344 = ORIENTED_EDGE('',*,*,#345,.F.);
#345 = EDGE_CURVE('',#196,#338,#346,.T.);
#346 = LINE('',#347,#348);
#347 = CARTESIAN_POINT('',(9.819361321881,-76.87541962962,0.));
#348 = VECTOR('',#349,1.);
#349 = DIRECTION('',(-0.,-0.,-1.));
#350 = PLANE('',#351);
#351 = AXIS2_PLACEMENT_3D('',#352,#353,#354);
#352 = CARTESIAN_POINT('',(9.819361321881,-97.751823,10.));
#353 = DIRECTION('',(1.,0.,0.));
#354 = DIRECTION('',(0.,1.,0.));
#355 = ADVANCED_FACE('',(#356),#375,.T.);
#356 = FACE_BOUND('',#357,.T.);
#357 = EDGE_LOOP('',(#358,#367,#373,#374));
#358 = ORIENTED_EDGE('',*,*,#359,.T.);
#359 = EDGE_CURVE('',#338,#360,#362,.T.);
#360 = VERTEX_POINT('',#361);
#361 = CARTESIAN_POINT('',(-9.819361321881,-76.87541962962,3.));
#362 = CIRCLE('',#363,77.5);
#363 = AXIS2_PLACEMENT_3D('',#364,#365,#366);
#364 = CARTESIAN_POINT('',(5.105662393803E-31,-6.05198907572E-29,3.));
#365 = DIRECTION('',(0.,0.,-1.));
#366 = DIRECTION('',(1.,0.,0.));
#367 = ORIENTED_EDGE('',*,*,#368,.T.);
#368 = EDGE_CURVE('',#360,#48,#369,.T.);
#369 = LINE('',#370,#371);
#370 = CARTESIAN_POINT('',(-9.819361321881,-30.261896,3.));
#371 = VECTOR('',#372,1.);
#372 = DIRECTION('',(0.,-1.,0.));
#373 = ORIENTED_EDGE('',*,*,#55,.F.);
#374 = ORIENTED_EDGE('',*,*,#337,.T.);
#375 = PLANE('',#376);
#376 = AXIS2_PLACEMENT_3D('',#377,#378,#379);
#377 = CARTESIAN_POINT('',(0.,-64.0068595,3.));
#378 = DIRECTION('',(0.,0.,1.));
#379 = DIRECTION('',(1.,0.,0.));
#380 = ADVANCED_FACE('',(#381),#392,.F.);
#381 = FACE_BOUND('',#382,.F.);
#382 = EDGE_LOOP('',(#383,#384,#390,#391));
#383 = ORIENTED_EDGE('',*,*,#110,.F.);
#384 = ORIENTED_EDGE('',*,*,#385,.T.);
#385 = EDGE_CURVE('',#111,#360,#386,.T.);
#386 = LINE('',#387,#388);
#387 = CARTESIAN_POINT('',(-9.819361321881,-76.87541962962,0.));
#388 = VECTOR('',#389,1.);
#389 = DIRECTION('',(-0.,-0.,-1.));
#390 = ORIENTED_EDGE('',*,*,#368,.T.);
#391 = ORIENTED_EDGE('',*,*,#47,.F.);
#392 = PLANE('',#393);
#393 = AXIS2_PLACEMENT_3D('',#394,#395,#396);
#394 = CARTESIAN_POINT('',(-9.819361321881,-30.261896,10.));
#395 = DIRECTION('',(-1.,0.,0.));
#396 = DIRECTION('',(0.,-1.,0.));
#397 = ADVANCED_FACE('',(#398),#417,.T.);
#398 = FACE_BOUND('',#399,.F.);
#399 = EDGE_LOOP('',(#400,#408,#415,#416));
#400 = ORIENTED_EDGE('',*,*,#401,.T.);
#401 = EDGE_CURVE('',#92,#402,#404,.T.);
#402 = VERTEX_POINT('',#403);
#403 = CARTESIAN_POINT('',(92.941240129127,0.,-15.));
#404 = LINE('',#405,#406);
#405 = CARTESIAN_POINT('',(92.941240129127,0.,0.));
#406 = VECTOR('',#407,1.);
#407 = DIRECTION('',(0.,0.,-1.));
#408 = ORIENTED_EDGE('',*,*,#409,.T.);
#409 = EDGE_CURVE('',#402,#402,#410,.T.);
#410 = CIRCLE('',#411,92.941240129127);
#411 = AXIS2_PLACEMENT_3D('',#412,#413,#414);
#412 = CARTESIAN_POINT('',(0.,0.,-15.));
#413 = DIRECTION('',(0.,0.,-1.));
#414 = DIRECTION('',(1.,0.,0.));
#415 = ORIENTED_EDGE('',*,*,#401,.F.);
#416 = ORIENTED_EDGE('',*,*,#91,.F.);
#417 = CYLINDRICAL_SURFACE('',#418,92.941240129127);
#418 = AXIS2_PLACEMENT_3D('',#419,#420,#421);
#419 = CARTESIAN_POINT('',(0.,0.,0.));
#420 = DIRECTION('',(-0.,-0.,1.));
#421 = DIRECTION('',(1.,0.,0.));
#422 = ADVANCED_FACE('',(#423),#453,.F.);
#423 = FACE_BOUND('',#424,.T.);
#424 = EDGE_LOOP('',(#425,#436,#442,#443,#444,#445,#446,#447));
#425 = ORIENTED_EDGE('',*,*,#426,.F.);
#426 = EDGE_CURVE('',#427,#429,#431,.T.);
#427 = VERTEX_POINT('',#428);
#428 = CARTESIAN_POINT('',(-58.14504732315,-51.23869115998,0.));
#429 = VERTEX_POINT('',#430);
#430 = CARTESIAN_POINT('',(58.145047323154,-51.23869115998,0.));
#431 = CIRCLE('',#432,77.5);
#432 = AXIS2_PLACEMENT_3D('',#433,#434,#435);
#433 = CARTESIAN_POINT('',(5.105662393803E-31,-6.05198907572E-29,0.));
#434 = DIRECTION('',(0.,0.,1.));
#435 = DIRECTION('',(1.,0.,0.));
#436 = ORIENTED_EDGE('',*,*,#437,.T.);
#437 = EDGE_CURVE('',#427,#119,#438,.T.);
#438 = LINE('',#439,#440);
#439 = CARTESIAN_POINT('',(-58.14504732315,-51.23869115998,0.));
#440 = VECTOR('',#441,1.);
#441 = DIRECTION('',(0.,0.,1.));
#442 = ORIENTED_EDGE('',*,*,#118,.T.);
#443 = ORIENTED_EDGE('',*,*,#385,.T.);
#444 = ORIENTED_EDGE('',*,*,#359,.F.);
#445 = ORIENTED_EDGE('',*,*,#345,.F.);
#446 = ORIENTED_EDGE('',*,*,#195,.T.);
#447 = ORIENTED_EDGE('',*,*,#448,.F.);
#448 = EDGE_CURVE('',#429,#188,#449,.T.);
#449 = LINE('',#450,#451);
#450 = CARTESIAN_POINT('',(58.145047323154,-51.23869115998,0.));
#451 = VECTOR('',#452,1.);
#452 = DIRECTION('',(0.,0.,1.));
#453 = CYLINDRICAL_SURFACE('',#454,77.5);
#454 = AXIS2_PLACEMENT_3D('',#455,#456,#457);
#455 = CARTESIAN_POINT('',(5.105662393803E-31,-6.05198907572E-29,0.));
#456 = DIRECTION('',(-0.,-0.,-1.));
#457 = DIRECTION('',(1.,0.,0.));
#458 = ADVANCED_FACE('',(#459),#477,.F.);
#459 = FACE_BOUND('',#460,.F.);
#460 = EDGE_LOOP('',(#461,#469,#475,#476));
#461 = ORIENTED_EDGE('',*,*,#462,.F.);
#462 = EDGE_CURVE('',#463,#429,#465,.T.);
#463 = VERTEX_POINT('',#464);
#464 = CARTESIAN_POINT('',(37.336331808496,-33.63828778771,0.));
#465 = LINE('',#466,#467);
#466 = CARTESIAN_POINT('',(24.1548,-22.4891,0.));
#467 = VECTOR('',#468,1.);
#468 = DIRECTION('',(0.763512401938,-0.645793165098,0.));
#469 = ORIENTED_EDGE('',*,*,#470,.F.);
#470 = EDGE_CURVE('',#179,#463,#471,.T.);
#471 = LINE('',#472,#473);
#472 = CARTESIAN_POINT('',(37.336331808496,-33.63828778771,0.));
#473 = VECTOR('',#474,1.);
#474 = DIRECTION('',(-0.,-0.,-1.));
#475 = ORIENTED_EDGE('',*,*,#187,.T.);
#476 = ORIENTED_EDGE('',*,*,#448,.F.);
#477 = PLANE('',#478);
#478 = AXIS2_PLACEMENT_3D('',#479,#480,#481);
#479 = CARTESIAN_POINT('',(24.1548,-22.4891,0.));
#480 = DIRECTION('',(0.645793165098,0.763512401938,0.));
#481 = DIRECTION('',(0.763512401938,-0.645793165098,0.));
#482 = ADVANCED_FACE('',(#483),#526,.T.);
#483 = FACE_BOUND('',#484,.F.);
#484 = EDGE_LOOP('',(#485,#486,#487,#496,#502,#503,#511,#520));
#485 = ORIENTED_EDGE('',*,*,#178,.T.);
#486 = ORIENTED_EDGE('',*,*,#470,.T.);
#487 = ORIENTED_EDGE('',*,*,#488,.F.);
#488 = EDGE_CURVE('',#489,#463,#491,.T.);
#489 = VERTEX_POINT('',#490);
#490 = CARTESIAN_POINT('',(-37.33633180849,-33.63828778771,0.));
#491 = CIRCLE('',#492,50.254712);
#492 = AXIS2_PLACEMENT_3D('',#493,#494,#495);
#493 = CARTESIAN_POINT('',(0.,0.,0.));
#494 = DIRECTION('',(0.,0.,1.));
#495 = DIRECTION('',(1.,0.,0.));
#496 = ORIENTED_EDGE('',*,*,#497,.F.);
#497 = EDGE_CURVE('',#128,#489,#498,.T.);
#498 = LINE('',#499,#500);
#499 = CARTESIAN_POINT('',(-37.33633180849,-33.63828778771,0.));
#500 = VECTOR('',#501,1.);
#501 = DIRECTION('',(-0.,-0.,-1.));
#502 = ORIENTED_EDGE('',*,*,#135,.T.);
#503 = ORIENTED_EDGE('',*,*,#504,.T.);
#504 = EDGE_CURVE('',#136,#505,#507,.T.);
#505 = VERTEX_POINT('',#506);
#506 = CARTESIAN_POINT('',(-9.819361321881,-49.28606518513,3.));
#507 = LINE('',#508,#509);
#508 = CARTESIAN_POINT('',(-9.819361321881,-49.28606518513,0.));
#509 = VECTOR('',#510,1.);
#510 = DIRECTION('',(-0.,-0.,-1.));
#511 = ORIENTED_EDGE('',*,*,#512,.F.);
#512 = EDGE_CURVE('',#513,#505,#515,.T.);
#513 = VERTEX_POINT('',#514);
#514 = CARTESIAN_POINT('',(9.819361321881,-49.28606518513,3.));
#515 = CIRCLE('',#516,50.254712);
#516 = AXIS2_PLACEMENT_3D('',#517,#518,#519);
#517 = CARTESIAN_POINT('',(0.,0.,3.));
#518 = DIRECTION('',(0.,0.,-1.));
#519 = DIRECTION('',(1.,0.,0.));
#520 = ORIENTED_EDGE('',*,*,#521,.F.);
#521 = EDGE_CURVE('',#171,#513,#522,.T.);
#522 = LINE('',#523,#524);
#523 = CARTESIAN_POINT('',(9.819361321881,-49.28606518513,0.));
#524 = VECTOR('',#525,1.);
#525 = DIRECTION('',(-0.,-0.,-1.));
#526 = CYLINDRICAL_SURFACE('',#527,50.254712);
#527 = AXIS2_PLACEMENT_3D('',#528,#529,#530);
#528 = CARTESIAN_POINT('',(0.,0.,0.));
#529 = DIRECTION('',(-0.,-0.,-1.));
#530 = DIRECTION('',(1.,0.,0.));
#531 = ADVANCED_FACE('',(#532),#550,.F.);
#532 = FACE_BOUND('',#533,.F.);
#533 = EDGE_LOOP('',(#534,#535,#536,#544));
#534 = ORIENTED_EDGE('',*,*,#170,.F.);
#535 = ORIENTED_EDGE('',*,*,#521,.T.);
#536 = ORIENTED_EDGE('',*,*,#537,.T.);
#537 = EDGE_CURVE('',#513,#538,#540,.T.);
#538 = VERTEX_POINT('',#539);
#539 = CARTESIAN_POINT('',(9.819361321881,-30.87655801135,3.));
#540 = LINE('',#541,#542);
#541 = CARTESIAN_POINT('',(9.819361321881,-97.751823,3.));
#542 = VECTOR('',#543,1.);
#543 = DIRECTION('',(0.,1.,0.));
#544 = ORIENTED_EDGE('',*,*,#545,.F.);
#545 = EDGE_CURVE('',#162,#538,#546,.T.);
#546 = LINE('',#547,#548);
#547 = CARTESIAN_POINT('',(9.819361321881,-30.87655801135,0.));
#548 = VECTOR('',#549,1.);
#549 = DIRECTION('',(-0.,-0.,-1.));
#550 = PLANE('',#551);
#551 = AXIS2_PLACEMENT_3D('',#552,#553,#554);
#552 = CARTESIAN_POINT('',(9.819361321881,-97.751823,10.));
#553 = DIRECTION('',(1.,0.,0.));
#554 = DIRECTION('',(0.,1.,0.));
#555 = ADVANCED_FACE('',(#556),#592,.F.);
#556 = FACE_BOUND('',#557,.T.);
#557 = EDGE_LOOP('',(#558,#567,#573,#574,#582,#589,#590,#591));
#558 = ORIENTED_EDGE('',*,*,#559,.F.);
#559 = EDGE_CURVE('',#560,#560,#562,.T.);
#560 = VERTEX_POINT('',#561);
#561 = CARTESIAN_POINT('',(32.400334742073,0.,0.));
#562 = CIRCLE('',#563,32.400334742073);
#563 = AXIS2_PLACEMENT_3D('',#564,#565,#566);
#564 = CARTESIAN_POINT('',(0.,0.,0.));
#565 = DIRECTION('',(0.,0.,1.));
#566 = DIRECTION('',(1.,0.,0.));
#567 = ORIENTED_EDGE('',*,*,#568,.T.);
#568 = EDGE_CURVE('',#560,#153,#569,.T.);
#569 = LINE('',#570,#571);
#570 = CARTESIAN_POINT('',(32.400334742073,0.,0.));
#571 = VECTOR('',#572,1.);
#572 = DIRECTION('',(0.,0.,1.));
#573 = ORIENTED_EDGE('',*,*,#152,.T.);
#574 = ORIENTED_EDGE('',*,*,#575,.T.);
#575 = EDGE_CURVE('',#145,#576,#578,.T.);
#576 = VERTEX_POINT('',#577);
#577 = CARTESIAN_POINT('',(-9.819361321881,-30.87655801135,3.));
#578 = LINE('',#579,#580);
#579 = CARTESIAN_POINT('',(-9.819361321881,-30.87655801135,0.));
#580 = VECTOR('',#581,1.);
#581 = DIRECTION('',(-0.,-0.,-1.));
#582 = ORIENTED_EDGE('',*,*,#583,.F.);
#583 = EDGE_CURVE('',#538,#576,#584,.T.);
#584 = CIRCLE('',#585,32.400334742073);
#585 = AXIS2_PLACEMENT_3D('',#586,#587,#588);
#586 = CARTESIAN_POINT('',(0.,0.,3.));
#587 = DIRECTION('',(0.,0.,-1.));
#588 = DIRECTION('',(1.,0.,0.));
#589 = ORIENTED_EDGE('',*,*,#545,.F.);
#590 = ORIENTED_EDGE('',*,*,#161,.T.);
#591 = ORIENTED_EDGE('',*,*,#568,.F.);
#592 = CYLINDRICAL_SURFACE('',#593,32.400334742073);
#593 = AXIS2_PLACEMENT_3D('',#594,#595,#596);
#594 = CARTESIAN_POINT('',(0.,0.,0.));
#595 = DIRECTION('',(-0.,-0.,-1.));
#596 = DIRECTION('',(1.,0.,0.));
#597 = ADVANCED_FACE('',(#598),#609,.F.);
#598 = FACE_BOUND('',#599,.F.);
#599 = EDGE_LOOP('',(#600,#601,#602,#608));
#600 = ORIENTED_EDGE('',*,*,#144,.F.);
#601 = ORIENTED_EDGE('',*,*,#575,.T.);
#602 = ORIENTED_EDGE('',*,*,#603,.T.);
#603 = EDGE_CURVE('',#576,#505,#604,.T.);
#604 = LINE('',#605,#606);
#605 = CARTESIAN_POINT('',(-9.819361321881,-30.261896,3.));
#606 = VECTOR('',#607,1.);
#607 = DIRECTION('',(0.,-1.,0.));
#608 = ORIENTED_EDGE('',*,*,#504,.F.);
#609 = PLANE('',#610);
#610 = AXIS2_PLACEMENT_3D('',#611,#612,#613);
#611 = CARTESIAN_POINT('',(-9.819361321881,-30.261896,10.));
#612 = DIRECTION('',(-1.,0.,0.));
#613 = DIRECTION('',(0.,-1.,0.));
#614 = ADVANCED_FACE('',(#615),#626,.T.);
#615 = FACE_BOUND('',#616,.T.);
#616 = EDGE_LOOP('',(#617,#623,#624,#625));
#617 = ORIENTED_EDGE('',*,*,#618,.F.);
#618 = EDGE_CURVE('',#489,#427,#619,.T.);
#619 = LINE('',#620,#621);
#620 = CARTESIAN_POINT('',(-24.1548,-22.4891,0.));
#621 = VECTOR('',#622,1.);
#622 = DIRECTION('',(-0.763512401938,-0.645793165098,0.));
#623 = ORIENTED_EDGE('',*,*,#497,.F.);
#624 = ORIENTED_EDGE('',*,*,#127,.T.);
#625 = ORIENTED_EDGE('',*,*,#437,.F.);
#626 = PLANE('',#627);
#627 = AXIS2_PLACEMENT_3D('',#628,#629,#630);
#628 = CARTESIAN_POINT('',(-24.1548,-22.4891,0.));
#629 = DIRECTION('',(0.645793165098,-0.763512401938,0.));
#630 = DIRECTION('',(-0.763512401938,-0.645793165098,0.));
#631 = ADVANCED_FACE('',(#632),#657,.T.);
#632 = FACE_BOUND('',#633,.T.);
#633 = EDGE_LOOP('',(#634,#644,#650,#651));
#634 = ORIENTED_EDGE('',*,*,#635,.F.);
#635 = EDGE_CURVE('',#636,#638,#640,.T.);
#636 = VERTEX_POINT('',#637);
#637 = CARTESIAN_POINT('',(-47.98138790506,14.943978483224,0.));
#638 = VERTEX_POINT('',#639);
#639 = CARTESIAN_POINT('',(-72.01666491124,28.63302245768,0.));
#640 = LINE('',#641,#642);
#641 = CARTESIAN_POINT('',(-32.43639799059,6.090489901966,0.));
#642 = VECTOR('',#643,1.);
#643 = DIRECTION('',(-0.868949303939,0.494901108489,0.));
#644 = ORIENTED_EDGE('',*,*,#645,.F.);
#645 = EDGE_CURVE('',#213,#636,#646,.T.);
#646 = LINE('',#647,#648);
#647 = CARTESIAN_POINT('',(-47.98138790506,14.943978483225,0.));
#648 = VECTOR('',#649,1.);
#649 = DIRECTION('',(-0.,-0.,-1.));
#650 = ORIENTED_EDGE('',*,*,#212,.T.);
#651 = ORIENTED_EDGE('',*,*,#652,.F.);
#652 = EDGE_CURVE('',#638,#215,#653,.T.);
#653 = LINE('',#654,#655);
#654 = CARTESIAN_POINT('',(-72.01666491124,28.63302245768,0.));
#655 = VECTOR('',#656,1.);
#656 = DIRECTION('',(0.,0.,1.));
#657 = PLANE('',#658);
#658 = AXIS2_PLACEMENT_3D('',#659,#660,#661);
#659 = CARTESIAN_POINT('',(-32.43639799059,6.090489901966,0.));
#660 = DIRECTION('',(-0.494901108489,-0.868949303939,0.));
#661 = DIRECTION('',(-0.868949303939,0.494901108489,0.));
#662 = ADVANCED_FACE('',(#663),#682,.T.);
#663 = FACE_BOUND('',#664,.F.);
#664 = EDGE_LOOP('',(#665,#674,#675,#676));
#665 = ORIENTED_EDGE('',*,*,#666,.F.);
#666 = EDGE_CURVE('',#636,#667,#669,.T.);
#667 = VERTEX_POINT('',#668);
#668 = CARTESIAN_POINT('',(-47.81061468146,-15.48164080399,0.));
#669 = CIRCLE('',#670,50.254712);
#670 = AXIS2_PLACEMENT_3D('',#671,#672,#673);
#671 = CARTESIAN_POINT('',(0.,0.,0.));
#672 = DIRECTION('',(0.,0.,1.));
#673 = DIRECTION('',(1.,0.,0.));
#674 = ORIENTED_EDGE('',*,*,#645,.F.);
#675 = ORIENTED_EDGE('',*,*,#222,.T.);
#676 = ORIENTED_EDGE('',*,*,#677,.T.);
#677 = EDGE_CURVE('',#223,#667,#678,.T.);
#678 = LINE('',#679,#680);
#679 = CARTESIAN_POINT('',(-47.81061468146,-15.48164080399,0.));
#680 = VECTOR('',#681,1.);
#681 = DIRECTION('',(-0.,-0.,-1.));
#682 = CYLINDRICAL_SURFACE('',#683,50.254712);
#683 = AXIS2_PLACEMENT_3D('',#684,#685,#686);
#684 = CARTESIAN_POINT('',(0.,0.,0.));
#685 = DIRECTION('',(-0.,-0.,-1.));
#686 = DIRECTION('',(1.,0.,0.));
#687 = ADVANCED_FACE('',(#688),#707,.F.);
#688 = FACE_BOUND('',#689,.T.);
#689 = EDGE_LOOP('',(#690,#691,#692,#700));
#690 = ORIENTED_EDGE('',*,*,#652,.T.);
#691 = ORIENTED_EDGE('',*,*,#239,.T.);
#692 = ORIENTED_EDGE('',*,*,#693,.F.);
#693 = EDGE_CURVE('',#694,#232,#696,.T.);
#694 = VERTEX_POINT('',#695);
#695 = CARTESIAN_POINT('',(-71.48260876092,-29.94138682046,0.));
#696 = LINE('',#697,#698);
#697 = CARTESIAN_POINT('',(-71.48260876092,-29.94138682046,0.));
#698 = VECTOR('',#699,1.);
#699 = DIRECTION('',(0.,0.,1.));
#700 = ORIENTED_EDGE('',*,*,#701,.F.);
#701 = EDGE_CURVE('',#638,#694,#702,.T.);
#702 = CIRCLE('',#703,77.5);
#703 = AXIS2_PLACEMENT_3D('',#704,#705,#706);
#704 = CARTESIAN_POINT('',(5.105662393803E-31,-6.05198907572E-29,0.));
#705 = DIRECTION('',(0.,0.,1.));
#706 = DIRECTION('',(1.,0.,0.));
#707 = CYLINDRICAL_SURFACE('',#708,77.5);
#708 = AXIS2_PLACEMENT_3D('',#709,#710,#711);
#709 = CARTESIAN_POINT('',(5.105662393803E-31,-6.05198907572E-29,0.));
#710 = DIRECTION('',(-0.,-0.,-1.));
#711 = DIRECTION('',(1.,0.,0.));
#712 = ADVANCED_FACE('',(#713),#724,.F.);
#713 = FACE_BOUND('',#714,.F.);
#714 = EDGE_LOOP('',(#715,#721,#722,#723));
#715 = ORIENTED_EDGE('',*,*,#716,.F.);
#716 = EDGE_CURVE('',#667,#694,#717,.T.);
#717 = LINE('',#718,#719);
#718 = CARTESIAN_POINT('',(-32.43639799059,-6.090489901966,0.));
#719 = VECTOR('',#720,1.);
#720 = DIRECTION('',(-0.853385639747,-0.521280106924,0.));
#721 = ORIENTED_EDGE('',*,*,#677,.F.);
#722 = ORIENTED_EDGE('',*,*,#231,.T.);
#723 = ORIENTED_EDGE('',*,*,#693,.F.);
#724 = PLANE('',#725);
#725 = AXIS2_PLACEMENT_3D('',#726,#727,#728);
#726 = CARTESIAN_POINT('',(-32.43639799059,-6.090489901966,0.));
#727 = DIRECTION('',(0.521280106924,-0.853385639747,0.));
#728 = DIRECTION('',(-0.853385639747,-0.521280106924,0.));
#729 = ADVANCED_FACE('',(#730),#755,.T.);
#730 = FACE_BOUND('',#731,.T.);
#731 = EDGE_LOOP('',(#732,#742,#748,#749));
#732 = ORIENTED_EDGE('',*,*,#733,.F.);
#733 = EDGE_CURVE('',#734,#736,#738,.T.);
#734 = VERTEX_POINT('',#735);
#735 = CARTESIAN_POINT('',(47.810614681461,-15.48164080399,0.));
#736 = VERTEX_POINT('',#737);
#737 = CARTESIAN_POINT('',(71.482608760926,-29.94138682046,0.));
#738 = LINE('',#739,#740);
#739 = CARTESIAN_POINT('',(32.436397990591,-6.090489901966,0.));
#740 = VECTOR('',#741,1.);
#741 = DIRECTION('',(0.853385639747,-0.521280106924,0.));
#742 = ORIENTED_EDGE('',*,*,#743,.F.);
#743 = EDGE_CURVE('',#249,#734,#744,.T.);
#744 = LINE('',#745,#746);
#745 = CARTESIAN_POINT('',(47.810614681461,-15.48164080399,0.));
#746 = VECTOR('',#747,1.);
#747 = DIRECTION('',(-0.,-0.,-1.));
#748 = ORIENTED_EDGE('',*,*,#248,.T.);
#749 = ORIENTED_EDGE('',*,*,#750,.F.);
#750 = EDGE_CURVE('',#736,#251,#751,.T.);
#751 = LINE('',#752,#753);
#752 = CARTESIAN_POINT('',(71.482608760926,-29.94138682046,0.));
#753 = VECTOR('',#754,1.);
#754 = DIRECTION('',(0.,0.,1.));
#755 = PLANE('',#756);
#756 = AXIS2_PLACEMENT_3D('',#757,#758,#759);
#757 = CARTESIAN_POINT('',(32.436397990591,-6.090489901966,0.));
#758 = DIRECTION('',(0.521280106924,0.853385639747,0.));
#759 = DIRECTION('',(0.853385639747,-0.521280106924,0.));
#760 = ADVANCED_FACE('',(#761),#790,.T.);
#761 = FACE_BOUND('',#762,.F.);
#762 = EDGE_LOOP('',(#763,#771,#780,#787,#788,#789));
#763 = ORIENTED_EDGE('',*,*,#764,.T.);
#764 = EDGE_CURVE('',#268,#765,#767,.T.);
#765 = VERTEX_POINT('',#766);
#766 = CARTESIAN_POINT('',(47.98138790506,14.943978483224,0.));
#767 = LINE('',#768,#769);
#768 = CARTESIAN_POINT('',(47.98138790506,14.943978483225,0.));
#769 = VECTOR('',#770,1.);
#770 = DIRECTION('',(-0.,-0.,-1.));
#771 = ORIENTED_EDGE('',*,*,#772,.F.);
#772 = EDGE_CURVE('',#773,#765,#775,.T.);
#773 = VERTEX_POINT('',#774);
#774 = CARTESIAN_POINT('',(50.254712,0.,0.));
#775 = CIRCLE('',#776,50.254712);
#776 = AXIS2_PLACEMENT_3D('',#777,#778,#779);
#777 = CARTESIAN_POINT('',(0.,0.,0.));
#778 = DIRECTION('',(0.,0.,1.));
#779 = DIRECTION('',(1.,0.,0.));
#780 = ORIENTED_EDGE('',*,*,#781,.F.);
#781 = EDGE_CURVE('',#734,#773,#782,.T.);
#782 = CIRCLE('',#783,50.254712);
#783 = AXIS2_PLACEMENT_3D('',#784,#785,#786);
#784 = CARTESIAN_POINT('',(0.,0.,0.));
#785 = DIRECTION('',(0.,0.,1.));
#786 = DIRECTION('',(1.,0.,0.));
#787 = ORIENTED_EDGE('',*,*,#743,.F.);
#788 = ORIENTED_EDGE('',*,*,#258,.T.);
#789 = ORIENTED_EDGE('',*,*,#267,.T.);
#790 = CYLINDRICAL_SURFACE('',#791,50.254712);
#791 = AXIS2_PLACEMENT_3D('',#792,#793,#794);
#792 = CARTESIAN_POINT('',(0.,0.,0.));
#793 = DIRECTION('',(-0.,-0.,-1.));
#794 = DIRECTION('',(1.,0.,0.));
#795 = ADVANCED_FACE('',(#796),#815,.F.);
#796 = FACE_BOUND('',#797,.T.);
#797 = EDGE_LOOP('',(#798,#799,#800,#808));
#798 = ORIENTED_EDGE('',*,*,#750,.T.);
#799 = ORIENTED_EDGE('',*,*,#284,.T.);
#800 = ORIENTED_EDGE('',*,*,#801,.F.);
#801 = EDGE_CURVE('',#802,#277,#804,.T.);
#802 = VERTEX_POINT('',#803);
#803 = CARTESIAN_POINT('',(72.016664911241,28.63302245768,0.));
#804 = LINE('',#805,#806);
#805 = CARTESIAN_POINT('',(72.016664911241,28.63302245768,0.));
#806 = VECTOR('',#807,1.);
#807 = DIRECTION('',(0.,0.,1.));
#808 = ORIENTED_EDGE('',*,*,#809,.F.);
#809 = EDGE_CURVE('',#736,#802,#810,.T.);
#810 = CIRCLE('',#811,77.5);
#811 = AXIS2_PLACEMENT_3D('',#812,#813,#814);
#812 = CARTESIAN_POINT('',(5.105662393803E-31,-6.05198907572E-29,0.));
#813 = DIRECTION('',(0.,0.,1.));
#814 = DIRECTION('',(1.,0.,0.));
#815 = CYLINDRICAL_SURFACE('',#816,77.5);
#816 = AXIS2_PLACEMENT_3D('',#817,#818,#819);
#817 = CARTESIAN_POINT('',(5.105662393803E-31,-6.05198907572E-29,0.));
#818 = DIRECTION('',(-0.,-0.,-1.));
#819 = DIRECTION('',(1.,0.,0.));
#820 = ADVANCED_FACE('',(#821),#832,.F.);
#821 = FACE_BOUND('',#822,.F.);
#822 = EDGE_LOOP('',(#823,#829,#830,#831));
#823 = ORIENTED_EDGE('',*,*,#824,.F.);
#824 = EDGE_CURVE('',#765,#802,#825,.T.);
#825 = LINE('',#826,#827);
#826 = CARTESIAN_POINT('',(32.436397990591,6.090489901966,0.));
#827 = VECTOR('',#828,1.);
#828 = DIRECTION('',(0.868949303939,0.494901108489,0.));
#829 = ORIENTED_EDGE('',*,*,#764,.F.);
#830 = ORIENTED_EDGE('',*,*,#276,.T.);
#831 = ORIENTED_EDGE('',*,*,#801,.F.);
#832 = PLANE('',#833);
#833 = AXIS2_PLACEMENT_3D('',#834,#835,#836);
#834 = CARTESIAN_POINT('',(32.436397990591,6.090489901966,0.));
#835 = DIRECTION('',(-0.494901108489,0.868949303939,0.));
#836 = DIRECTION('',(0.868949303939,0.494901108489,0.));
#837 = ADVANCED_FACE('',(#838),#863,.T.);
#838 = FACE_BOUND('',#839,.T.);
#839 = EDGE_LOOP('',(#840,#850,#856,#857));
#840 = ORIENTED_EDGE('',*,*,#841,.F.);
#841 = EDGE_CURVE('',#842,#844,#846,.T.);
#842 = VERTEX_POINT('',#843);
#843 = CARTESIAN_POINT('',(37.336331808496,33.638287787711,0.));
#844 = VERTEX_POINT('',#845);
#845 = CARTESIAN_POINT('',(58.145047323154,51.238691159983,0.));
#846 = LINE('',#847,#848);
#847 = CARTESIAN_POINT('',(24.1548,22.4891,0.));
#848 = VECTOR('',#849,1.);
#849 = DIRECTION('',(0.763512401938,0.645793165098,0.));
#850 = ORIENTED_EDGE('',*,*,#851,.F.);
#851 = EDGE_CURVE('',#294,#842,#852,.T.);
#852 = LINE('',#853,#854);
#853 = CARTESIAN_POINT('',(37.336331808496,33.638287787711,0.));
#854 = VECTOR('',#855,1.);
#855 = DIRECTION('',(-0.,-0.,-1.));
#856 = ORIENTED_EDGE('',*,*,#293,.T.);
#857 = ORIENTED_EDGE('',*,*,#858,.F.);
#858 = EDGE_CURVE('',#844,#296,#859,.T.);
#859 = LINE('',#860,#861);
#860 = CARTESIAN_POINT('',(58.145047323154,51.238691159983,0.));
#861 = VECTOR('',#862,1.);
#862 = DIRECTION('',(0.,0.,1.));
#863 = PLANE('',#864);
#864 = AXIS2_PLACEMENT_3D('',#865,#866,#867);
#865 = CARTESIAN_POINT('',(24.1548,22.4891,0.));
#866 = DIRECTION('',(-0.645793165098,0.763512401938,0.));
#867 = DIRECTION('',(0.763512401938,0.645793165098,0.));
#868 = ADVANCED_FACE('',(#869),#888,.T.);
#869 = FACE_BOUND('',#870,.F.);
#870 = EDGE_LOOP('',(#871,#880,#881,#882));
#871 = ORIENTED_EDGE('',*,*,#872,.F.);
#872 = EDGE_CURVE('',#842,#873,#875,.T.);
#873 = VERTEX_POINT('',#874);
#874 = CARTESIAN_POINT('',(-37.33633180849,33.638287787711,0.));
#875 = CIRCLE('',#876,50.254712);
#876 = AXIS2_PLACEMENT_3D('',#877,#878,#879);
#877 = CARTESIAN_POINT('',(0.,0.,0.));
#878 = DIRECTION('',(0.,0.,1.));
#879 = DIRECTION('',(1.,0.,0.));
#880 = ORIENTED_EDGE('',*,*,#851,.F.);
#881 = ORIENTED_EDGE('',*,*,#303,.T.);
#882 = ORIENTED_EDGE('',*,*,#883,.T.);
#883 = EDGE_CURVE('',#304,#873,#884,.T.);
#884 = LINE('',#885,#886);
#885 = CARTESIAN_POINT('',(-37.33633180849,33.638287787711,0.));
#886 = VECTOR('',#887,1.);
#887 = DIRECTION('',(-0.,-0.,-1.));
#888 = CYLINDRICAL_SURFACE('',#889,50.254712);
#889 = AXIS2_PLACEMENT_3D('',#890,#891,#892);
#890 = CARTESIAN_POINT('',(0.,0.,0.));
#891 = DIRECTION('',(-0.,-0.,-1.));
#892 = DIRECTION('',(1.,0.,0.));
#893 = ADVANCED_FACE('',(#894),#913,.F.);
#894 = FACE_BOUND('',#895,.T.);
#895 = EDGE_LOOP('',(#896,#897,#898,#906));
#896 = ORIENTED_EDGE('',*,*,#858,.T.);
#897 = ORIENTED_EDGE('',*,*,#320,.T.);
#898 = ORIENTED_EDGE('',*,*,#899,.F.);
#899 = EDGE_CURVE('',#900,#313,#902,.T.);
#900 = VERTEX_POINT('',#901);
#901 = CARTESIAN_POINT('',(-58.14504732315,51.238691159983,0.));
#902 = LINE('',#903,#904);
#903 = CARTESIAN_POINT('',(-58.14504732315,51.238691159983,0.));
#904 = VECTOR('',#905,1.);
#905 = DIRECTION('',(0.,0.,1.));
#906 = ORIENTED_EDGE('',*,*,#907,.F.);
#907 = EDGE_CURVE('',#844,#900,#908,.T.);
#908 = CIRCLE('',#909,77.5);
#909 = AXIS2_PLACEMENT_3D('',#910,#911,#912);
#910 = CARTESIAN_POINT('',(5.105662393803E-31,-6.05198907572E-29,0.));
#911 = DIRECTION('',(0.,0.,1.));
#912 = DIRECTION('',(1.,0.,0.));
#913 = CYLINDRICAL_SURFACE('',#914,77.5);
#914 = AXIS2_PLACEMENT_3D('',#915,#916,#917);
#915 = CARTESIAN_POINT('',(5.105662393803E-31,-6.05198907572E-29,0.));
#916 = DIRECTION('',(-0.,-0.,-1.));
#917 = DIRECTION('',(1.,0.,0.));
#918 = ADVANCED_FACE('',(#919),#930,.F.);
#919 = FACE_BOUND('',#920,.F.);
#920 = EDGE_LOOP('',(#921,#927,#928,#929));
#921 = ORIENTED_EDGE('',*,*,#922,.F.);
#922 = EDGE_CURVE('',#873,#900,#923,.T.);
#923 = LINE('',#924,#925);
#924 = CARTESIAN_POINT('',(-24.1548,22.4891,0.));
#925 = VECTOR('',#926,1.);
#926 = DIRECTION('',(-0.763512401938,0.645793165098,0.));
#927 = ORIENTED_EDGE('',*,*,#883,.F.);
#928 = ORIENTED_EDGE('',*,*,#312,.T.);
#929 = ORIENTED_EDGE('',*,*,#899,.F.);
#930 = PLANE('',#931);
#931 = AXIS2_PLACEMENT_3D('',#932,#933,#934);
#932 = CARTESIAN_POINT('',(-24.1548,22.4891,0.));
#933 = DIRECTION('',(-0.645793165098,-0.763512401938,0.));
#934 = DIRECTION('',(-0.763512401938,0.645793165098,0.));
#935 = ADVANCED_FACE('',(#936,#939),#950,.F.);
#936 = FACE_BOUND('',#937,.T.);
#937 = EDGE_LOOP('',(#938));
#938 = ORIENTED_EDGE('',*,*,#409,.T.);
#939 = FACE_BOUND('',#940,.F.);
#940 = EDGE_LOOP('',(#941));
#941 = ORIENTED_EDGE('',*,*,#942,.T.);
#942 = EDGE_CURVE('',#943,#943,#945,.T.);
#943 = VERTEX_POINT('',#944);
#944 = CARTESIAN_POINT('',(85.418763904484,0.,-15.));
#945 = CIRCLE('',#946,85.418763904484);
#946 = AXIS2_PLACEMENT_3D('',#947,#948,#949);
#947 = CARTESIAN_POINT('',(0.,0.,-15.));
#948 = DIRECTION('',(0.,0.,-1.));
#949 = DIRECTION('',(1.,0.,0.));
#950 = PLANE('',#951);
#951 = AXIS2_PLACEMENT_3D('',#952,#953,#954);
#952 = CARTESIAN_POINT('',(-3.925371899679E-15,1.432488566701E-17,-15.)
  );
#953 = DIRECTION('',(0.,0.,1.));
#954 = DIRECTION('',(1.,0.,0.));
#955 = ADVANCED_FACE('',(#956,#967,#973,#980,#986,#989),#995,.T.);
#956 = FACE_BOUND('',#957,.T.);
#957 = EDGE_LOOP('',(#958));
#958 = ORIENTED_EDGE('',*,*,#959,.T.);
#959 = EDGE_CURVE('',#960,#960,#962,.T.);
#960 = VERTEX_POINT('',#961);
#961 = CARTESIAN_POINT('',(85.418763904484,0.,0.));
#962 = CIRCLE('',#963,85.418763904484);
#963 = AXIS2_PLACEMENT_3D('',#964,#965,#966);
#964 = CARTESIAN_POINT('',(0.,0.,0.));
#965 = DIRECTION('',(0.,0.,-1.));
#966 = DIRECTION('',(1.,0.,0.));
#967 = FACE_BOUND('',#968,.T.);
#968 = EDGE_LOOP('',(#969,#970,#971,#972));
#969 = ORIENTED_EDGE('',*,*,#618,.T.);
#970 = ORIENTED_EDGE('',*,*,#426,.T.);
#971 = ORIENTED_EDGE('',*,*,#462,.F.);
#972 = ORIENTED_EDGE('',*,*,#488,.F.);
#973 = FACE_BOUND('',#974,.T.);
#974 = EDGE_LOOP('',(#975,#976,#977,#978,#979));
#975 = ORIENTED_EDGE('',*,*,#733,.T.);
#976 = ORIENTED_EDGE('',*,*,#809,.T.);
#977 = ORIENTED_EDGE('',*,*,#824,.F.);
#978 = ORIENTED_EDGE('',*,*,#772,.F.);
#979 = ORIENTED_EDGE('',*,*,#781,.F.);
#980 = FACE_BOUND('',#981,.T.);
#981 = EDGE_LOOP('',(#982,#983,#984,#985));
#982 = ORIENTED_EDGE('',*,*,#635,.T.);
#983 = ORIENTED_EDGE('',*,*,#701,.T.);
#984 = ORIENTED_EDGE('',*,*,#716,.F.);
#985 = ORIENTED_EDGE('',*,*,#666,.F.);
#986 = FACE_BOUND('',#987,.T.);
#987 = EDGE_LOOP('',(#988));
#988 = ORIENTED_EDGE('',*,*,#559,.T.);
#989 = FACE_BOUND('',#990,.T.);
#990 = EDGE_LOOP('',(#991,#992,#993,#994));
#991 = ORIENTED_EDGE('',*,*,#841,.T.);
#992 = ORIENTED_EDGE('',*,*,#907,.T.);
#993 = ORIENTED_EDGE('',*,*,#922,.F.);
#994 = ORIENTED_EDGE('',*,*,#872,.F.);
#995 = PLANE('',#996);
#996 = AXIS2_PLACEMENT_3D('',#997,#998,#999);
#997 = CARTESIAN_POINT('',(-3.764136278818E-15,-3.226879853861E-17,0.));
#998 = DIRECTION('',(-0.,-0.,-1.));
#999 = DIRECTION('',(-1.,0.,0.));
#1000 = ADVANCED_FACE('',(#1001),#1007,.T.);
#1001 = FACE_BOUND('',#1002,.T.);
#1002 = EDGE_LOOP('',(#1003,#1004,#1005,#1006));
#1003 = ORIENTED_EDGE('',*,*,#583,.T.);
#1004 = ORIENTED_EDGE('',*,*,#603,.T.);
#1005 = ORIENTED_EDGE('',*,*,#512,.F.);
#1006 = ORIENTED_EDGE('',*,*,#537,.T.);
#1007 = PLANE('',#1008);
#1008 = AXIS2_PLACEMENT_3D('',#1009,#1010,#1011);
#1009 = CARTESIAN_POINT('',(0.,-64.0068595,3.));
#1010 = DIRECTION('',(0.,0.,1.));
#1011 = DIRECTION('',(1.,0.,0.));
#1012 = ADVANCED_FACE('',(#1013),#1024,.F.);
#1013 = FACE_BOUND('',#1014,.T.);
#1014 = EDGE_LOOP('',(#1015,#1021,#1022,#1023));
#1015 = ORIENTED_EDGE('',*,*,#1016,.T.);
#1016 = EDGE_CURVE('',#960,#943,#1017,.T.);
#1017 = LINE('',#1018,#1019);
#1018 = CARTESIAN_POINT('',(85.418763904484,0.,0.));
#1019 = VECTOR('',#1020,1.);
#1020 = DIRECTION('',(0.,0.,-1.));
#1021 = ORIENTED_EDGE('',*,*,#942,.T.);
#1022 = ORIENTED_EDGE('',*,*,#1016,.F.);
#1023 = ORIENTED_EDGE('',*,*,#959,.F.);
#1024 = CYLINDRICAL_SURFACE('',#1025,85.418763904484);
#1025 = AXIS2_PLACEMENT_3D('',#1026,#1027,#1028);
#1026 = CARTESIAN_POINT('',(0.,0.,0.));
#1027 = DIRECTION('',(-0.,-0.,1.));
#1028 = DIRECTION('',(1.,0.,0.));
#1029 = ( GEOMETRIC_REPRESENTATION_CONTEXT(3) 
GLOBAL_UNCERTAINTY_ASSIGNED_CONTEXT((#1033)) 
GLOBAL_UNIT_ASSIGNED_CONTEXT((#1030,#1031,#1032)) REPRESENTATION_CONTEXT
('Context #1','3D Context with UNIT and UNCERTAINTY') );
#1030 = ( LENGTH_UNIT() NAMED_UNIT(*) SI_UNIT(.MILLI.,.METRE.) );
#1031 = ( NAMED_UNIT(*) PLANE_ANGLE_UNIT() SI_UNIT($,.RADIAN.) );
#1032 = ( NAMED_UNIT(*) SI_UNIT($,.STERADIAN.) SOLID_ANGLE_UNIT() );
#1033 = UNCERTAINTY_MEASURE_WITH_UNIT(LENGTH_MEASURE(1.E-07),#1030,
  'distance_accuracy_value','confusion accuracy');
#1034 = PRODUCT_RELATED_PRODUCT_CATEGORY('part',$,(#7));
#1035 = MECHANICAL_DESIGN_GEOMETRIC_PRESENTATION_REPRESENTATION('',(
    #1036),#1029);
#1036 = STYLED_ITEM('color',(#1037),#15);
#1037 = PRESENTATION_STYLE_ASSIGNMENT((#1038,#1044));
#1038 = SURFACE_STYLE_USAGE(.BOTH.,#1039);
#1039 = SURFACE_SIDE_STYLE('',(#1040));
#1040 = SURFACE_STYLE_FILL_AREA(#1041);
#1041 = FILL_AREA_STYLE('',(#1042));
#1042 = FILL_AREA_STYLE_COLOUR('',#1043);
#1043 = COLOUR_RGB('',0.447059003357,0.474510015008,0.501960993452);
#1044 = CURVE_STYLE('',#1045,POSITIVE_LENGTH_MEASURE(0.1),#1046);
#1045 = DRAUGHTING_PRE_DEFINED_CURVE_FONT('continuous');
#1046 = COLOUR_RGB('',9.803921802644E-02,9.803921802644E-02,
  9.803921802644E-02);
ENDSEC;
END-ISO-10303-21;
