ISO-10303-21;
HEADER;
/* Generated by software containing ST-Developer
 * from STEP Tools, Inc. (www.steptools.com) 
 */
/* OPTION: using custom renumber hook */

FILE_DESCRIPTION(
/* description */ ('STEP AP242',
'CAx-IF Rec.Pracs.---Representation and Presentation of Product Manufa
cturing Information (PMI)---4.0---2014-10-13',
'CAx-IF Rec.Pracs.---3D Tessellated Geometry---0.4---2014-09-14','2;1'),

/* implementation_level */ '2;1');

FILE_NAME(
/* name */ '67d9f4eaf45a8b6c7c829cf1',
/* time_stamp */ '2025-03-18T22:34:18Z',
/* author */ (''),
/* organization */ (''),
/* preprocessor_version */ 'ST-DEVELOPER v20',
/* originating_system */ 'ONSHAPE BY PTC INC, 1.195',
/* authorisation */ '  ');

FILE_SCHEMA (('AP242_MANAGED_MODEL_BASED_3D_ENGINEERING_MIM_LF { 1 0 10303 442 1 1 4 }'));
ENDSEC;

DATA;
#10=SHAPE_REPRESENTATION_RELATIONSHIP('','',#588,#11);
#11=ADVANCED_BREP_SHAPE_REPRESENTATION('',(#586),#1009);
#12=CONICAL_SURFACE('',#659,0.087941240129127,0.343023940420704);
#13=ELLIPSE('',#628,0.0653049624554362,0.032400334742073);
#14=ELLIPSE('',#630,0.0653049624554362,0.032400334742073);
#15=ELLIPSE('',#633,0.101291610302628,0.050254712);
#16=ELLIPSE('',#634,0.101291610302628,0.050254712);
#17=ELLIPSE('',#639,0.156206243873284,0.0775);
#18=ELLIPSE('',#641,0.156206243873284,0.0775);
#19=ELLIPSE('',#653,0.187447492647941,0.093);
#20=ELLIPSE('',#654,0.187447492647941,0.093);
#21=LINE('',#852,#61);
#22=LINE('',#856,#62);
#23=LINE('',#858,#63);
#24=LINE('',#863,#64);
#25=LINE('',#868,#65);
#26=LINE('',#873,#66);
#27=LINE('',#876,#67);
#28=LINE('',#881,#68);
#29=LINE('',#884,#69);
#30=LINE('',#889,#70);
#31=LINE('',#896,#71);
#32=LINE('',#898,#72);
#33=LINE('',#900,#73);
#34=LINE('',#902,#74);
#35=LINE('',#908,#75);
#36=LINE('',#910,#76);
#37=LINE('',#912,#77);
#38=LINE('',#914,#78);
#39=LINE('',#916,#79);
#40=LINE('',#918,#80);
#41=LINE('',#924,#81);
#42=LINE('',#926,#82);
#43=LINE('',#928,#83);
#44=LINE('',#930,#84);
#45=LINE('',#932,#85);
#46=LINE('',#934,#86);
#47=LINE('',#940,#87);
#48=LINE('',#942,#88);
#49=LINE('',#944,#89);
#50=LINE('',#946,#90);
#51=LINE('',#948,#91);
#52=LINE('',#963,#92);
#53=LINE('',#965,#93);
#54=LINE('',#967,#94);
#55=LINE('',#984,#95);
#56=LINE('',#988,#96);
#57=LINE('',#993,#97);
#58=LINE('',#994,#98);
#59=LINE('',#995,#99);
#60=LINE('',#996,#100);
#61=VECTOR('',#672,1.);
#62=VECTOR('',#675,1.);
#63=VECTOR('',#678,1.);
#64=VECTOR('',#681,1.);
#65=VECTOR('',#686,1.);
#66=VECTOR('',#689,1.);
#67=VECTOR('',#692,1.);
#68=VECTOR('',#695,1.);
#69=VECTOR('',#698,1.);
#70=VECTOR('',#701,1.);
#71=VECTOR('',#710,1.);
#72=VECTOR('',#711,1.);
#73=VECTOR('',#712,1.);
#74=VECTOR('',#715,1.);
#75=VECTOR('',#722,1.);
#76=VECTOR('',#725,1.);
#77=VECTOR('',#728,1.);
#78=VECTOR('',#729,1.);
#79=VECTOR('',#730,1.);
#80=VECTOR('',#733,1.);
#81=VECTOR('',#740,1.);
#82=VECTOR('',#743,1.);
#83=VECTOR('',#746,1.);
#84=VECTOR('',#747,1.);
#85=VECTOR('',#748,1.);
#86=VECTOR('',#751,1.);
#87=VECTOR('',#758,1.);
#88=VECTOR('',#761,1.);
#89=VECTOR('',#764,1.);
#90=VECTOR('',#765,1.);
#91=VECTOR('',#766,1.);
#92=VECTOR('',#785,1.);
#93=VECTOR('',#788,1.);
#94=VECTOR('',#789,1.);
#95=VECTOR('',#810,1.);
#96=VECTOR('',#813,1.);
#97=VECTOR('',#818,1.);
#98=VECTOR('',#819,1.);
#99=VECTOR('',#820,1.);
#100=VECTOR('',#821,1.);
#101=PLANE('',#593);
#102=PLANE('',#596);
#103=PLANE('',#606);
#104=PLANE('',#608);
#105=PLANE('',#613);
#106=PLANE('',#614);
#107=PLANE('',#619);
#108=PLANE('',#620);
#109=PLANE('',#625);
#110=PLANE('',#626);
#111=PLANE('',#636);
#112=PLANE('',#646);
#113=PLANE('',#648);
#114=PLANE('',#650);
#115=PLANE('',#655);
#116=PLANE('',#656);
#117=PLANE('',#657);
#118=PLANE('',#658);
#119=ORIENTED_EDGE('',*,*,#277,.T.);
#120=ORIENTED_EDGE('',*,*,#278,.F.);
#121=ORIENTED_EDGE('',*,*,#279,.T.);
#122=ORIENTED_EDGE('',*,*,#280,.T.);
#123=ORIENTED_EDGE('',*,*,#281,.F.);
#124=ORIENTED_EDGE('',*,*,#282,.T.);
#125=ORIENTED_EDGE('',*,*,#283,.T.);
#126=ORIENTED_EDGE('',*,*,#284,.T.);
#127=ORIENTED_EDGE('',*,*,#285,.F.);
#128=ORIENTED_EDGE('',*,*,#286,.F.);
#129=ORIENTED_EDGE('',*,*,#287,.T.);
#130=ORIENTED_EDGE('',*,*,#288,.T.);
#131=ORIENTED_EDGE('',*,*,#289,.T.);
#132=ORIENTED_EDGE('',*,*,#290,.F.);
#133=ORIENTED_EDGE('',*,*,#291,.F.);
#134=ORIENTED_EDGE('',*,*,#292,.T.);
#135=ORIENTED_EDGE('',*,*,#293,.T.);
#136=ORIENTED_EDGE('',*,*,#294,.F.);
#137=ORIENTED_EDGE('',*,*,#295,.F.);
#138=ORIENTED_EDGE('',*,*,#296,.T.);
#139=ORIENTED_EDGE('',*,*,#297,.T.);
#140=ORIENTED_EDGE('',*,*,#298,.F.);
#141=ORIENTED_EDGE('',*,*,#299,.F.);
#142=ORIENTED_EDGE('',*,*,#278,.T.);
#143=ORIENTED_EDGE('',*,*,#300,.T.);
#144=ORIENTED_EDGE('',*,*,#277,.F.);
#145=ORIENTED_EDGE('',*,*,#301,.T.);
#146=ORIENTED_EDGE('',*,*,#302,.F.);
#147=ORIENTED_EDGE('',*,*,#303,.T.);
#148=ORIENTED_EDGE('',*,*,#285,.T.);
#149=ORIENTED_EDGE('',*,*,#304,.T.);
#150=ORIENTED_EDGE('',*,*,#305,.T.);
#151=ORIENTED_EDGE('',*,*,#301,.F.);
#152=ORIENTED_EDGE('',*,*,#284,.F.);
#153=ORIENTED_EDGE('',*,*,#303,.F.);
#154=ORIENTED_EDGE('',*,*,#306,.F.);
#155=ORIENTED_EDGE('',*,*,#307,.T.);
#156=ORIENTED_EDGE('',*,*,#286,.T.);
#157=ORIENTED_EDGE('',*,*,#283,.F.);
#158=ORIENTED_EDGE('',*,*,#307,.F.);
#159=ORIENTED_EDGE('',*,*,#308,.T.);
#160=ORIENTED_EDGE('',*,*,#304,.F.);
#161=ORIENTED_EDGE('',*,*,#309,.T.);
#162=ORIENTED_EDGE('',*,*,#310,.F.);
#163=ORIENTED_EDGE('',*,*,#311,.T.);
#164=ORIENTED_EDGE('',*,*,#294,.T.);
#165=ORIENTED_EDGE('',*,*,#312,.T.);
#166=ORIENTED_EDGE('',*,*,#313,.T.);
#167=ORIENTED_EDGE('',*,*,#309,.F.);
#168=ORIENTED_EDGE('',*,*,#293,.F.);
#169=ORIENTED_EDGE('',*,*,#311,.F.);
#170=ORIENTED_EDGE('',*,*,#314,.F.);
#171=ORIENTED_EDGE('',*,*,#315,.T.);
#172=ORIENTED_EDGE('',*,*,#295,.T.);
#173=ORIENTED_EDGE('',*,*,#292,.F.);
#174=ORIENTED_EDGE('',*,*,#315,.F.);
#175=ORIENTED_EDGE('',*,*,#316,.T.);
#176=ORIENTED_EDGE('',*,*,#312,.F.);
#177=ORIENTED_EDGE('',*,*,#317,.T.);
#178=ORIENTED_EDGE('',*,*,#318,.F.);
#179=ORIENTED_EDGE('',*,*,#319,.T.);
#180=ORIENTED_EDGE('',*,*,#290,.T.);
#181=ORIENTED_EDGE('',*,*,#320,.T.);
#182=ORIENTED_EDGE('',*,*,#321,.T.);
#183=ORIENTED_EDGE('',*,*,#317,.F.);
#184=ORIENTED_EDGE('',*,*,#289,.F.);
#185=ORIENTED_EDGE('',*,*,#319,.F.);
#186=ORIENTED_EDGE('',*,*,#322,.F.);
#187=ORIENTED_EDGE('',*,*,#323,.T.);
#188=ORIENTED_EDGE('',*,*,#291,.T.);
#189=ORIENTED_EDGE('',*,*,#288,.F.);
#190=ORIENTED_EDGE('',*,*,#323,.F.);
#191=ORIENTED_EDGE('',*,*,#324,.T.);
#192=ORIENTED_EDGE('',*,*,#320,.F.);
#193=ORIENTED_EDGE('',*,*,#296,.F.);
#194=ORIENTED_EDGE('',*,*,#325,.F.);
#195=ORIENTED_EDGE('',*,*,#326,.T.);
#196=ORIENTED_EDGE('',*,*,#327,.F.);
#197=ORIENTED_EDGE('',*,*,#279,.F.);
#198=ORIENTED_EDGE('',*,*,#328,.T.);
#199=ORIENTED_EDGE('',*,*,#329,.T.);
#200=ORIENTED_EDGE('',*,*,#330,.T.);
#201=ORIENTED_EDGE('',*,*,#287,.F.);
#202=ORIENTED_EDGE('',*,*,#331,.F.);
#203=ORIENTED_EDGE('',*,*,#332,.T.);
#204=ORIENTED_EDGE('',*,*,#281,.T.);
#205=ORIENTED_EDGE('',*,*,#333,.T.);
#206=ORIENTED_EDGE('',*,*,#334,.F.);
#207=ORIENTED_EDGE('',*,*,#325,.T.);
#208=ORIENTED_EDGE('',*,*,#299,.T.);
#209=ORIENTED_EDGE('',*,*,#335,.F.);
#210=ORIENTED_EDGE('',*,*,#336,.T.);
#211=ORIENTED_EDGE('',*,*,#337,.F.);
#212=ORIENTED_EDGE('',*,*,#335,.T.);
#213=ORIENTED_EDGE('',*,*,#298,.T.);
#214=ORIENTED_EDGE('',*,*,#297,.F.);
#215=ORIENTED_EDGE('',*,*,#327,.T.);
#216=ORIENTED_EDGE('',*,*,#338,.T.);
#217=ORIENTED_EDGE('',*,*,#339,.T.);
#218=ORIENTED_EDGE('',*,*,#340,.F.);
#219=ORIENTED_EDGE('',*,*,#341,.T.);
#220=ORIENTED_EDGE('',*,*,#342,.T.);
#221=ORIENTED_EDGE('',*,*,#336,.F.);
#222=ORIENTED_EDGE('',*,*,#343,.T.);
#223=ORIENTED_EDGE('',*,*,#344,.T.);
#224=ORIENTED_EDGE('',*,*,#340,.T.);
#225=ORIENTED_EDGE('',*,*,#345,.T.);
#226=ORIENTED_EDGE('',*,*,#346,.F.);
#227=ORIENTED_EDGE('',*,*,#347,.T.);
#228=ORIENTED_EDGE('',*,*,#308,.F.);
#229=ORIENTED_EDGE('',*,*,#306,.T.);
#230=ORIENTED_EDGE('',*,*,#302,.T.);
#231=ORIENTED_EDGE('',*,*,#305,.F.);
#232=ORIENTED_EDGE('',*,*,#316,.F.);
#233=ORIENTED_EDGE('',*,*,#314,.T.);
#234=ORIENTED_EDGE('',*,*,#310,.T.);
#235=ORIENTED_EDGE('',*,*,#313,.F.);
#236=ORIENTED_EDGE('',*,*,#324,.F.);
#237=ORIENTED_EDGE('',*,*,#322,.T.);
#238=ORIENTED_EDGE('',*,*,#318,.T.);
#239=ORIENTED_EDGE('',*,*,#321,.F.);
#240=ORIENTED_EDGE('',*,*,#348,.T.);
#241=ORIENTED_EDGE('',*,*,#349,.F.);
#242=ORIENTED_EDGE('',*,*,#338,.F.);
#243=ORIENTED_EDGE('',*,*,#326,.F.);
#244=ORIENTED_EDGE('',*,*,#334,.T.);
#245=ORIENTED_EDGE('',*,*,#350,.F.);
#246=ORIENTED_EDGE('',*,*,#329,.F.);
#247=ORIENTED_EDGE('',*,*,#351,.F.);
#248=ORIENTED_EDGE('',*,*,#331,.T.);
#249=ORIENTED_EDGE('',*,*,#337,.T.);
#250=ORIENTED_EDGE('',*,*,#342,.F.);
#251=ORIENTED_EDGE('',*,*,#352,.F.);
#252=ORIENTED_EDGE('',*,*,#344,.F.);
#253=ORIENTED_EDGE('',*,*,#353,.F.);
#254=ORIENTED_EDGE('',*,*,#346,.T.);
#255=ORIENTED_EDGE('',*,*,#354,.T.);
#256=ORIENTED_EDGE('',*,*,#348,.F.);
#257=ORIENTED_EDGE('',*,*,#355,.T.);
#258=ORIENTED_EDGE('',*,*,#353,.T.);
#259=ORIENTED_EDGE('',*,*,#330,.F.);
#260=ORIENTED_EDGE('',*,*,#350,.T.);
#261=ORIENTED_EDGE('',*,*,#333,.F.);
#262=ORIENTED_EDGE('',*,*,#280,.F.);
#263=ORIENTED_EDGE('',*,*,#332,.F.);
#264=ORIENTED_EDGE('',*,*,#351,.T.);
#265=ORIENTED_EDGE('',*,*,#328,.F.);
#266=ORIENTED_EDGE('',*,*,#282,.F.);
#267=ORIENTED_EDGE('',*,*,#355,.F.);
#268=ORIENTED_EDGE('',*,*,#352,.T.);
#269=ORIENTED_EDGE('',*,*,#341,.F.);
#270=ORIENTED_EDGE('',*,*,#347,.F.);
#271=ORIENTED_EDGE('',*,*,#339,.F.);
#272=ORIENTED_EDGE('',*,*,#349,.T.);
#273=ORIENTED_EDGE('',*,*,#354,.F.);
#274=ORIENTED_EDGE('',*,*,#345,.F.);
#275=ORIENTED_EDGE('',*,*,#343,.F.);
#276=ORIENTED_EDGE('',*,*,#300,.F.);
#277=EDGE_CURVE('',#356,#356,#411,.T.);
#278=EDGE_CURVE('',#357,#357,#412,.T.);
#279=EDGE_CURVE('',#358,#359,#413,.T.);
#280=EDGE_CURVE('',#359,#360,#21,.T.);
#281=EDGE_CURVE('',#361,#360,#414,.T.);
#282=EDGE_CURVE('',#361,#358,#22,.T.);
#283=EDGE_CURVE('',#362,#363,#23,.T.);
#284=EDGE_CURVE('',#363,#364,#415,.T.);
#285=EDGE_CURVE('',#365,#364,#24,.T.);
#286=EDGE_CURVE('',#362,#365,#416,.T.);
#287=EDGE_CURVE('',#366,#366,#417,.T.);
#288=EDGE_CURVE('',#367,#368,#25,.T.);
#289=EDGE_CURVE('',#368,#369,#418,.T.);
#290=EDGE_CURVE('',#370,#369,#26,.T.);
#291=EDGE_CURVE('',#367,#370,#419,.T.);
#292=EDGE_CURVE('',#371,#372,#27,.T.);
#293=EDGE_CURVE('',#372,#373,#420,.T.);
#294=EDGE_CURVE('',#374,#373,#28,.T.);
#295=EDGE_CURVE('',#371,#374,#421,.T.);
#296=EDGE_CURVE('',#375,#376,#29,.T.);
#297=EDGE_CURVE('',#376,#377,#422,.T.);
#298=EDGE_CURVE('',#378,#377,#30,.T.);
#299=EDGE_CURVE('',#375,#378,#423,.T.);
#300=EDGE_CURVE('',#379,#379,#424,.F.);
#301=EDGE_CURVE('',#364,#380,#31,.T.);
#302=EDGE_CURVE('',#381,#380,#32,.T.);
#303=EDGE_CURVE('',#381,#365,#33,.T.);
#304=EDGE_CURVE('',#363,#382,#34,.T.);
#305=EDGE_CURVE('',#382,#380,#425,.T.);
#306=EDGE_CURVE('',#383,#381,#426,.T.);
#307=EDGE_CURVE('',#383,#362,#35,.T.);
#308=EDGE_CURVE('',#383,#382,#36,.T.);
#309=EDGE_CURVE('',#373,#384,#37,.T.);
#310=EDGE_CURVE('',#385,#384,#38,.T.);
#311=EDGE_CURVE('',#385,#374,#39,.T.);
#312=EDGE_CURVE('',#372,#386,#40,.T.);
#313=EDGE_CURVE('',#386,#384,#427,.T.);
#314=EDGE_CURVE('',#387,#385,#428,.T.);
#315=EDGE_CURVE('',#387,#371,#41,.T.);
#316=EDGE_CURVE('',#387,#386,#42,.T.);
#317=EDGE_CURVE('',#369,#388,#43,.T.);
#318=EDGE_CURVE('',#389,#388,#44,.T.);
#319=EDGE_CURVE('',#389,#370,#45,.T.);
#320=EDGE_CURVE('',#368,#390,#46,.T.);
#321=EDGE_CURVE('',#390,#388,#429,.T.);
#322=EDGE_CURVE('',#391,#389,#430,.T.);
#323=EDGE_CURVE('',#391,#367,#47,.T.);
#324=EDGE_CURVE('',#391,#390,#48,.T.);
#325=EDGE_CURVE('',#392,#375,#49,.T.);
#326=EDGE_CURVE('',#392,#393,#50,.T.);
#327=EDGE_CURVE('',#376,#393,#51,.T.);
#328=EDGE_CURVE('',#358,#394,#13,.F.);
#329=EDGE_CURVE('',#394,#395,#431,.T.);
#330=EDGE_CURVE('',#395,#359,#14,.F.);
#331=EDGE_CURVE('',#396,#397,#432,.T.);
#332=EDGE_CURVE('',#396,#361,#15,.T.);
#333=EDGE_CURVE('',#360,#398,#16,.T.);
#334=EDGE_CURVE('',#392,#398,#433,.T.);
#335=EDGE_CURVE('',#397,#378,#52,.T.);
#336=EDGE_CURVE('',#377,#399,#53,.T.);
#337=EDGE_CURVE('',#397,#399,#54,.T.);
#338=EDGE_CURVE('',#393,#400,#434,.T.);
#339=EDGE_CURVE('',#400,#401,#17,.F.);
#340=EDGE_CURVE('',#402,#401,#435,.T.);
#341=EDGE_CURVE('',#402,#403,#18,.F.);
#342=EDGE_CURVE('',#403,#399,#436,.T.);
#343=EDGE_CURVE('',#404,#404,#437,.T.);
#344=EDGE_CURVE('',#405,#405,#438,.T.);
#345=EDGE_CURVE('',#401,#406,#55,.T.);
#346=EDGE_CURVE('',#407,#406,#439,.T.);
#347=EDGE_CURVE('',#407,#402,#56,.T.);
#348=EDGE_CURVE('',#408,#409,#440,.T.);
#349=EDGE_CURVE('',#400,#409,#57,.T.);
#350=EDGE_CURVE('',#395,#398,#58,.T.);
#351=EDGE_CURVE('',#396,#394,#59,.T.);
#352=EDGE_CURVE('',#408,#403,#60,.T.);
#353=EDGE_CURVE('',#410,#410,#441,.T.);
#354=EDGE_CURVE('',#406,#409,#19,.T.);
#355=EDGE_CURVE('',#408,#407,#20,.T.);
#356=VERTEX_POINT('',#845);
#357=VERTEX_POINT('',#847);
#358=VERTEX_POINT('',#850);
#359=VERTEX_POINT('',#851);
#360=VERTEX_POINT('',#853);
#361=VERTEX_POINT('',#855);
#362=VERTEX_POINT('',#859);
#363=VERTEX_POINT('',#860);
#364=VERTEX_POINT('',#862);
#365=VERTEX_POINT('',#864);
#366=VERTEX_POINT('',#867);
#367=VERTEX_POINT('',#869);
#368=VERTEX_POINT('',#870);
#369=VERTEX_POINT('',#872);
#370=VERTEX_POINT('',#874);
#371=VERTEX_POINT('',#877);
#372=VERTEX_POINT('',#878);
#373=VERTEX_POINT('',#880);
#374=VERTEX_POINT('',#882);
#375=VERTEX_POINT('',#885);
#376=VERTEX_POINT('',#886);
#377=VERTEX_POINT('',#888);
#378=VERTEX_POINT('',#890);
#379=VERTEX_POINT('',#894);
#380=VERTEX_POINT('',#897);
#381=VERTEX_POINT('',#899);
#382=VERTEX_POINT('',#903);
#383=VERTEX_POINT('',#907);
#384=VERTEX_POINT('',#913);
#385=VERTEX_POINT('',#915);
#386=VERTEX_POINT('',#919);
#387=VERTEX_POINT('',#923);
#388=VERTEX_POINT('',#929);
#389=VERTEX_POINT('',#931);
#390=VERTEX_POINT('',#935);
#391=VERTEX_POINT('',#939);
#392=VERTEX_POINT('',#945);
#393=VERTEX_POINT('',#947);
#394=VERTEX_POINT('',#951);
#395=VERTEX_POINT('',#953);
#396=VERTEX_POINT('',#957);
#397=VERTEX_POINT('',#958);
#398=VERTEX_POINT('',#961);
#399=VERTEX_POINT('',#966);
#400=VERTEX_POINT('',#970);
#401=VERTEX_POINT('',#972);
#402=VERTEX_POINT('',#974);
#403=VERTEX_POINT('',#976);
#404=VERTEX_POINT('',#980);
#405=VERTEX_POINT('',#982);
#406=VERTEX_POINT('',#985);
#407=VERTEX_POINT('',#987);
#408=VERTEX_POINT('',#991);
#409=VERTEX_POINT('',#992);
#410=VERTEX_POINT('',#999);
#411=CIRCLE('',#591,0.085418763904484);
#412=CIRCLE('',#592,0.085418763904484);
#413=CIRCLE('',#594,0.032400334742073);
#414=CIRCLE('',#595,0.050254712);
#415=CIRCLE('',#597,0.0775);
#416=CIRCLE('',#598,0.050254712);
#417=CIRCLE('',#599,0.032400334742073);
#418=CIRCLE('',#600,0.0775);
#419=CIRCLE('',#601,0.050254712);
#420=CIRCLE('',#602,0.0775);
#421=CIRCLE('',#603,0.050254712);
#422=CIRCLE('',#604,0.0775);
#423=CIRCLE('',#605,0.050254712);
#424=CIRCLE('',#607,0.087941240129127);
#425=CIRCLE('',#610,0.0775);
#426=CIRCLE('',#612,0.050254712);
#427=CIRCLE('',#616,0.0775);
#428=CIRCLE('',#618,0.050254712);
#429=CIRCLE('',#622,0.0775);
#430=CIRCLE('',#624,0.050254712);
#431=CIRCLE('',#629,0.032400334742073);
#432=CIRCLE('',#632,0.050254712);
#433=CIRCLE('',#635,0.050254712);
#434=CIRCLE('',#638,0.0775);
#435=CIRCLE('',#640,0.0775);
#436=CIRCLE('',#642,0.0775);
#437=CIRCLE('',#644,0.092941240129127);
#438=CIRCLE('',#645,0.092941240129127);
#439=CIRCLE('',#647,0.093);
#440=CIRCLE('',#649,0.093);
#441=CIRCLE('',#651,0.093);
#442=EDGE_LOOP('',(#119));
#443=EDGE_LOOP('',(#120));
#444=EDGE_LOOP('',(#121,#122,#123,#124));
#445=EDGE_LOOP('',(#125,#126,#127,#128));
#446=EDGE_LOOP('',(#129));
#447=EDGE_LOOP('',(#130,#131,#132,#133));
#448=EDGE_LOOP('',(#134,#135,#136,#137));
#449=EDGE_LOOP('',(#138,#139,#140,#141));
#450=EDGE_LOOP('',(#142));
#451=EDGE_LOOP('',(#143));
#452=EDGE_LOOP('',(#144));
#453=EDGE_LOOP('',(#145,#146,#147,#148));
#454=EDGE_LOOP('',(#149,#150,#151,#152));
#455=EDGE_LOOP('',(#153,#154,#155,#156));
#456=EDGE_LOOP('',(#157,#158,#159,#160));
#457=EDGE_LOOP('',(#161,#162,#163,#164));
#458=EDGE_LOOP('',(#165,#166,#167,#168));
#459=EDGE_LOOP('',(#169,#170,#171,#172));
#460=EDGE_LOOP('',(#173,#174,#175,#176));
#461=EDGE_LOOP('',(#177,#178,#179,#180));
#462=EDGE_LOOP('',(#181,#182,#183,#184));
#463=EDGE_LOOP('',(#185,#186,#187,#188));
#464=EDGE_LOOP('',(#189,#190,#191,#192));
#465=EDGE_LOOP('',(#193,#194,#195,#196));
#466=EDGE_LOOP('',(#197,#198,#199,#200));
#467=EDGE_LOOP('',(#201));
#468=EDGE_LOOP('',(#202,#203,#204,#205,#206,#207,#208,#209));
#469=EDGE_LOOP('',(#210,#211,#212,#213));
#470=EDGE_LOOP('',(#214,#215,#216,#217,#218,#219,#220,#221));
#471=EDGE_LOOP('',(#222));
#472=EDGE_LOOP('',(#223));
#473=EDGE_LOOP('',(#224,#225,#226,#227));
#474=EDGE_LOOP('',(#228,#229,#230,#231));
#475=EDGE_LOOP('',(#232,#233,#234,#235));
#476=EDGE_LOOP('',(#236,#237,#238,#239));
#477=EDGE_LOOP('',(#240,#241,#242,#243,#244,#245,#246,#247,#248,#249,#250,
#251));
#478=EDGE_LOOP('',(#252));
#479=EDGE_LOOP('',(#253));
#480=EDGE_LOOP('',(#254,#255,#256,#257));
#481=EDGE_LOOP('',(#258));
#482=EDGE_LOOP('',(#259,#260,#261,#262));
#483=EDGE_LOOP('',(#263,#264,#265,#266));
#484=EDGE_LOOP('',(#267,#268,#269,#270));
#485=EDGE_LOOP('',(#271,#272,#273,#274));
#486=EDGE_LOOP('',(#275));
#487=EDGE_LOOP('',(#276));
#488=FACE_BOUND('',#442,.T.);
#489=FACE_BOUND('',#443,.T.);
#490=FACE_BOUND('',#444,.T.);
#491=FACE_BOUND('',#445,.T.);
#492=FACE_BOUND('',#446,.T.);
#493=FACE_BOUND('',#447,.T.);
#494=FACE_BOUND('',#448,.T.);
#495=FACE_BOUND('',#449,.T.);
#496=FACE_BOUND('',#450,.T.);
#497=FACE_BOUND('',#451,.T.);
#498=FACE_BOUND('',#452,.T.);
#499=FACE_BOUND('',#453,.T.);
#500=FACE_BOUND('',#454,.T.);
#501=FACE_BOUND('',#455,.T.);
#502=FACE_BOUND('',#456,.T.);
#503=FACE_BOUND('',#457,.T.);
#504=FACE_BOUND('',#458,.T.);
#505=FACE_BOUND('',#459,.T.);
#506=FACE_BOUND('',#460,.T.);
#507=FACE_BOUND('',#461,.T.);
#508=FACE_BOUND('',#462,.T.);
#509=FACE_BOUND('',#463,.T.);
#510=FACE_BOUND('',#464,.T.);
#511=FACE_BOUND('',#465,.T.);
#512=FACE_BOUND('',#466,.T.);
#513=FACE_BOUND('',#467,.T.);
#514=FACE_BOUND('',#468,.T.);
#515=FACE_BOUND('',#469,.T.);
#516=FACE_BOUND('',#470,.T.);
#517=FACE_BOUND('',#471,.T.);
#518=FACE_BOUND('',#472,.T.);
#519=FACE_BOUND('',#473,.T.);
#520=FACE_BOUND('',#474,.T.);
#521=FACE_BOUND('',#475,.T.);
#522=FACE_BOUND('',#476,.T.);
#523=FACE_BOUND('',#477,.T.);
#524=FACE_BOUND('',#478,.T.);
#525=FACE_BOUND('',#479,.T.);
#526=FACE_BOUND('',#480,.T.);
#527=FACE_BOUND('',#481,.T.);
#528=FACE_BOUND('',#482,.T.);
#529=FACE_BOUND('',#483,.T.);
#530=FACE_BOUND('',#484,.T.);
#531=FACE_BOUND('',#485,.T.);
#532=FACE_BOUND('',#486,.T.);
#533=FACE_BOUND('',#487,.T.);
#534=CYLINDRICAL_SURFACE('',#590,0.085418763904484);
#535=CYLINDRICAL_SURFACE('',#609,0.0775);
#536=CYLINDRICAL_SURFACE('',#611,0.050254712);
#537=CYLINDRICAL_SURFACE('',#615,0.0775);
#538=CYLINDRICAL_SURFACE('',#617,0.050254712);
#539=CYLINDRICAL_SURFACE('',#621,0.0775);
#540=CYLINDRICAL_SURFACE('',#623,0.050254712);
#541=CYLINDRICAL_SURFACE('',#627,0.032400334742073);
#542=CYLINDRICAL_SURFACE('',#631,0.050254712);
#543=CYLINDRICAL_SURFACE('',#637,0.0775);
#544=CYLINDRICAL_SURFACE('',#643,0.092941240129127);
#545=CYLINDRICAL_SURFACE('',#652,0.093);
#546=ADVANCED_FACE('',(#488,#489),#534,.F.);
#547=ADVANCED_FACE('',(#490),#101,.T.);
#548=ADVANCED_FACE('',(#491,#492,#493,#494,#495,#496),#102,.T.);
#549=ADVANCED_FACE('',(#497,#498),#103,.F.);
#550=ADVANCED_FACE('',(#499),#104,.F.);
#551=ADVANCED_FACE('',(#500),#535,.F.);
#552=ADVANCED_FACE('',(#501),#536,.T.);
#553=ADVANCED_FACE('',(#502),#105,.T.);
#554=ADVANCED_FACE('',(#503),#106,.F.);
#555=ADVANCED_FACE('',(#504),#537,.F.);
#556=ADVANCED_FACE('',(#505),#538,.T.);
#557=ADVANCED_FACE('',(#506),#107,.T.);
#558=ADVANCED_FACE('',(#507),#108,.F.);
#559=ADVANCED_FACE('',(#508),#539,.F.);
#560=ADVANCED_FACE('',(#509),#540,.T.);
#561=ADVANCED_FACE('',(#510),#109,.T.);
#562=ADVANCED_FACE('',(#511),#110,.T.);
#563=ADVANCED_FACE('',(#512,#513),#541,.F.);
#564=ADVANCED_FACE('',(#514),#542,.T.);
#565=ADVANCED_FACE('',(#515),#111,.F.);
#566=ADVANCED_FACE('',(#516),#543,.F.);
#567=ADVANCED_FACE('',(#517,#518),#544,.T.);
#568=ADVANCED_FACE('',(#519),#112,.T.);
#569=ADVANCED_FACE('',(#520,#521,#522,#523),#113,.T.);
#570=ADVANCED_FACE('',(#524,#525),#114,.T.);
#571=ADVANCED_FACE('',(#526,#527),#545,.T.);
#572=ADVANCED_FACE('',(#528),#115,.F.);
#573=ADVANCED_FACE('',(#529),#116,.F.);
#574=ADVANCED_FACE('',(#530),#117,.F.);
#575=ADVANCED_FACE('',(#531),#118,.F.);
#576=ADVANCED_FACE('',(#532,#533),#12,.T.);
#577=CLOSED_SHELL('',(#546,#547,#548,#549,#550,#551,#552,#553,#554,#555,
#556,#557,#558,#559,#560,#561,#562,#563,#564,#565,#566,#567,#568,#569,#570,
#571,#572,#573,#574,#575,#576));
#578=STYLED_ITEM('',(#579),#586);
#579=PRESENTATION_STYLE_ASSIGNMENT((#580));
#580=SURFACE_STYLE_USAGE(.BOTH.,#581);
#581=SURFACE_SIDE_STYLE('',(#582));
#582=SURFACE_STYLE_FILL_AREA(#583);
#583=FILL_AREA_STYLE('',(#584));
#584=FILL_AREA_STYLE_COLOUR('',#585);
#585=COLOUR_RGB('',0.0980392156862745,0.0980392156862745,0.0980392156862745);
#586=MANIFOLD_SOLID_BREP('Pad052',#577);
#587=SHAPE_DEFINITION_REPRESENTATION(#1014,#588);
#588=SHAPE_REPRESENTATION('Pad052',(#589),#1009);
#589=AXIS2_PLACEMENT_3D('',#842,#660,#661);
#590=AXIS2_PLACEMENT_3D('',#843,#662,#663);
#591=AXIS2_PLACEMENT_3D('',#844,#664,#665);
#592=AXIS2_PLACEMENT_3D('',#846,#666,#667);
#593=AXIS2_PLACEMENT_3D('',#848,#668,#669);
#594=AXIS2_PLACEMENT_3D('',#849,#670,#671);
#595=AXIS2_PLACEMENT_3D('',#854,#673,#674);
#596=AXIS2_PLACEMENT_3D('',#857,#676,#677);
#597=AXIS2_PLACEMENT_3D('',#861,#679,#680);
#598=AXIS2_PLACEMENT_3D('',#865,#682,#683);
#599=AXIS2_PLACEMENT_3D('',#866,#684,#685);
#600=AXIS2_PLACEMENT_3D('',#871,#687,#688);
#601=AXIS2_PLACEMENT_3D('',#875,#690,#691);
#602=AXIS2_PLACEMENT_3D('',#879,#693,#694);
#603=AXIS2_PLACEMENT_3D('',#883,#696,#697);
#604=AXIS2_PLACEMENT_3D('',#887,#699,#700);
#605=AXIS2_PLACEMENT_3D('',#891,#702,#703);
#606=AXIS2_PLACEMENT_3D('',#892,#704,#705);
#607=AXIS2_PLACEMENT_3D('',#893,#706,#707);
#608=AXIS2_PLACEMENT_3D('',#895,#708,#709);
#609=AXIS2_PLACEMENT_3D('',#901,#713,#714);
#610=AXIS2_PLACEMENT_3D('',#904,#716,#717);
#611=AXIS2_PLACEMENT_3D('',#905,#718,#719);
#612=AXIS2_PLACEMENT_3D('',#906,#720,#721);
#613=AXIS2_PLACEMENT_3D('',#909,#723,#724);
#614=AXIS2_PLACEMENT_3D('',#911,#726,#727);
#615=AXIS2_PLACEMENT_3D('',#917,#731,#732);
#616=AXIS2_PLACEMENT_3D('',#920,#734,#735);
#617=AXIS2_PLACEMENT_3D('',#921,#736,#737);
#618=AXIS2_PLACEMENT_3D('',#922,#738,#739);
#619=AXIS2_PLACEMENT_3D('',#925,#741,#742);
#620=AXIS2_PLACEMENT_3D('',#927,#744,#745);
#621=AXIS2_PLACEMENT_3D('',#933,#749,#750);
#622=AXIS2_PLACEMENT_3D('',#936,#752,#753);
#623=AXIS2_PLACEMENT_3D('',#937,#754,#755);
#624=AXIS2_PLACEMENT_3D('',#938,#756,#757);
#625=AXIS2_PLACEMENT_3D('',#941,#759,#760);
#626=AXIS2_PLACEMENT_3D('',#943,#762,#763);
#627=AXIS2_PLACEMENT_3D('',#949,#767,#768);
#628=AXIS2_PLACEMENT_3D('',#950,#769,#770);
#629=AXIS2_PLACEMENT_3D('',#952,#771,#772);
#630=AXIS2_PLACEMENT_3D('',#954,#773,#774);
#631=AXIS2_PLACEMENT_3D('',#955,#775,#776);
#632=AXIS2_PLACEMENT_3D('',#956,#777,#778);
#633=AXIS2_PLACEMENT_3D('',#959,#779,#780);
#634=AXIS2_PLACEMENT_3D('',#960,#781,#782);
#635=AXIS2_PLACEMENT_3D('',#962,#783,#784);
#636=AXIS2_PLACEMENT_3D('',#964,#786,#787);
#637=AXIS2_PLACEMENT_3D('',#968,#790,#791);
#638=AXIS2_PLACEMENT_3D('',#969,#792,#793);
#639=AXIS2_PLACEMENT_3D('',#971,#794,#795);
#640=AXIS2_PLACEMENT_3D('',#973,#796,#797);
#641=AXIS2_PLACEMENT_3D('',#975,#798,#799);
#642=AXIS2_PLACEMENT_3D('',#977,#800,#801);
#643=AXIS2_PLACEMENT_3D('',#978,#802,#803);
#644=AXIS2_PLACEMENT_3D('',#979,#804,#805);
#645=AXIS2_PLACEMENT_3D('',#981,#806,#807);
#646=AXIS2_PLACEMENT_3D('',#983,#808,#809);
#647=AXIS2_PLACEMENT_3D('',#986,#811,#812);
#648=AXIS2_PLACEMENT_3D('',#989,#814,#815);
#649=AXIS2_PLACEMENT_3D('',#990,#816,#817);
#650=AXIS2_PLACEMENT_3D('',#997,#822,#823);
#651=AXIS2_PLACEMENT_3D('',#998,#824,#825);
#652=AXIS2_PLACEMENT_3D('',#1000,#826,#827);
#653=AXIS2_PLACEMENT_3D('',#1001,#828,#829);
#654=AXIS2_PLACEMENT_3D('',#1002,#830,#831);
#655=AXIS2_PLACEMENT_3D('',#1003,#832,#833);
#656=AXIS2_PLACEMENT_3D('',#1004,#834,#835);
#657=AXIS2_PLACEMENT_3D('',#1005,#836,#837);
#658=AXIS2_PLACEMENT_3D('',#1006,#838,#839);
#659=AXIS2_PLACEMENT_3D('',#1007,#840,#841);
#660=DIRECTION('',(0.,0.,1.));
#661=DIRECTION('',(1.,0.,0.));
#662=DIRECTION('',(0.,0.,1.));
#663=DIRECTION('',(1.,0.,0.));
#664=DIRECTION('',(0.,0.,-1.));
#665=DIRECTION('',(1.,0.,0.));
#666=DIRECTION('',(0.,0.,-1.));
#667=DIRECTION('',(1.,0.,0.));
#668=DIRECTION('',(0.,0.,1.));
#669=DIRECTION('',(1.,0.,0.));
#670=DIRECTION('',(0.,0.,-1.));
#671=DIRECTION('',(1.,0.,0.));
#672=DIRECTION('',(0.,-1.,0.));
#673=DIRECTION('',(0.,0.,-1.));
#674=DIRECTION('',(1.,0.,0.));
#675=DIRECTION('',(0.,1.,0.));
#676=DIRECTION('',(0.,0.,-1.));
#677=DIRECTION('',(-1.,0.,0.));
#678=DIRECTION('',(0.763512401937837,0.645793165097862,0.));
#679=DIRECTION('',(0.,0.,1.));
#680=DIRECTION('',(1.,0.,0.));
#681=DIRECTION('',(-0.763512401937837,0.645793165097862,0.));
#682=DIRECTION('',(0.,0.,1.));
#683=DIRECTION('',(1.,0.,0.));
#684=DIRECTION('',(0.,0.,1.));
#685=DIRECTION('',(1.,0.,0.));
#686=DIRECTION('',(-0.868949303939125,0.494901108489071,0.));
#687=DIRECTION('',(0.,0.,1.));
#688=DIRECTION('',(1.,0.,0.));
#689=DIRECTION('',(-0.853385639746534,-0.521280106923715,0.));
#690=DIRECTION('',(0.,0.,1.));
#691=DIRECTION('',(1.,0.,0.));
#692=DIRECTION('',(0.853385639746534,-0.521280106923715,0.));
#693=DIRECTION('',(0.,0.,1.));
#694=DIRECTION('',(1.,0.,0.));
#695=DIRECTION('',(0.868949303939125,0.494901108489071,0.));
#696=DIRECTION('',(0.,0.,1.));
#697=DIRECTION('',(1.,0.,0.));
#698=DIRECTION('',(-0.763512401937837,-0.645793165097862,0.));
#699=DIRECTION('',(0.,0.,1.));
#700=DIRECTION('',(1.,0.,0.));
#701=DIRECTION('',(0.763512401937837,-0.645793165097862,0.));
#702=DIRECTION('',(0.,0.,1.));
#703=DIRECTION('',(1.,0.,0.));
#704=DIRECTION('',(0.,0.,1.));
#705=DIRECTION('',(1.,0.,0.));
#706=DIRECTION('',(0.,0.,1.));
#707=DIRECTION('',(1.,0.,0.));
#708=DIRECTION('',(-0.645793165097862,-0.763512401937837,0.));
#709=DIRECTION('',(-0.763512401937837,0.645793165097862,0.));
#710=DIRECTION('',(0.,0.,1.));
#711=DIRECTION('',(-0.763512401937837,0.645793165097862,0.));
#712=DIRECTION('',(0.,0.,-1.));
#713=DIRECTION('',(0.,0.,-1.));
#714=DIRECTION('',(1.,0.,0.));
#715=DIRECTION('',(0.,0.,1.));
#716=DIRECTION('',(0.,0.,1.));
#717=DIRECTION('',(1.,0.,0.));
#718=DIRECTION('',(0.,0.,-1.));
#719=DIRECTION('',(1.,0.,0.));
#720=DIRECTION('',(0.,0.,1.));
#721=DIRECTION('',(1.,0.,0.));
#722=DIRECTION('',(0.,0.,-1.));
#723=DIRECTION('',(-0.645793165097862,0.763512401937837,0.));
#724=DIRECTION('',(0.763512401937837,0.645793165097862,0.));
#725=DIRECTION('',(0.763512401937837,0.645793165097862,0.));
#726=DIRECTION('',(-0.494901108489071,0.868949303939125,0.));
#727=DIRECTION('',(0.868949303939125,0.494901108489071,0.));
#728=DIRECTION('',(0.,0.,1.));
#729=DIRECTION('',(0.868949303939125,0.494901108489071,0.));
#730=DIRECTION('',(0.,0.,-1.));
#731=DIRECTION('',(0.,0.,-1.));
#732=DIRECTION('',(1.,0.,0.));
#733=DIRECTION('',(0.,0.,1.));
#734=DIRECTION('',(0.,0.,1.));
#735=DIRECTION('',(1.,0.,0.));
#736=DIRECTION('',(0.,0.,-1.));
#737=DIRECTION('',(1.,0.,0.));
#738=DIRECTION('',(0.,0.,1.));
#739=DIRECTION('',(1.,0.,0.));
#740=DIRECTION('',(0.,0.,-1.));
#741=DIRECTION('',(0.521280106923715,0.853385639746534,0.));
#742=DIRECTION('',(0.853385639746534,-0.521280106923715,0.));
#743=DIRECTION('',(0.853385639746534,-0.521280106923715,0.));
#744=DIRECTION('',(0.521280106923715,-0.853385639746534,0.));
#745=DIRECTION('',(-0.853385639746534,-0.521280106923715,0.));
#746=DIRECTION('',(0.,0.,1.));
#747=DIRECTION('',(-0.853385639746534,-0.521280106923715,0.));
#748=DIRECTION('',(0.,0.,-1.));
#749=DIRECTION('',(0.,0.,-1.));
#750=DIRECTION('',(1.,0.,0.));
#751=DIRECTION('',(0.,0.,1.));
#752=DIRECTION('',(0.,0.,1.));
#753=DIRECTION('',(1.,0.,0.));
#754=DIRECTION('',(0.,0.,-1.));
#755=DIRECTION('',(1.,0.,0.));
#756=DIRECTION('',(0.,0.,1.));
#757=DIRECTION('',(1.,0.,0.));
#758=DIRECTION('',(0.,0.,-1.));
#759=DIRECTION('',(-0.494901108489071,-0.868949303939125,0.));
#760=DIRECTION('',(-0.868949303939125,0.494901108489071,0.));
#761=DIRECTION('',(-0.868949303939125,0.494901108489071,0.));
#762=DIRECTION('',(0.645793165097862,-0.763512401937837,0.));
#763=DIRECTION('',(-0.763512401937837,-0.645793165097862,0.));
#764=DIRECTION('',(0.,0.,-1.));
#765=DIRECTION('',(-0.763512401937837,-0.645793165097862,0.));
#766=DIRECTION('',(0.,0.,1.));
#767=DIRECTION('',(0.,0.,-1.));
#768=DIRECTION('',(1.,0.,0.));
#769=DIRECTION('',(0.868243142124459,0.,-0.496138938356834));
#770=DIRECTION('',(-0.496138938356834,0.,-0.868243142124459));
#771=DIRECTION('',(0.,0.,1.));
#772=DIRECTION('',(1.,0.,0.));
#773=DIRECTION('',(-0.868243142124459,0.,-0.496138938356834));
#774=DIRECTION('',(0.496138938356834,0.,-0.868243142124459));
#775=DIRECTION('',(0.,0.,-1.));
#776=DIRECTION('',(1.,0.,0.));
#777=DIRECTION('',(0.,0.,1.));
#778=DIRECTION('',(1.,0.,0.));
#779=DIRECTION('',(0.868243142124459,0.,-0.496138938356834));
#780=DIRECTION('',(-0.496138938356834,0.,-0.868243142124459));
#781=DIRECTION('',(-0.868243142124459,0.,-0.496138938356834));
#782=DIRECTION('',(0.496138938356834,0.,-0.868243142124459));
#783=DIRECTION('',(0.,0.,1.));
#784=DIRECTION('',(1.,0.,0.));
#785=DIRECTION('',(0.,0.,-1.));
#786=DIRECTION('',(0.645793165097862,0.763512401937837,0.));
#787=DIRECTION('',(0.763512401937837,-0.645793165097862,0.));
#788=DIRECTION('',(0.,0.,1.));
#789=DIRECTION('',(0.763512401937837,-0.645793165097862,0.));
#790=DIRECTION('',(0.,0.,-1.));
#791=DIRECTION('',(1.,0.,0.));
#792=DIRECTION('',(0.,0.,1.));
#793=DIRECTION('',(1.,0.,0.));
#794=DIRECTION('',(-0.868243142124459,0.,-0.496138938356834));
#795=DIRECTION('',(0.496138938356834,0.,-0.868243142124459));
#796=DIRECTION('',(0.,0.,-1.));
#797=DIRECTION('',(1.,0.,0.));
#798=DIRECTION('',(0.868243142124459,0.,-0.496138938356834));
#799=DIRECTION('',(-0.496138938356834,0.,-0.868243142124459));
#800=DIRECTION('',(0.,0.,1.));
#801=DIRECTION('',(1.,0.,0.));
#802=DIRECTION('',(0.,0.,1.));
#803=DIRECTION('',(1.,0.,0.));
#804=DIRECTION('',(0.,0.,1.));
#805=DIRECTION('',(1.,0.,0.));
#806=DIRECTION('',(0.,0.,-1.));
#807=DIRECTION('',(1.,0.,0.));
#808=DIRECTION('',(0.,0.,1.));
#809=DIRECTION('',(1.,0.,0.));
#810=DIRECTION('',(0.,-1.,0.));
#811=DIRECTION('',(0.,0.,-1.));
#812=DIRECTION('',(1.,0.,0.));
#813=DIRECTION('',(0.,1.,0.));
#814=DIRECTION('',(0.,0.,1.));
#815=DIRECTION('',(1.,0.,0.));
#816=DIRECTION('',(0.,0.,1.));
#817=DIRECTION('',(1.,0.,0.));
#818=DIRECTION('',(0.,-1.,0.));
#819=DIRECTION('',(0.,-1.,0.));
#820=DIRECTION('',(0.,1.,0.));
#821=DIRECTION('',(0.,1.,0.));
#822=DIRECTION('',(0.,0.,-1.));
#823=DIRECTION('',(-1.,0.,0.));
#824=DIRECTION('',(0.,0.,1.));
#825=DIRECTION('',(1.,0.,0.));
#826=DIRECTION('',(0.,0.,-1.));
#827=DIRECTION('',(1.,0.,0.));
#828=DIRECTION('',(-0.868243142124459,0.,-0.496138938356834));
#829=DIRECTION('',(0.496138938356834,0.,-0.868243142124459));
#830=DIRECTION('',(0.868243142124459,0.,-0.496138938356834));
#831=DIRECTION('',(-0.496138938356834,0.,-0.868243142124459));
#832=DIRECTION('',(-0.868243142124459,0.,-0.496138938356834));
#833=DIRECTION('',(0.,-1.,0.));
#834=DIRECTION('',(0.868243142124459,0.,-0.496138938356834));
#835=DIRECTION('',(0.,1.,0.));
#836=DIRECTION('',(0.868243142124459,0.,-0.496138938356834));
#837=DIRECTION('',(0.,1.,0.));
#838=DIRECTION('',(-0.868243142124459,0.,-0.496138938356834));
#839=DIRECTION('',(0.,-1.,0.));
#840=DIRECTION('',(0.,0.,1.));
#841=DIRECTION('',(1.,0.,0.));
#842=CARTESIAN_POINT('',(0.,0.,0.));
#843=CARTESIAN_POINT('',(0.,0.,0.));
#844=CARTESIAN_POINT('',(0.,0.,-0.015));
#845=CARTESIAN_POINT('',(0.085418763904484,0.,-0.015));
#846=CARTESIAN_POINT('',(0.,0.,0.));
#847=CARTESIAN_POINT('',(0.085418763904484,0.,0.));
#848=CARTESIAN_POINT('',(0.,-0.0640068595,0.003));
#849=CARTESIAN_POINT('',(0.,0.,0.003));
#850=CARTESIAN_POINT('',(0.005819361321881,-0.0318734485928927,0.003));
#851=CARTESIAN_POINT('',(-0.005819361321881,-0.0318734485928927,0.003));
#852=CARTESIAN_POINT('',(-0.005819361321881,-0.0640068595,0.003));
#853=CARTESIAN_POINT('',(-0.005819361321881,-0.0499166416339114,0.003));
#854=CARTESIAN_POINT('',(0.,0.,0.003));
#855=CARTESIAN_POINT('',(0.005819361321881,-0.0499166416339114,0.003));
#856=CARTESIAN_POINT('',(0.005819361321881,-0.0640068595,0.003));
#857=CARTESIAN_POINT('',(-3.764136278818E-18,-3.226879853861E-20,0.));
#858=CARTESIAN_POINT('',(0.0241548,0.0224891,0.));
#859=CARTESIAN_POINT('',(0.037336331808496,0.033638287787711,0.));
#860=CARTESIAN_POINT('',(0.058145047323154,0.051238691159983,0.));
#861=CARTESIAN_POINT('',(5.105662393803E-34,-6.05198907572E-32,0.));
#862=CARTESIAN_POINT('',(-0.05814504732315,0.051238691159983,0.));
#863=CARTESIAN_POINT('',(-0.0241548,0.0224891,0.));
#864=CARTESIAN_POINT('',(-0.03733633180849,0.033638287787711,0.));
#865=CARTESIAN_POINT('',(0.,0.,0.));
#866=CARTESIAN_POINT('',(0.,0.,0.));
#867=CARTESIAN_POINT('',(0.032400334742073,0.,0.));
#868=CARTESIAN_POINT('',(-0.03243639799059,0.006090489901966,0.));
#869=CARTESIAN_POINT('',(-0.04798138790506,0.014943978483224,0.));
#870=CARTESIAN_POINT('',(-0.07201666491124,0.02863302245768,0.));
#871=CARTESIAN_POINT('',(5.105662393803E-34,-6.05198907572E-32,0.));
#872=CARTESIAN_POINT('',(-0.07148260876092,-0.02994138682046,0.));
#873=CARTESIAN_POINT('',(-0.03243639799059,-0.006090489901966,0.));
#874=CARTESIAN_POINT('',(-0.04781061468146,-0.01548164080399,0.));
#875=CARTESIAN_POINT('',(0.,0.,0.));
#876=CARTESIAN_POINT('',(0.032436397990591,-0.006090489901966,0.));
#877=CARTESIAN_POINT('',(0.047810614681461,-0.01548164080399,0.));
#878=CARTESIAN_POINT('',(0.071482608760926,-0.02994138682046,0.));
#879=CARTESIAN_POINT('',(5.105662393803E-34,-6.05198907572E-32,0.));
#880=CARTESIAN_POINT('',(0.072016664911241,0.02863302245768,0.));
#881=CARTESIAN_POINT('',(0.032436397990591,0.006090489901966,0.));
#882=CARTESIAN_POINT('',(0.04798138790506,0.014943978483224,0.));
#883=CARTESIAN_POINT('',(0.,0.,0.));
#884=CARTESIAN_POINT('',(-0.0241548,-0.0224891,0.));
#885=CARTESIAN_POINT('',(-0.03733633180849,-0.03363828778771,0.));
#886=CARTESIAN_POINT('',(-0.05814504732315,-0.05123869115998,0.));
#887=CARTESIAN_POINT('',(5.105662393803E-34,-6.05198907572E-32,0.));
#888=CARTESIAN_POINT('',(0.058145047323154,-0.05123869115998,0.));
#889=CARTESIAN_POINT('',(0.0241548,-0.0224891,0.));
#890=CARTESIAN_POINT('',(0.037336331808496,-0.03363828778771,0.));
#891=CARTESIAN_POINT('',(0.,0.,0.));
#892=CARTESIAN_POINT('',(-3.925371899679E-18,1.432488566701E-20,-0.015));
#893=CARTESIAN_POINT('',(0.,0.,-0.015));
#894=CARTESIAN_POINT('',(0.087941240129127,0.,-0.015));
#895=CARTESIAN_POINT('',(-0.0241548,0.0224891,0.));
#896=CARTESIAN_POINT('',(-0.05814504732315,0.051238691159983,0.));
#897=CARTESIAN_POINT('',(-0.05814504732315,0.051238691159983,0.01));
#898=CARTESIAN_POINT('',(-0.0241548,0.0224891,0.01));
#899=CARTESIAN_POINT('',(-0.03733633180849,0.033638287787711,0.01));
#900=CARTESIAN_POINT('',(-0.03733633180849,0.033638287787711,0.));
#901=CARTESIAN_POINT('',(5.105662393803E-34,-6.05198907572E-32,0.));
#902=CARTESIAN_POINT('',(0.058145047323154,0.051238691159983,0.));
#903=CARTESIAN_POINT('',(0.058145047323154,0.051238691159983,0.01));
#904=CARTESIAN_POINT('',(5.105662393803E-34,-6.05198907572E-32,0.01));
#905=CARTESIAN_POINT('',(0.,0.,0.));
#906=CARTESIAN_POINT('',(0.,0.,0.01));
#907=CARTESIAN_POINT('',(0.037336331808496,0.033638287787711,0.01));
#908=CARTESIAN_POINT('',(0.037336331808496,0.033638287787711,0.));
#909=CARTESIAN_POINT('',(0.0241548,0.0224891,0.));
#910=CARTESIAN_POINT('',(0.0241548,0.0224891,0.01));
#911=CARTESIAN_POINT('',(0.032436397990591,0.006090489901966,0.));
#912=CARTESIAN_POINT('',(0.072016664911241,0.02863302245768,0.));
#913=CARTESIAN_POINT('',(0.072016664911241,0.02863302245768,0.01));
#914=CARTESIAN_POINT('',(0.032436397990591,0.006090489901966,0.01));
#915=CARTESIAN_POINT('',(0.04798138790506,0.014943978483224,0.01));
#916=CARTESIAN_POINT('',(0.04798138790506,0.014943978483225,0.));
#917=CARTESIAN_POINT('',(5.105662393803E-34,-6.05198907572E-32,0.));
#918=CARTESIAN_POINT('',(0.071482608760926,-0.02994138682046,0.));
#919=CARTESIAN_POINT('',(0.071482608760926,-0.02994138682046,0.01));
#920=CARTESIAN_POINT('',(5.105662393803E-34,-6.05198907572E-32,0.01));
#921=CARTESIAN_POINT('',(0.,0.,0.));
#922=CARTESIAN_POINT('',(0.,0.,0.01));
#923=CARTESIAN_POINT('',(0.047810614681461,-0.01548164080399,0.01));
#924=CARTESIAN_POINT('',(0.047810614681461,-0.01548164080399,0.));
#925=CARTESIAN_POINT('',(0.032436397990591,-0.006090489901966,0.));
#926=CARTESIAN_POINT('',(0.032436397990591,-0.006090489901966,0.01));
#927=CARTESIAN_POINT('',(-0.03243639799059,-0.006090489901966,0.));
#928=CARTESIAN_POINT('',(-0.07148260876092,-0.02994138682046,0.));
#929=CARTESIAN_POINT('',(-0.07148260876092,-0.02994138682046,0.01));
#930=CARTESIAN_POINT('',(-0.03243639799059,-0.006090489901966,0.01));
#931=CARTESIAN_POINT('',(-0.04781061468146,-0.01548164080399,0.01));
#932=CARTESIAN_POINT('',(-0.04781061468146,-0.01548164080399,0.));
#933=CARTESIAN_POINT('',(5.105662393803E-34,-6.05198907572E-32,0.));
#934=CARTESIAN_POINT('',(-0.07201666491124,0.02863302245768,0.));
#935=CARTESIAN_POINT('',(-0.07201666491124,0.02863302245768,0.01));
#936=CARTESIAN_POINT('',(5.105662393803E-34,-6.05198907572E-32,0.01));
#937=CARTESIAN_POINT('',(0.,0.,0.));
#938=CARTESIAN_POINT('',(0.,0.,0.01));
#939=CARTESIAN_POINT('',(-0.04798138790506,0.014943978483224,0.01));
#940=CARTESIAN_POINT('',(-0.04798138790506,0.014943978483225,0.));
#941=CARTESIAN_POINT('',(-0.03243639799059,0.006090489901966,0.));
#942=CARTESIAN_POINT('',(-0.03243639799059,0.006090489901966,0.01));
#943=CARTESIAN_POINT('',(-0.0241548,-0.0224891,0.));
#944=CARTESIAN_POINT('',(-0.03733633180849,-0.03363828778771,0.));
#945=CARTESIAN_POINT('',(-0.03733633180849,-0.03363828778771,0.01));
#946=CARTESIAN_POINT('',(-0.0241548,-0.0224891,0.01));
#947=CARTESIAN_POINT('',(-0.05814504732315,-0.05123869115998,0.01));
#948=CARTESIAN_POINT('',(-0.05814504732315,-0.05123869115998,0.));
#949=CARTESIAN_POINT('',(0.,0.,0.));
#950=CARTESIAN_POINT('',(0.,0.,-0.00718388231329175));
#951=CARTESIAN_POINT('',(0.009819361321881,-0.03087655801135,0.01));
#952=CARTESIAN_POINT('',(0.,0.,0.01));
#953=CARTESIAN_POINT('',(-0.009819361321882,-0.03087655801135,0.01));
#954=CARTESIAN_POINT('',(0.,0.,-0.00718388231329175));
#955=CARTESIAN_POINT('',(0.,0.,0.));
#956=CARTESIAN_POINT('',(0.,0.,0.01));
#957=CARTESIAN_POINT('',(0.00981936132188,-0.04928606518513,0.01));
#958=CARTESIAN_POINT('',(0.037336331808496,-0.03363828778771,0.01));
#959=CARTESIAN_POINT('',(0.,0.,-0.00718388231329175));
#960=CARTESIAN_POINT('',(0.,0.,-0.00718388231329175));
#961=CARTESIAN_POINT('',(-0.00981936132188,-0.04928606518513,0.01));
#962=CARTESIAN_POINT('',(0.,0.,0.01));
#963=CARTESIAN_POINT('',(0.037336331808496,-0.03363828778771,0.));
#964=CARTESIAN_POINT('',(0.0241548,-0.0224891,0.));
#965=CARTESIAN_POINT('',(0.058145047323154,-0.05123869115998,0.));
#966=CARTESIAN_POINT('',(0.058145047323154,-0.05123869115998,0.01));
#967=CARTESIAN_POINT('',(0.0241548,-0.0224891,0.01));
#968=CARTESIAN_POINT('',(5.105662393803E-34,-6.05198907572E-32,0.));
#969=CARTESIAN_POINT('',(5.105662393803E-34,-6.05198907572E-32,0.01));
#970=CARTESIAN_POINT('',(-0.009819361321881,-0.07687541962962,0.01));
#971=CARTESIAN_POINT('',(5.105662393803E-34,-6.05198907572E-32,-0.00718388231329175));
#972=CARTESIAN_POINT('',(-0.005819361321881,-0.0772812075074231,0.003));
#973=CARTESIAN_POINT('',(5.105662393803E-34,-6.05198907572E-32,0.003));
#974=CARTESIAN_POINT('',(0.005819361321881,-0.0772812075074231,0.003));
#975=CARTESIAN_POINT('',(5.105662393803E-34,-6.05198907572E-32,-0.00718388231329175));
#976=CARTESIAN_POINT('',(0.009819361321881,-0.07687541962962,0.01));
#977=CARTESIAN_POINT('',(5.105662393803E-34,-6.05198907572E-32,0.01));
#978=CARTESIAN_POINT('',(0.,0.,0.));
#979=CARTESIAN_POINT('',(0.,0.,-0.001));
#980=CARTESIAN_POINT('',(0.092941240129127,0.,-0.001));
#981=CARTESIAN_POINT('',(0.,0.,0.));
#982=CARTESIAN_POINT('',(0.092941240129127,0.,0.));
#983=CARTESIAN_POINT('',(0.,-0.0640068595,0.003));
#984=CARTESIAN_POINT('',(-0.005819361321881,-0.0640068595,0.003));
#985=CARTESIAN_POINT('',(-0.005819361321881,-0.0928177517170363,0.003));
#986=CARTESIAN_POINT('',(5.105662393803E-34,-6.05198907572E-32,0.003));
#987=CARTESIAN_POINT('',(0.005819361321881,-0.0928177517170363,0.003));
#988=CARTESIAN_POINT('',(0.005819361321881,-0.0640068595,0.003));
#989=CARTESIAN_POINT('',(-3.764136278818E-18,-3.226879853861E-20,0.01));
#990=CARTESIAN_POINT('',(5.105662393803E-34,-6.05198907572E-32,0.01));
#991=CARTESIAN_POINT('',(0.009819361321879,-0.09248016080884,0.01));
#992=CARTESIAN_POINT('',(-0.00981936132188,-0.09248016080884,0.01));
#993=CARTESIAN_POINT('',(-0.009819361321881,-0.030261896,0.01));
#994=CARTESIAN_POINT('',(-0.009819361321881,-0.030261896,0.01));
#995=CARTESIAN_POINT('',(0.009819361321881,-0.097751823,0.01));
#996=CARTESIAN_POINT('',(0.009819361321881,-0.097751823,0.01));
#997=CARTESIAN_POINT('',(-3.764136278818E-18,-3.226879853861E-20,0.));
#998=CARTESIAN_POINT('',(5.105662393803E-34,-6.05198907572E-32,0.));
#999=CARTESIAN_POINT('',(0.093,-6.05198907572E-32,0.));
#1000=CARTESIAN_POINT('',(5.105662393803E-34,-6.05198907572E-32,0.));
#1001=CARTESIAN_POINT('',(5.105662393803E-34,-6.05198907572E-32,-0.00718388231329175));
#1002=CARTESIAN_POINT('',(5.105662393803E-34,-6.05198907572E-32,-0.00718388231329175));
#1003=CARTESIAN_POINT('',(-0.005819361321881,-0.0640068595,0.003));
#1004=CARTESIAN_POINT('',(0.005819361321881,-0.0640068595,0.003));
#1005=CARTESIAN_POINT('',(0.005819361321881,-0.0640068595,0.003));
#1006=CARTESIAN_POINT('',(-0.005819361321881,-0.0640068595,0.003));
#1007=CARTESIAN_POINT('',(0.,0.,-0.015));
#1008=MECHANICAL_DESIGN_GEOMETRIC_PRESENTATION_REPRESENTATION('',(#578),
#1009);
#1009=(
GEOMETRIC_REPRESENTATION_CONTEXT(3)
GLOBAL_UNCERTAINTY_ASSIGNED_CONTEXT((#1010))
GLOBAL_UNIT_ASSIGNED_CONTEXT((#1013,#1012,#1011))
REPRESENTATION_CONTEXT('Pad052','TOP_LEVEL_ASSEMBLY_PART')
);
#1010=UNCERTAINTY_MEASURE_WITH_UNIT(LENGTH_MEASURE(1.E-6),#1013,
'DISTANCE_ACCURACY_VALUE','Maximum Tolerance applied to model');
#1011=(
NAMED_UNIT(*)
SI_UNIT($,.STERADIAN.)
SOLID_ANGLE_UNIT()
);
#1012=(
NAMED_UNIT(*)
PLANE_ANGLE_UNIT()
SI_UNIT($,.RADIAN.)
);
#1013=(
LENGTH_UNIT()
NAMED_UNIT(*)
SI_UNIT($,.METRE.)
);
#1014=PRODUCT_DEFINITION_SHAPE('','',#1015);
#1015=PRODUCT_DEFINITION('','',#1017,#1016);
#1016=PRODUCT_DEFINITION_CONTEXT('',#1023,'design');
#1017=PRODUCT_DEFINITION_FORMATION_WITH_SPECIFIED_SOURCE('','',#1019,
 .NOT_KNOWN.);
#1018=PRODUCT_RELATED_PRODUCT_CATEGORY('','',(#1019));
#1019=PRODUCT('Pad052','Pad052','Pad052',(#1021));
#1020=PRODUCT_CATEGORY('','');
#1021=PRODUCT_CONTEXT('',#1023,'mechanical');
#1022=APPLICATION_PROTOCOL_DEFINITION('international standard',
'ap242_managed_model_based_3d_engineering',2011,#1023);
#1023=APPLICATION_CONTEXT('managed model based 3d engineering');
ENDSEC;
END-ISO-10303-21;
